<?xml version="1.0" encoding="UTF-8"?>
<!DOCTYPE svg PUBLIC "-//W3C//DTD SVG 1.1//EN" "http://www.w3.org/Graphics/SVG/1.1/DTD/svg11.dtd">
<svg xmlns="http://www.w3.org/2000/svg" version="1.1" width="563px" height="443px" style="shape-rendering:geometricPrecision; text-rendering:geometricPrecision; image-rendering:optimizeQuality; fill-rule:evenodd; clip-rule:evenodd" xmlns:xlink="http://www.w3.org/1999/xlink">
<g><path style="opacity:0.997" fill="#040404" d="M 217.5,-0.5 C 219.5,-0.5 221.5,-0.5 223.5,-0.5C 239.102,2.77636 247.769,12.443 249.5,28.5C 249.32,33.9069 247.82,38.9069 245,43.5C 196.067,93.0199 146.567,142.52 96.5,192C 238.835,193.454 381.168,193.787 523.5,193C 529.167,193.333 534.833,193.667 540.5,194C 552.799,196.798 560.133,204.298 562.5,216.5C 562.5,220.167 562.5,223.833 562.5,227.5C 559.038,240.784 550.371,248.284 536.5,250C 411.494,250.819 286.494,250.652 161.5,249.5C 140.174,250.238 118.841,250.738 97.5,251C 147.516,299.745 196.682,348.912 245,398.5C 252.764,414.355 249.597,427.522 235.5,438C 231.568,440.028 227.568,441.528 223.5,442.5C 221.5,442.5 219.5,442.5 217.5,442.5C 212.132,441.424 207.132,439.258 202.5,436C 136.297,369.426 69.4635,302.593 2,235.5C 1.21774,232.69 0.384409,230.023 -0.5,227.5C -0.5,223.5 -0.5,219.5 -0.5,215.5C 0.719617,210.394 3.05295,205.727 6.5,201.5C 73.6981,134.958 140.365,68.7918 206.5,3C 210.254,1.69123 213.921,0.524565 217.5,-0.5 Z"/></g>
</svg>
