<?xml version="1.0" encoding="UTF-8"?>
<!DOCTYPE svg PUBLIC "-//W3C//DTD SVG 1.1//EN" "http://www.w3.org/Graphics/SVG/1.1/DTD/svg11.dtd">
<svg xmlns="http://www.w3.org/2000/svg" version="1.1" width="500px" height="500px" style="shape-rendering:geometricPrecision; text-rendering:geometricPrecision; image-rendering:optimizeQuality; fill-rule:evenodd; clip-rule:evenodd" xmlns:xlink="http://www.w3.org/1999/xlink">
<g><path style="opacity:1" fill="#272324" d="M 401.5,196.5 C 401.833,197.5 402.5,198.167 403.5,198.5C 414.076,206.405 423.742,215.405 432.5,225.5C 433.08,227.749 434.413,229.415 436.5,230.5C 440.525,233.558 443.858,237.225 446.5,241.5C 446.738,243.404 447.738,244.738 449.5,245.5C 450.5,245.833 451.167,246.5 451.5,247.5C 451.738,249.404 452.738,250.738 454.5,251.5C 455.627,252.122 456.627,252.955 457.5,254C 454.302,258.026 450.968,261.859 447.5,265.5C 446.85,265.196 446.183,264.863 445.5,264.5C 444.77,265.934 443.77,267.1 442.5,268C 442.833,268.333 443.167,268.667 443.5,269C 441.5,270 439.5,271 437.5,272C 438.833,273.84 438.666,274.34 437,273.5C 435.991,275.025 435.491,276.692 435.5,278.5C 429.108,285.525 422.108,291.859 414.5,297.5C 413.778,297.082 413.278,296.416 413,295.5C 412.716,297.886 411.716,298.552 410,297.5C 408.331,299.169 407.498,301.169 407.5,303.5C 404.794,303.575 402.127,303.908 399.5,304.5C 399.5,306.167 399.5,307.833 399.5,309.5C 397.011,309.241 395.344,310.241 394.5,312.5C 366.34,333.258 335.006,347.258 300.5,354.5C 296.988,353.945 293.988,354.612 291.5,356.5C 242.529,364.169 196.196,356.503 152.5,333.5C 152.027,332.094 151.027,331.427 149.5,331.5C 137.704,326.104 126.704,319.437 116.5,311.5C 116.027,310.094 115.027,309.427 113.5,309.5C 113.027,308.094 112.027,307.427 110.5,307.5C 110.027,306.094 109.027,305.427 107.5,305.5C 105.091,304.299 103.091,302.633 101.5,300.5C 100.738,298.738 99.4044,297.738 97.5,297.5C 96.8333,297.5 96.5,297.167 96.5,296.5C 95.7377,294.738 94.4044,293.738 92.5,293.5C 91.5,293.167 90.8333,292.5 90.5,291.5C 89.4154,289.413 87.7488,288.08 85.5,287.5C 84.8333,287.5 84.5,287.167 84.5,286.5C 83.0892,284.086 81.0892,282.419 78.5,281.5C 75.8061,279.473 73.4728,277.139 71.5,274.5C 70.4154,272.413 68.7488,271.08 66.5,270.5C 66.5,268.5 65.5,267.5 63.5,267.5C 63.5,265.5 62.5,264.5 60.5,264.5C 60.5,262.5 59.5,261.5 57.5,261.5C 57.5,259.5 56.5,258.5 54.5,258.5C 51.8621,255.526 49.1954,252.526 46.5,249.5C 47.1712,248.153 47.1712,246.986 46.5,246C 47.448,245.517 48.448,245.351 49.5,245.5C 49.5,244.167 49.5,242.833 49.5,241.5C 56.814,233.187 64.814,225.521 73.5,218.5C 75.4044,218.262 76.7377,217.262 77.5,215.5C 80.0892,214.581 82.0892,212.914 83.5,210.5C 84.2623,208.738 85.5956,207.738 87.5,207.5C 89.7488,206.92 91.4154,205.587 92.5,203.5C 101.133,196.18 110.466,189.847 120.5,184.5C 122.167,184.5 123.833,184.5 125.5,184.5C 125.5,183.5 125.5,182.5 125.5,181.5C 128.421,181.854 130.754,180.854 132.5,178.5C 133.258,179.811 134.258,180.311 135.5,180C 134.272,178.51 134.272,177.01 135.5,175.5C 141.182,171.992 147.182,168.992 153.5,166.5C 154.496,166.414 155.329,166.748 156,167.5C 156.317,165.699 156.984,165.366 158,166.5C 160.261,164.92 162.427,163.254 164.5,161.5C 165.496,161.414 166.329,161.748 167,162.5C 168.492,161.08 169.992,159.746 171.5,158.5C 241.606,130.841 308.939,136.341 373.5,175C 383.303,181.647 392.637,188.814 401.5,196.5 Z M 313.5,177.5 C 320.757,180.48 328.091,183.48 335.5,186.5C 336.209,187.404 337.209,187.737 338.5,187.5C 339.911,189.539 341.911,190.539 344.5,190.5C 348.164,193.335 352.164,195.668 356.5,197.5C 356.973,198.906 357.973,199.573 359.5,199.5C 359.973,200.906 360.973,201.573 362.5,201.5C 362.973,202.906 363.973,203.573 365.5,203.5C 365.973,204.906 366.973,205.573 368.5,205.5C 369.262,207.262 370.596,208.262 372.5,208.5C 372.973,209.906 373.973,210.573 375.5,210.5C 391.569,223.733 406.569,238.233 420.5,254C 415.963,258.369 411.63,262.869 407.5,267.5C 404.236,269.094 401.569,271.427 399.5,274.5C 382.574,287.746 364.574,299.413 345.5,309.5C 343.973,309.427 342.973,310.094 342.5,311.5C 341.508,311.328 340.842,311.662 340.5,312.5C 335.522,313.932 330.856,315.932 326.5,318.5C 324.901,318.232 323.568,318.566 322.5,319.5C 317.607,320.796 312.94,322.462 308.5,324.5C 305.505,324.294 302.838,324.96 300.5,326.5C 278.042,331.216 255.375,332.549 232.5,330.5C 229.054,329.313 225.387,328.646 221.5,328.5C 198.925,323.304 177.258,315.304 156.5,304.5C 154.664,302.412 152.331,301.079 149.5,300.5C 139.697,294.093 130.03,287.426 120.5,280.5C 117.057,277.271 113.39,274.271 109.5,271.5C 104.207,266.843 98.8739,262.177 93.5,257.5C 93.0269,256.094 92.0269,255.427 90.5,255.5C 88.5,252.833 86.1667,250.5 83.5,248.5C 84.5434,245.944 86.2101,243.777 88.5,242C 92.9032,238.481 97.2366,234.981 101.5,231.5C 103.909,230.299 105.909,228.633 107.5,226.5C 111.979,223.757 116.312,220.757 120.5,217.5C 125.132,214.857 129.465,211.857 133.5,208.5C 136.004,207.416 138.337,206.083 140.5,204.5C 142.434,203.89 144.101,202.89 145.5,201.5C 148.856,200.389 151.856,198.723 154.5,196.5C 181.555,182.538 210.221,173.705 240.5,170C 265.354,167.671 289.687,170.171 313.5,177.5 Z"/></g>
<g><path style="opacity:1" fill="#6c6869" d="M 171.5,158.5 C 169.992,159.746 168.492,161.08 167,162.5C 166.329,161.748 165.496,161.414 164.5,161.5C 166.509,159.935 168.843,158.935 171.5,158.5 Z"/></g>
<g><path style="opacity:1" fill="#595455" d="M 164.5,161.5 C 162.427,163.254 160.261,164.92 158,166.5C 156.984,165.366 156.317,165.699 156,167.5C 155.329,166.748 154.496,166.414 153.5,166.5C 156.74,164.049 160.407,162.382 164.5,161.5 Z"/></g>
<g><path style="opacity:1" fill="#252122" d="M 269.5,171.5 C 271.842,172.008 274.009,173.008 276,174.5C 277.356,173.62 278.856,173.286 280.5,173.5C 282.854,173.838 285.187,174.338 287.5,175C 292.674,176.751 297.341,179.251 301.5,182.5C 301.158,183.338 300.492,183.672 299.5,183.5C 288.368,182.117 278.702,185.117 270.5,192.5C 268.669,191.948 267.003,191.948 265.5,192.5C 265.709,193.086 266.043,193.586 266.5,194C 265.376,194.249 264.376,194.749 263.5,195.5C 264.246,196.736 264.579,198.07 264.5,199.5C 260.022,207.562 258.355,216.229 259.5,225.5C 259.92,227.674 259.92,229.674 259.5,231.5C 260.849,232.909 262.182,234.243 263.5,235.5C 263.427,237.027 264.094,238.027 265.5,238.5C 266.5,238.833 267.167,239.5 267.5,240.5C 267.5,242.5 268.5,243.5 270.5,243.5C 283.271,253.814 296.938,255.148 311.5,247.5C 313.027,247.573 314.027,246.906 314.5,245.5C 317.908,242.099 320.908,238.432 323.5,234.5C 326.883,231.341 328.216,227.341 327.5,222.5C 327.5,222.167 327.5,221.833 327.5,221.5C 328.047,219.482 329.047,217.649 330.5,216C 330.167,215.667 329.833,215.333 329.5,215C 331.066,214.7 332.399,215.2 333.5,216.5C 334.736,218.649 335.736,220.982 336.5,223.5C 336.12,227.658 337.12,231.325 339.5,234.5C 343.112,250.956 341.445,266.956 334.5,282.5C 333.099,282.971 331.766,283.638 330.5,284.5C 330.709,285.086 331.043,285.586 331.5,286C 328.34,289.168 325.507,292.668 323,296.5C 322.577,295.044 321.744,294.544 320.5,295C 321.591,297.064 321.758,299.231 321,301.5C 320.667,300.833 320.333,300.167 320,299.5C 319.506,301.134 319.34,302.801 319.5,304.5C 318.167,306.5 316.5,308.167 314.5,309.5C 312.801,309.34 311.134,309.506 309.5,310C 307.362,312.106 305.695,313.939 304.5,315.5C 303.468,313.96 302.135,313.46 300.5,314C 301.308,314.308 301.975,314.808 302.5,315.5C 300.726,316.187 299.059,317.02 297.5,318C 298.252,318.671 298.586,319.504 298.5,320.5C 272.878,333.36 247.211,333.694 221.5,321.5C 221.027,320.094 220.027,319.427 218.5,319.5C 214.317,317.913 210.65,315.579 207.5,312.5C 206.415,310.413 204.749,309.08 202.5,308.5C 191.653,299.481 184.32,288.147 180.5,274.5C 180.33,273.178 180.663,272.011 181.5,271C 180.309,270.302 179.309,269.469 178.5,268.5C 176.321,258.012 175.987,247.346 177.5,236.5C 178.924,234.485 179.59,232.152 179.5,229.5C 180.675,229.719 181.675,229.386 182.5,228.5C 181.833,228.167 181.167,227.833 180.5,227.5C 181.309,225.929 181.643,224.262 181.5,222.5C 182.264,219.982 183.264,217.649 184.5,215.5C 185.906,215.027 186.573,214.027 186.5,212.5C 188.677,206.993 192.01,202.326 196.5,198.5C 198.833,196.833 200.833,194.833 202.5,192.5C 202.5,191.833 202.833,191.5 203.5,191.5C 206.089,190.581 208.089,188.914 209.5,186.5C 211.027,186.573 212.027,185.906 212.5,184.5C 214.027,184.573 215.027,183.906 215.5,182.5C 217.181,180.992 219.181,179.992 221.5,179.5C 223.967,179.245 225.967,178.245 227.5,176.5C 241.038,170.899 255.038,169.233 269.5,171.5 Z"/></g>
<g><path style="opacity:1" fill="#706e6f" d="M 269.5,171.5 C 273.458,171.251 277.124,171.918 280.5,173.5C 278.856,173.286 277.356,173.62 276,174.5C 274.009,173.008 271.842,172.008 269.5,171.5 Z"/></g>
<g><path style="opacity:0.769" fill="#878484" d="M 227.5,176.5 C 225.967,178.245 223.967,179.245 221.5,179.5C 223.033,177.755 225.033,176.755 227.5,176.5 Z"/></g>
<g><path style="opacity:1" fill="#4a4849" d="M 135.5,175.5 C 134.272,177.01 134.272,178.51 135.5,180C 134.258,180.311 133.258,179.811 132.5,178.5C 130.754,180.854 128.421,181.854 125.5,181.5C 125.5,182.5 125.5,183.5 125.5,184.5C 123.833,184.5 122.167,184.5 120.5,184.5C 125.027,180.735 130.027,177.735 135.5,175.5 Z"/></g>
<g><path style="opacity:0.998" fill="#504d4e" d="M 335.5,186.5 C 328.091,183.48 320.757,180.48 313.5,177.5C 315.144,177.286 316.644,177.62 318,178.5C 318.308,177.692 318.808,177.025 319.5,176.5C 321.169,177.671 322.669,179.004 324,180.5C 326.177,181.523 328.344,181.69 330.5,181C 331.701,181.903 332.535,183.069 333,184.5C 333.333,183.5 333.667,182.5 334,181.5C 334.352,183.247 334.852,184.914 335.5,186.5 Z"/></g>
<g><path style="opacity:0.729" fill="#959495" d="M 215.5,182.5 C 215.027,183.906 214.027,184.573 212.5,184.5C 212.973,183.094 213.973,182.427 215.5,182.5 Z"/></g>
<g><path style="opacity:0.263" fill="#c2c1c2" d="M 301.5,182.5 C 303.423,182.795 305.09,183.628 306.5,185C 303.942,185.275 301.608,184.775 299.5,183.5C 300.492,183.672 301.158,183.338 301.5,182.5 Z"/></g>
<g><path style="opacity:0.745" fill="#8f8e8f" d="M 212.5,184.5 C 212.027,185.906 211.027,186.573 209.5,186.5C 209.973,185.094 210.973,184.427 212.5,184.5 Z"/></g>
<g><path style="opacity:0.988" fill="#6e6c6e" d="M 338.5,187.5 C 341.105,187.621 343.105,188.621 344.5,190.5C 341.911,190.539 339.911,189.539 338.5,187.5 Z"/></g>
<g><path style="opacity:0.973" fill="#6d6b6c" d="M 209.5,186.5 C 208.089,188.914 206.089,190.581 203.5,191.5C 204.911,189.086 206.911,187.419 209.5,186.5 Z"/></g>
<g><path style="opacity:1" fill="#464344" d="M 356.5,197.5 C 352.164,195.668 348.164,193.335 344.5,190.5C 345.695,190.678 346.862,191.011 348,191.5C 348.945,191.095 349.612,190.428 350,189.5C 350.496,193.705 352.163,194.371 355,191.5C 355.483,192.448 355.649,193.448 355.5,194.5C 359.449,194.693 359.449,195.193 355.5,196C 356.056,196.383 356.389,196.883 356.5,197.5 Z"/></g>
<g><path style="opacity:1" fill="#585657" d="M 270.5,192.5 C 268.5,194.833 266.5,197.167 264.5,199.5C 264.579,198.07 264.246,196.736 263.5,195.5C 264.376,194.749 265.376,194.249 266.5,194C 266.043,193.586 265.709,193.086 265.5,192.5C 267.003,191.948 268.669,191.948 270.5,192.5 Z"/></g>
<g><path style="opacity:0.631" fill="#9f9e9f" d="M 202.5,192.5 C 200.833,194.833 198.833,196.833 196.5,198.5C 197.5,195.5 199.5,193.5 202.5,192.5 Z"/></g>
<g><path style="opacity:0.004" fill="#c8c8c8" d="M 401.5,196.5 C 402.833,196.5 403.5,197.167 403.5,198.5C 402.5,198.167 401.833,197.5 401.5,196.5 Z"/></g>
<g><path style="opacity:1" fill="#615e5f" d="M 154.5,196.5 C 151.856,198.723 148.856,200.389 145.5,201.5C 146.189,200.293 146.355,198.959 146,197.5C 147.388,198.554 148.888,198.72 150.5,198C 150.167,197.667 149.833,197.333 149.5,197C 151.134,196.506 152.801,196.34 154.5,196.5 Z"/></g>
<g><path style="opacity:0.502" fill="#908f90" d="M 356.5,197.5 C 358.027,197.427 359.027,198.094 359.5,199.5C 357.973,199.573 356.973,198.906 356.5,197.5 Z"/></g>
<g><path style="opacity:0.718" fill="#9d9b9c" d="M 359.5,199.5 C 361.027,199.427 362.027,200.094 362.5,201.5C 360.973,201.573 359.973,200.906 359.5,199.5 Z"/></g>
<g><path style="opacity:0.963" fill="#848283" d="M 145.5,201.5 C 144.101,202.89 142.434,203.89 140.5,204.5C 141.344,202.241 143.011,201.241 145.5,201.5 Z"/></g>
<g><path style="opacity:0.396" fill="#aca9a9" d="M 362.5,201.5 C 364.027,201.427 365.027,202.094 365.5,203.5C 363.973,203.573 362.973,202.906 362.5,201.5 Z"/></g>
<g><path style="opacity:0.506" fill="#9c9a9a" d="M 365.5,203.5 C 367.027,203.427 368.027,204.094 368.5,205.5C 366.973,205.573 365.973,204.906 365.5,203.5 Z"/></g>
<g><path style="opacity:0.792" fill="#939393" d="M 327.5,206.5 C 326.662,206.842 326.328,207.508 326.5,208.5C 325.095,206.36 324.262,204.026 324,201.5C 325.802,202.789 326.969,204.456 327.5,206.5 Z"/></g>
<g><path style="opacity:0.8" fill="#949091" d="M 368.5,205.5 C 370.404,205.738 371.738,206.738 372.5,208.5C 370.596,208.262 369.262,207.262 368.5,205.5 Z"/></g>
<g><path style="opacity:0.961" fill="#6b6868" d="M 92.5,203.5 C 91.4154,205.587 89.7488,206.92 87.5,207.5C 88.5846,205.413 90.2512,204.08 92.5,203.5 Z"/></g>
<g><path style="opacity:0.467" fill="#a2a2a2" d="M 327.5,206.5 C 328.906,206.973 329.573,207.973 329.5,209.5C 328.094,209.027 327.427,208.027 327.5,206.5 Z"/></g>
<g><path style="opacity:0.796" fill="#8f8e8e" d="M 372.5,208.5 C 374.027,208.427 375.027,209.094 375.5,210.5C 373.973,210.573 372.973,209.906 372.5,208.5 Z"/></g>
<g><path style="opacity:0.969" fill="#525051" d="M 133.5,208.5 C 129.465,211.857 125.132,214.857 120.5,217.5C 119.829,216.153 119.829,214.986 120.5,214C 122.49,212.249 124.823,211.249 127.5,211C 126.167,210.333 124.833,209.667 123.5,209C 126.652,208.997 129.985,208.83 133.5,208.5 Z"/></g>
<g><path style="opacity:0.997" fill="#515051" d="M 327.5,206.5 C 327.427,208.027 328.094,209.027 329.5,209.5C 331.199,211.566 332.532,213.9 333.5,216.5C 332.399,215.2 331.066,214.7 329.5,215C 329.833,215.333 330.167,215.667 330.5,216C 329.047,217.649 328.047,219.482 327.5,221.5C 327.414,217.143 327.08,212.81 326.5,208.5C 326.328,207.508 326.662,206.842 327.5,206.5 Z"/></g>
<g><path style="opacity:0.957" fill="#696868" d="M 83.5,210.5 C 82.0892,212.914 80.0892,214.581 77.5,215.5C 78.9108,213.086 80.9108,211.419 83.5,210.5 Z"/></g>
<g><path style="opacity:0.392" fill="#aaa9aa" d="M 186.5,212.5 C 186.573,214.027 185.906,215.027 184.5,215.5C 184.427,213.973 185.094,212.973 186.5,212.5 Z"/></g>
<g><path style="opacity:0.655" fill="#8e8d8d" d="M 77.5,215.5 C 76.7377,217.262 75.4044,218.262 73.5,218.5C 74.2623,216.738 75.5956,215.738 77.5,215.5 Z"/></g>
<g><path style="opacity:0.773" fill="#a1a1a1" d="M 432.5,225.5 C 434.587,226.585 435.92,228.251 436.5,230.5C 434.413,229.415 433.08,227.749 432.5,225.5 Z"/></g>
<g><path style="opacity:1" fill="#6a6869" d="M 107.5,226.5 C 105.909,228.633 103.909,230.299 101.5,231.5C 101.586,230.504 101.252,229.671 100.5,229C 101.938,228.781 103.271,228.281 104.5,227.5C 104.291,226.914 103.957,226.414 103.5,226C 104.928,225.421 106.262,225.588 107.5,226.5 Z"/></g>
<g><path style="opacity:1" fill="#636061" d="M 181.5,222.5 C 181.643,224.262 181.309,225.929 180.5,227.5C 181.167,227.833 181.833,228.167 182.5,228.5C 181.675,229.386 180.675,229.719 179.5,229.5C 179.59,232.152 178.924,234.485 177.5,236.5C 177.92,231.471 179.254,226.805 181.5,222.5 Z"/></g>
<g><path style="opacity:0.987" fill="#5a5758" d="M 336.5,223.5 C 338.074,226.907 339.074,230.573 339.5,234.5C 337.12,231.325 336.12,227.658 336.5,223.5 Z"/></g>
<g><path style="opacity:0.98" fill="#565455" d="M 327.5,222.5 C 328.216,227.341 326.883,231.341 323.5,234.5C 324.664,230.341 325.997,226.341 327.5,222.5 Z"/></g>
<g><path style="opacity:0.994" fill="#535051" d="M 259.5,225.5 C 261.346,228.54 262.679,231.873 263.5,235.5C 262.182,234.243 260.849,232.909 259.5,231.5C 259.92,229.674 259.92,227.674 259.5,225.5 Z"/></g>
<g><path style="opacity:0.482" fill="#959595" d="M 263.5,235.5 C 264.906,235.973 265.573,236.973 265.5,238.5C 264.094,238.027 263.427,237.027 263.5,235.5 Z"/></g>
<g><path style="opacity:0.991" fill="#535051" d="M 101.5,231.5 C 97.2366,234.981 92.9032,238.481 88.5,242C 86.2101,243.777 84.5434,245.944 83.5,248.5C 82.4017,247.399 82.235,246.066 83,244.5C 85.706,242.129 88.0394,239.463 90,236.5C 90.414,236.957 90.914,237.291 91.5,237.5C 92.5904,236.273 93.9238,235.44 95.5,235C 94.1373,232.871 94.4706,232.371 96.5,233.5C 97.8415,231.995 99.5082,231.328 101.5,231.5 Z"/></g>
<g><path style="opacity:0.678" fill="#b0aeae" d="M 267.5,240.5 C 268.833,241.167 269.833,242.167 270.5,243.5C 268.5,243.5 267.5,242.5 267.5,240.5 Z"/></g>
<g><path style="opacity:0.812" fill="#939193" d="M 446.5,241.5 C 448.262,242.262 449.262,243.596 449.5,245.5C 447.738,244.738 446.738,243.404 446.5,241.5 Z"/></g>
<g><path style="opacity:1" fill="#595859" d="M 49.5,241.5 C 49.5,242.833 49.5,244.167 49.5,245.5C 48.448,245.351 47.448,245.517 46.5,246C 47.1712,246.986 47.1712,248.153 46.5,249.5C 44.7274,248.686 44.2274,247.352 45,245.5C 46.3712,243.959 47.8712,242.625 49.5,241.5 Z"/></g>
<g><path style="opacity:0.694" fill="#949192" d="M 314.5,245.5 C 314.027,246.906 313.027,247.573 311.5,247.5C 311.973,246.094 312.973,245.427 314.5,245.5 Z"/></g>
<g><path style="opacity:0.682" fill="#aaa8a9" d="M 451.5,247.5 C 453.262,248.262 454.262,249.596 454.5,251.5C 452.738,250.738 451.738,249.404 451.5,247.5 Z"/></g>
<g><path style="opacity:0.004" fill="#cccacb" d="M 90.5,255.5 C 92.0269,255.427 93.0269,256.094 93.5,257.5C 91.9731,257.573 90.9731,256.906 90.5,255.5 Z"/></g>
<g><path style="opacity:0.667" fill="#adacad" d="M 54.5,258.5 C 56.5,258.5 57.5,259.5 57.5,261.5C 56.1667,260.833 55.1667,259.833 54.5,258.5 Z"/></g>
<g><path style="opacity:0.722" fill="#a9a7a8" d="M 57.5,261.5 C 59.5,261.5 60.5,262.5 60.5,264.5C 59.1667,263.833 58.1667,262.833 57.5,261.5 Z"/></g>
<g><path style="opacity:0.753" fill="#a5a3a4" d="M 60.5,264.5 C 62.5,264.5 63.5,265.5 63.5,267.5C 62.1667,266.833 61.1667,265.833 60.5,264.5 Z"/></g>
<g><path style="opacity:0.733" fill="#a7a4a5" d="M 63.5,267.5 C 65.5,267.5 66.5,268.5 66.5,270.5C 65.1667,269.833 64.1667,268.833 63.5,267.5 Z"/></g>
<g><path style="opacity:0.682" fill="#a7a6a6" d="M 66.5,270.5 C 68.7488,271.08 70.4154,272.413 71.5,274.5C 69.2512,273.92 67.5846,272.587 66.5,270.5 Z"/></g>
<g><path style="opacity:0.978" fill="#6c6a6b" d="M 178.5,268.5 C 179.309,269.469 180.309,270.302 181.5,271C 180.663,272.011 180.33,273.178 180.5,274.5C 179.262,272.786 178.595,270.786 178.5,268.5 Z"/></g>
<g><path style="opacity:0.863" fill="#757273" d="M 407.5,267.5 C 405.431,270.573 402.764,272.906 399.5,274.5C 401.569,271.427 404.236,269.094 407.5,267.5 Z"/></g>
<g><path style="opacity:0.975" fill="#575354" d="M 447.5,265.5 C 444.23,270.44 440.23,274.773 435.5,278.5C 435.491,276.692 435.991,275.025 437,273.5C 438.666,274.34 438.833,273.84 437.5,272C 439.5,271 441.5,270 443.5,269C 443.167,268.667 442.833,268.333 442.5,268C 443.77,267.1 444.77,265.934 445.5,264.5C 446.183,264.863 446.85,265.196 447.5,265.5 Z"/></g>
<g><path style="opacity:1" fill="#474344" d="M 109.5,271.5 C 113.39,274.271 117.057,277.271 120.5,280.5C 119.027,281.071 117.36,281.071 115.5,280.5C 115.5,279.5 115.5,278.5 115.5,277.5C 113.459,277.146 111.626,277.146 110,277.5C 110.347,275.39 110.18,273.39 109.5,271.5 Z"/></g>
<g><path style="opacity:0.855" fill="#9f9c9d" d="M 78.5,281.5 C 81.0892,282.419 83.0892,284.086 84.5,286.5C 81.9108,285.581 79.9108,283.914 78.5,281.5 Z"/></g>
<g><path style="opacity:0.902" fill="#8b8a8a" d="M 85.5,287.5 C 87.7488,288.08 89.4154,289.413 90.5,291.5C 88.2512,290.92 86.5846,289.587 85.5,287.5 Z"/></g>
<g><path style="opacity:0.827" fill="#8f8d8d" d="M 92.5,293.5 C 94.4044,293.738 95.7377,294.738 96.5,296.5C 94.5956,296.262 93.2623,295.262 92.5,293.5 Z"/></g>
<g><path style="opacity:0.998" fill="#4c494a" d="M 334.5,282.5 C 330.98,290.882 325.98,298.215 319.5,304.5C 319.34,302.801 319.506,301.134 320,299.5C 320.333,300.167 320.667,300.833 321,301.5C 321.758,299.231 321.591,297.064 320.5,295C 321.744,294.544 322.577,295.044 323,296.5C 325.507,292.668 328.34,289.168 331.5,286C 331.043,285.586 330.709,285.086 330.5,284.5C 331.766,283.638 333.099,282.971 334.5,282.5 Z"/></g>
<g><path style="opacity:0.792" fill="#969696" d="M 97.5,297.5 C 99.4044,297.738 100.738,298.738 101.5,300.5C 99.5956,300.262 98.2623,299.262 97.5,297.5 Z"/></g>
<g><path style="opacity:0.991" fill="#585758" d="M 414.5,297.5 C 412.393,299.727 410.06,301.727 407.5,303.5C 407.498,301.169 408.331,299.169 410,297.5C 411.716,298.552 412.716,297.886 413,295.5C 413.278,296.416 413.778,297.082 414.5,297.5 Z"/></g>
<g><path style="opacity:1" fill="#5e5c5d" d="M 149.5,300.5 C 152.331,301.079 154.664,302.412 156.5,304.5C 154.409,304.682 152.409,304.348 150.5,303.5C 149.614,302.675 149.281,301.675 149.5,300.5 Z"/></g>
<g><path style="opacity:1" fill="#585758" d="M 407.5,303.5 C 405.14,305.853 402.473,307.853 399.5,309.5C 399.5,307.833 399.5,306.167 399.5,304.5C 402.127,303.908 404.794,303.575 407.5,303.5 Z"/></g>
<g><path style="opacity:0.365" fill="#b9b9b9" d="M 107.5,305.5 C 109.027,305.427 110.027,306.094 110.5,307.5C 108.973,307.573 107.973,306.906 107.5,305.5 Z"/></g>
<g><path style="opacity:0.694" fill="#9d9b9c" d="M 110.5,307.5 C 112.027,307.427 113.027,308.094 113.5,309.5C 111.973,309.573 110.973,308.906 110.5,307.5 Z"/></g>
<g><path style="opacity:0.906" fill="#8f8c8d" d="M 202.5,308.5 C 204.749,309.08 206.415,310.413 207.5,312.5C 205.251,311.92 203.585,310.587 202.5,308.5 Z"/></g>
<g><path style="opacity:0.788" fill="#8c8a8b" d="M 113.5,309.5 C 115.027,309.427 116.027,310.094 116.5,311.5C 114.973,311.573 113.973,310.906 113.5,309.5 Z"/></g>
<g><path style="opacity:0.867" fill="#878485" d="M 399.5,309.5 C 398.101,310.89 396.434,311.89 394.5,312.5C 395.344,310.241 397.011,309.241 399.5,309.5 Z"/></g>
<g><path style="opacity:0.808" fill="#939292" d="M 345.5,309.5 C 345.027,310.906 344.027,311.573 342.5,311.5C 342.973,310.094 343.973,309.427 345.5,309.5 Z"/></g>
<g><path style="opacity:0.994" fill="#4e4c4d" d="M 340.5,312.5 C 339.745,315.803 337.911,317.137 335,316.5C 332.453,318.177 329.62,318.844 326.5,318.5C 330.856,315.932 335.522,313.932 340.5,312.5 Z"/></g>
<g><path style="opacity:1" fill="#504d4e" d="M 314.5,309.5 C 309.74,313.915 304.406,317.581 298.5,320.5C 298.586,319.504 298.252,318.671 297.5,318C 299.059,317.02 300.726,316.187 302.5,315.5C 301.975,314.808 301.308,314.308 300.5,314C 302.135,313.46 303.468,313.96 304.5,315.5C 305.695,313.939 307.362,312.106 309.5,310C 311.134,309.506 312.801,309.34 314.5,309.5 Z"/></g>
<g><path style="opacity:0.416" fill="#a2a1a1" d="M 218.5,319.5 C 220.027,319.427 221.027,320.094 221.5,321.5C 219.973,321.573 218.973,320.906 218.5,319.5 Z"/></g>
<g><path style="opacity:0.894" fill="#636162" d="M 322.5,319.5 C 319.043,321.393 315.543,323.393 312,325.5C 310.989,324.663 309.822,324.33 308.5,324.5C 312.94,322.462 317.607,320.796 322.5,319.5 Z"/></g>
<g><path style="opacity:0.863" fill="#7d797b" d="M 308.5,324.5 C 306.095,325.768 303.428,326.435 300.5,326.5C 302.838,324.96 305.505,324.294 308.5,324.5 Z"/></g>
<g><path style="opacity:0.988" fill="#706d6f" d="M 221.5,328.5 C 225.387,328.646 229.054,329.313 232.5,330.5C 229.15,330.665 225.817,330.498 222.5,330C 221.944,329.617 221.611,329.117 221.5,328.5 Z"/></g>
<g><path style="opacity:0.439" fill="#9f9e9e" d="M 149.5,331.5 C 151.027,331.427 152.027,332.094 152.5,333.5C 150.973,333.573 149.973,332.906 149.5,331.5 Z"/></g>
<g><path style="opacity:0.99" fill="#6d6c6d" d="M 300.5,354.5 C 297.689,355.475 294.689,356.142 291.5,356.5C 293.988,354.612 296.988,353.945 300.5,354.5 Z"/></g>
</svg>
