<?xml version="1.0" encoding="UTF-8"?>
<!DOCTYPE svg PUBLIC "-//W3C//DTD SVG 1.1//EN" "http://www.w3.org/Graphics/SVG/1.1/DTD/svg11.dtd">
<svg xmlns="http://www.w3.org/2000/svg" version="1.1" width="474px" height="481px" style="shape-rendering:geometricPrecision; text-rendering:geometricPrecision; image-rendering:optimizeQuality; fill-rule:evenodd; clip-rule:evenodd" xmlns:xlink="http://www.w3.org/1999/xlink">
<g><path style="opacity:0.133" fill="#c9c9c9" d="M 330.5,-0.5 C 331.167,-0.5 331.833,-0.5 332.5,-0.5C 332.5,0.166667 332.5,0.833333 332.5,1.5C 329.594,2.78664 326.594,3.78664 323.5,4.5C 326.009,3.07874 328.343,1.41207 330.5,-0.5 Z"/></g>
<g><path style="opacity:0.994" fill="#060606" d="M 332.5,1.5 C 331.929,2.97331 331.929,4.63998 332.5,6.5C 330.75,10.3346 328.75,14.0012 326.5,17.5C 324.793,18.8035 323.126,19.9702 321.5,21C 321.35,22.5171 321.35,24.3504 321.5,26.5C 318.372,34.0901 314.705,41.4235 310.5,48.5C 310.667,48.8333 310.833,49.1667 311,49.5C 314.365,45.3068 317.865,41.3068 321.5,37.5C 323.587,36.4154 324.92,34.7488 325.5,32.5C 327.587,31.4154 328.92,29.7488 329.5,27.5C 330.5,25.8333 331.833,24.5 333.5,23.5C 334.5,23.1667 335.167,22.5 335.5,21.5C 335.833,20.5 336.5,19.8333 337.5,19.5C 340.089,18.5806 342.089,16.914 343.5,14.5C 345.027,14.573 346.027,13.9063 346.5,12.5C 347.514,11.3263 348.847,10.6596 350.5,10.5C 353.855,10.3104 356.855,9.31036 359.5,7.5C 362.152,7.59047 364.485,6.92381 366.5,5.5C 384.958,1.86203 402.958,3.19536 420.5,9.5C 421.99,11.2798 423.99,11.9465 426.5,11.5C 432.125,13.316 437.459,15.6493 442.5,18.5C 441.131,21.1312 441.798,21.7978 444.5,20.5C 445.48,21.9814 446.647,23.3147 448,24.5C 448.414,24.0426 448.914,23.7093 449.5,23.5C 450.524,24.8532 451.857,25.5198 453.5,25.5C 453.833,25.5 454.167,25.5 454.5,25.5C 454.525,28.179 455.858,29.5123 458.5,29.5C 459.5,29.8333 460.167,30.5 460.5,31.5C 461.08,33.7488 462.413,35.4154 464.5,36.5C 465.745,39.0087 466.745,41.6754 467.5,44.5C 468.183,44.8627 468.85,45.1961 469.5,45.5C 469.259,47.8984 469.926,49.8984 471.5,51.5C 471.402,53.5529 472.069,55.2196 473.5,56.5C 473.5,66.5 473.5,76.5 473.5,86.5C 471.952,86.8212 471.285,87.8212 471.5,89.5C 471.5,89.8333 471.5,90.1667 471.5,90.5C 469.631,92.6353 468.964,95.3019 469.5,98.5C 467.812,105.54 464.812,111.873 460.5,117.5C 459.094,117.973 458.427,118.973 458.5,120.5C 456.413,121.585 455.08,123.251 454.5,125.5C 454.5,126.167 454.167,126.5 453.5,126.5C 451.086,127.911 449.419,129.911 448.5,132.5C 447.833,133.833 446.833,134.833 445.5,135.5C 443.5,136.833 441.833,138.5 440.5,140.5C 440.5,141.167 440.167,141.5 439.5,141.5C 438.5,141.833 437.833,142.5 437.5,143.5C 437.5,144.167 437.167,144.5 436.5,144.5C 435.5,144.833 434.833,145.5 434.5,146.5C 425.933,155.726 415.933,163.059 404.5,168.5C 402.326,168.75 400.659,169.75 399.5,171.5C 395.309,174.458 390.642,176.458 385.5,177.5C 384.07,177.579 382.736,177.246 381.5,176.5C 380.614,177.325 380.281,178.325 380.5,179.5C 377.612,178.99 375.279,179.656 373.5,181.5C 371.847,181.66 370.514,182.326 369.5,183.5C 369.167,183.5 368.833,183.5 368.5,183.5C 365.848,183.41 363.515,184.076 361.5,185.5C 359.621,186.341 357.621,186.675 355.5,186.5C 349.495,186.289 343.828,187.289 338.5,189.5C 333.93,190.441 329.263,190.774 324.5,190.5C 300.824,190.167 277.157,190.5 253.5,191.5C 253.624,192.107 253.957,192.44 254.5,192.5C 267.854,196.922 281.521,199.922 295.5,201.5C 303.5,202.833 311.5,202.833 319.5,201.5C 332.472,200.437 345.472,199.437 358.5,198.5C 363.75,198.698 368.75,198.031 373.5,196.5C 376.909,195.097 380.575,194.43 384.5,194.5C 388.924,194.348 393.257,193.681 397.5,192.5C 399.031,193.925 398.698,194.591 396.5,194.5C 395.5,194.833 394.833,195.5 394.5,196.5C 392.192,198.471 389.858,200.471 387.5,202.5C 385.596,202.738 384.262,203.738 383.5,205.5C 382.055,207.063 380.389,208.396 378.5,209.5C 376.973,209.427 375.973,210.094 375.5,211.5C 373.858,212.803 372.191,214.136 370.5,215.5C 368.973,215.427 367.973,216.094 367.5,217.5C 362.992,220.253 358.659,223.253 354.5,226.5C 352.973,226.427 351.973,227.094 351.5,228.5C 350.833,228.5 350.5,228.833 350.5,229.5C 348.973,229.427 347.973,230.094 347.5,231.5C 345.956,231.703 344.622,232.37 343.5,233.5C 342.914,233.291 342.414,232.957 342,232.5C 341.59,233.901 341.09,235.234 340.5,236.5C 340.027,237.906 339.027,238.573 337.5,238.5C 336.5,238.833 335.833,239.5 335.5,240.5C 333.973,240.427 332.973,241.094 332.5,242.5C 332.5,243.167 332.167,243.5 331.5,243.5C 329.596,243.738 328.262,244.738 327.5,246.5C 325.853,248.326 323.853,249.66 321.5,250.5C 320.5,250.833 319.833,251.5 319.5,252.5C 318.147,254.183 316.48,255.516 314.5,256.5C 312.973,256.427 311.973,257.094 311.5,258.5C 307.852,261.66 303.852,264.327 299.5,266.5C 295.719,266.296 293.386,267.963 292.5,271.5C 289.45,273.692 286.117,275.358 282.5,276.5C 279.687,276.025 277.687,277.025 276.5,279.5C 274.574,281.293 272.241,282.293 269.5,282.5C 268.07,282.579 266.736,282.246 265.5,281.5C 263.773,283.567 261.773,285.233 259.5,286.5C 252.833,289.5 246.167,292.5 239.5,295.5C 240.149,296.606 240.483,297.606 240.5,298.5C 242.747,297.626 245.08,297.292 247.5,297.5C 249.415,297.216 251.081,297.549 252.5,298.5C 261.222,300.812 270.222,302.145 279.5,302.5C 280.776,303.386 280.776,304.386 279.5,305.5C 269.414,312.211 258.747,317.877 247.5,322.5C 245.447,322.402 243.78,323.069 242.5,324.5C 200.791,343.976 156.791,352.976 110.5,351.5C 109.285,352.779 109.618,353.779 111.5,354.5C 114.455,356.122 117.122,358.122 119.5,360.5C 119.971,361.901 120.638,363.234 121.5,364.5C 122.086,364.291 122.586,363.957 123,363.5C 124.049,365.107 125.549,365.773 127.5,365.5C 129.153,365.66 130.486,366.326 131.5,367.5C 133.426,369.293 135.759,370.293 138.5,370.5C 140.403,370.796 142.07,371.463 143.5,372.5C 145.426,374.293 147.759,375.293 150.5,375.5C 151.791,375.263 152.791,375.596 153.5,376.5C 154.78,377.931 156.447,378.598 158.5,378.5C 159.167,378.833 159.833,379.167 160.5,379.5C 140.663,380.167 120.663,380.833 100.5,381.5C 100.855,382.522 101.522,383.189 102.5,383.5C 104.03,384.211 105.363,385.211 106.5,386.5C 107.585,388.587 109.251,389.92 111.5,390.5C 111.631,391.376 111.298,392.043 110.5,392.5C 109.583,391.873 108.583,391.539 107.5,391.5C 103.433,390.367 99.4331,389.033 95.5,387.5C 93.8984,385.926 91.8984,385.259 89.5,385.5C 85.3269,385.123 81.3269,384.123 77.5,382.5C 75.703,381.607 74.3696,380.274 73.5,378.5C 76.0674,371.036 79.4008,364.036 83.5,357.5C 85.4077,356.514 86.4077,354.848 86.5,352.5C 86.5,352.167 86.5,351.833 86.5,351.5C 87.9063,351.027 88.573,350.027 88.5,348.5C 88.6596,346.847 89.3263,345.514 90.5,344.5C 91.9063,344.027 92.573,343.027 92.5,341.5C 93.4706,339.517 94.4706,337.517 95.5,335.5C 96.9063,335.027 97.573,334.027 97.5,332.5C 97.3284,331.508 97.6618,330.842 98.5,330.5C 99.9063,330.027 100.573,329.027 100.5,327.5C 101.906,327.027 102.573,326.027 102.5,324.5C 103.906,324.027 104.573,323.027 104.5,321.5C 104.328,320.508 104.662,319.842 105.5,319.5C 106.906,319.027 107.573,318.027 107.5,316.5C 108.906,316.027 109.573,315.027 109.5,313.5C 110.906,313.027 111.573,312.027 111.5,310.5C 118.109,299.602 125.442,289.269 133.5,279.5C 135.262,278.738 136.262,277.404 136.5,275.5C 160.639,244.352 186.973,215.018 215.5,187.5C 217.404,187.262 218.738,186.262 219.5,184.5C 220.833,182.5 222.5,180.833 224.5,179.5C 227.764,177.906 230.431,175.573 232.5,172.5C 233.167,171.167 234.167,170.167 235.5,169.5C 237.749,168.92 239.415,167.587 240.5,165.5C 246.911,159.125 253.911,153.458 261.5,148.5C 263.404,148.262 264.738,147.262 265.5,145.5C 267.404,145.262 268.738,144.262 269.5,142.5C 271.531,140.478 273.865,138.811 276.5,137.5C 278.027,137.573 279.027,136.906 279.5,135.5C 283.148,132.34 287.148,129.673 291.5,127.5C 293.094,127.08 294.594,126.414 296,125.5C 298.641,126.713 299.808,125.713 299.5,122.5C 299.5,121.833 299.833,121.5 300.5,121.5C 302.027,121.573 303.027,120.906 303.5,119.5C 304.605,118.4 305.938,117.733 307.5,117.5C 309.027,117.573 310.027,116.906 310.5,115.5C 310.833,115.5 311.167,115.5 311.5,115.5C 314.225,115.063 316.225,113.73 317.5,111.5C 318.514,110.326 319.847,109.66 321.5,109.5C 323.027,109.573 324.027,108.906 324.5,107.5C 325.514,106.326 326.847,105.66 328.5,105.5C 330.357,106.098 332.023,106.098 333.5,105.5C 334.984,104.533 335.984,103.2 336.5,101.5C 343.067,97.3846 350.067,94.0512 357.5,91.5C 359.674,91.0798 361.674,91.0798 363.5,91.5C 364.799,90.91 365.632,89.91 366,88.5C 367.107,89.7119 367.607,89.3786 367.5,87.5C 372.265,85.129 377.265,83.129 382.5,81.5C 384.262,81.6427 385.929,81.3094 387.5,80.5C 387.833,81.1667 388.167,81.8333 388.5,82.5C 391.419,79.4388 394.752,77.1054 398.5,75.5C 398.833,75.5 399.167,75.5 399.5,75.5C 405.915,74.4729 411.915,72.4729 417.5,69.5C 417.833,69.5 418.167,69.5 418.5,69.5C 422.162,69.2766 425.495,68.2766 428.5,66.5C 432.534,66.4835 436.201,65.4835 439.5,63.5C 442.428,63.4349 445.095,62.7682 447.5,61.5C 448.568,60.5655 449.901,60.2322 451.5,60.5C 452.978,60.762 454.311,60.4287 455.5,59.5C 452.691,58.1997 450.024,58.1997 447.5,59.5C 437.5,60.1667 427.5,60.8333 417.5,61.5C 413.878,61.322 410.544,61.9886 407.5,63.5C 388.117,68.4053 369.117,74.7387 350.5,82.5C 349.417,82.4606 348.417,82.1272 347.5,81.5C 344.285,83.2743 340.952,84.7743 337.5,86C 338.598,86.7697 338.598,87.603 337.5,88.5C 311.722,101.111 287.056,115.611 263.5,132C 183.158,190.83 119.491,263.996 72.5,351.5C 70.2407,352.344 69.2407,354.011 69.5,356.5C 62.8316,370.175 56.165,383.842 49.5,397.5C 48.0687,398.78 47.4021,400.447 47.5,402.5C 45.1956,409.107 42.529,415.44 39.5,421.5C 37.7329,423.792 36.7329,426.458 36.5,429.5C 35.3263,430.514 34.6596,431.847 34.5,433.5C 34.5674,434.959 34.2341,436.292 33.5,437.5C 31.3987,440.797 30.0653,444.463 29.5,448.5C 28.8333,450.833 28.1667,453.167 27.5,455.5C 26.3263,456.514 25.6596,457.847 25.5,459.5C 24.3882,461.599 23.7215,463.933 23.5,466.5C 22.7989,470.301 21.6323,473.968 20,477.5C 18.3005,478.406 16.4672,478.739 14.5,478.5C 12.5168,478.157 11.1834,478.824 10.5,480.5C 6.83333,480.5 3.16667,480.5 -0.5,480.5C -0.5,477.833 -0.5,475.167 -0.5,472.5C 2.34095,470.36 3.67428,467.36 3.5,463.5C 4.13007,459.952 5.13007,456.619 6.5,453.5C 8.21321,452.365 8.87988,450.698 8.5,448.5C 10.2132,447.365 10.8799,445.698 10.5,443.5C 10.5,443.167 10.5,442.833 10.5,442.5C 11.1174,442.389 11.6174,442.056 12,441.5C 13.4742,437.562 14.6409,433.562 15.5,429.5C 16.5969,426.314 17.9303,423.314 19.5,420.5C 21.2413,418.605 22.2413,416.272 22.5,413.5C 22.2627,412.209 22.596,411.209 23.5,410.5C 25.2132,409.365 25.8799,407.698 25.5,405.5C 29.1128,396.328 33.1128,387.328 37.5,378.5C 38.7152,377.221 38.3818,376.221 36.5,375.5C 34.9138,373.33 33.5804,370.996 32.5,368.5C 32.7148,366.821 32.0481,365.821 30.5,365.5C 24.6716,355.849 18.3382,346.516 11.5,337.5C 14.1778,335.215 17.1778,334.882 20.5,336.5C 24.8996,338.104 29.5662,338.771 34.5,338.5C 34.7373,337.209 34.404,336.209 33.5,335.5C 31.1921,328.27 29.1921,320.937 27.5,313.5C 27.8212,311.952 28.8212,311.285 30.5,311.5C 33.7391,313.19 37.0725,314.356 40.5,315C 38.2283,302.557 38.2283,290.057 40.5,277.5C 41.913,274.781 42.5797,271.781 42.5,268.5C 44.3635,260.464 47.0302,252.797 50.5,245.5C 52.4077,244.514 53.4077,242.848 53.5,240.5C 53.5,240.167 53.5,239.833 53.5,239.5C 54.9063,239.027 55.573,238.027 55.5,236.5C 55.5,236.167 55.5,235.833 55.5,235.5C 56.9063,235.027 57.573,234.027 57.5,232.5C 61.0785,227.68 64.4118,222.68 67.5,217.5C 69.5869,216.415 70.9202,214.749 71.5,212.5C 72.5,212.167 73.1667,211.5 73.5,210.5C 74.4431,207.891 76.1097,205.891 78.5,204.5C 79.7498,204.423 80.5831,203.756 81,202.5C 81.3333,202.833 81.6667,203.167 82,203.5C 82.4101,202.099 82.9101,200.766 83.5,199.5C 84.4972,199.47 85.1639,199.97 85.5,201C 84.3809,204.761 83.7143,208.594 83.5,212.5C 83.3089,216.262 82.6422,219.929 81.5,223.5C 79.9261,225.102 79.2594,227.102 79.5,229.5C 79.5,230.167 79.5,230.833 79.5,231.5C 77.8372,233.438 77.1706,235.772 77.5,238.5C 75.4586,251.123 73.7919,263.79 72.5,276.5C 71.3427,285.324 71.176,294.324 72,303.5C 72.3951,300.793 72.8951,298.127 73.5,295.5C 75.3317,276.505 78.6651,257.839 83.5,239.5C 84.4345,238.432 84.7678,237.099 84.5,235.5C 85.9238,233.485 86.5905,231.152 86.5,228.5C 86.5,228.167 86.5,227.833 86.5,227.5C 88.0739,225.898 88.7406,223.898 88.5,221.5C 99.052,189.815 114.885,161.149 136,135.5C 138.703,132.629 141.536,129.962 144.5,127.5C 147.167,125.5 149.5,123.167 151.5,120.5C 151.5,119.833 151.833,119.5 152.5,119.5C 153.833,118.833 154.833,117.833 155.5,116.5C 155.5,115.833 155.833,115.5 156.5,115.5C 159.089,114.581 161.089,112.914 162.5,110.5C 162.5,109.833 162.833,109.5 163.5,109.5C 167.572,107.792 170.905,105.126 173.5,101.5C 175.404,101.262 176.738,100.262 177.5,98.5C 179.027,98.573 180.027,97.9063 180.5,96.5C 182.017,96.4894 183.184,95.8228 184,94.5C 185.308,95.1513 186.141,94.4846 186.5,92.5C 189.55,91.7054 192.55,90.7054 195.5,89.5C 196.167,89.8333 196.833,90.1667 197.5,90.5C 197.973,88.753 198.307,87.0863 198.5,85.5C 201.515,83.3256 204.849,81.6589 208.5,80.5C 210.602,80.0409 213.269,80.0409 216.5,80.5C 216.84,83.1441 216.173,85.4775 214.5,87.5C 215.246,88.7362 215.579,90.0695 215.5,91.5C 214.069,92.7804 213.402,94.4471 213.5,96.5C 210.239,107.786 207.072,119.119 204,130.5C 201.751,138.735 200.418,147.068 200,155.5C 211.852,128.066 224.352,101.066 237.5,74.5C 238.906,74.0269 239.573,73.0269 239.5,71.5C 244.625,59.5767 251.959,49.2434 261.5,40.5C 263.027,40.573 264.027,39.9063 264.5,38.5C 265.262,36.7376 266.596,35.7376 268.5,35.5C 271.021,35.1639 273.021,33.4972 274.5,30.5C 276.027,30.573 277.027,29.9063 277.5,28.5C 278.583,28.4606 279.583,28.1272 280.5,27.5C 281.192,28.0253 281.692,28.6919 282,29.5C 283.108,27.8896 283.608,26.2229 283.5,24.5C 285.027,24.573 286.027,23.9063 286.5,22.5C 290.577,19.7728 294.91,17.4394 299.5,15.5C 305.258,14.6513 310.258,12.318 314.5,8.5C 315.583,8.53944 316.583,8.87277 317.5,9.5C 318.696,9.15431 318.696,8.65431 317.5,8C 319.066,7.3918 320.4,6.55847 321.5,5.5C 321.842,4.66175 322.508,4.32842 323.5,4.5C 326.594,3.78664 329.594,2.78664 332.5,1.5 Z"/></g>
<g><path style="opacity:0.692" fill="#464646" d="M 332.5,-0.5 C 333.5,-0.5 334.5,-0.5 335.5,-0.5C 334.912,2.06305 333.912,4.39639 332.5,6.5C 331.929,4.63998 331.929,2.97331 332.5,1.5C 332.5,0.833333 332.5,0.166667 332.5,-0.5 Z"/></g>
<g><path style="opacity:0.318" fill="#757575" d="M 366.5,5.5 C 364.485,6.92381 362.152,7.59047 359.5,7.5C 361.515,6.07619 363.848,5.40953 366.5,5.5 Z"/></g>
<g><path style="opacity:0.878" fill="#737373" d="M 321.5,5.5 C 320.4,6.55847 319.066,7.3918 317.5,8C 318.696,8.65431 318.696,9.15431 317.5,9.5C 316.583,8.87277 315.583,8.53944 314.5,8.5C 316.426,6.70732 318.759,5.70732 321.5,5.5 Z"/></g>
<g><path style="opacity:0.384" fill="#656565" d="M 359.5,7.5 C 356.855,9.31036 353.855,10.3104 350.5,10.5C 353.084,8.52751 356.084,7.52751 359.5,7.5 Z"/></g>
<g><path style="opacity:0.404" fill="#6f6f6f" d="M 420.5,9.5 C 422.786,9.59495 424.786,10.2616 426.5,11.5C 423.99,11.9465 421.99,11.2798 420.5,9.5 Z"/></g>
<g><path style="opacity:0.702" fill="#5f5f5f" d="M 314.5,8.5 C 310.258,12.318 305.258,14.6513 299.5,15.5C 304.081,12.3777 309.081,10.0444 314.5,8.5 Z"/></g>
<g><path style="opacity:0.231" fill="#a2a2a2" d="M 346.5,12.5 C 346.027,13.9063 345.027,14.573 343.5,14.5C 343.973,13.0937 344.973,12.427 346.5,12.5 Z"/></g>
<g><path style="opacity:0.408" fill="#838383" d="M 343.5,14.5 C 342.089,16.914 340.089,18.5806 337.5,19.5C 338.911,17.086 340.911,15.4194 343.5,14.5 Z"/></g>
<g><path style="opacity:0.931" fill="#3c3c3c" d="M 326.5,17.5 C 325.193,20.7799 323.527,23.7799 321.5,26.5C 321.35,24.3504 321.35,22.5171 321.5,21C 323.126,19.9702 324.793,18.8035 326.5,17.5 Z"/></g>
<g><path style="opacity:0.153" fill="#bebebe" d="M 335.5,21.5 C 335.167,22.5 334.5,23.1667 333.5,23.5C 333.5,22.1667 334.167,21.5 335.5,21.5 Z"/></g>
<g><path style="opacity:0.918" fill="#3e3e3e" d="M 442.5,18.5 C 446.976,19.6571 450.642,21.9905 453.5,25.5C 451.857,25.5198 450.524,24.8532 449.5,23.5C 448.914,23.7093 448.414,24.0426 448,24.5C 446.647,23.3147 445.48,21.9814 444.5,20.5C 441.798,21.7978 441.131,21.1312 442.5,18.5 Z"/></g>
<g><path style="opacity:0.306" fill="#808080" d="M 286.5,22.5 C 286.027,23.9063 285.027,24.573 283.5,24.5C 283.973,23.0937 284.973,22.427 286.5,22.5 Z"/></g>
<g><path style="opacity:0.98" fill="#444444" d="M 283.5,24.5 C 283.608,26.2229 283.108,27.8896 282,29.5C 281.692,28.6919 281.192,28.0253 280.5,27.5C 279.583,28.1272 278.583,28.4606 277.5,28.5C 278.802,26.1782 280.802,24.8449 283.5,24.5 Z"/></g>
<g><path style="opacity:0.773" fill="#5d5d5d" d="M 454.5,25.5 C 456.341,26.4023 457.674,27.7356 458.5,29.5C 455.858,29.5123 454.525,28.179 454.5,25.5 Z"/></g>
<g><path style="opacity:0.361" fill="#8a8a8a" d="M 277.5,28.5 C 277.027,29.9063 276.027,30.573 274.5,30.5C 274.973,29.0937 275.973,28.427 277.5,28.5 Z"/></g>
<g><path style="opacity:0.133" fill="#bdbdbd" d="M 329.5,27.5 C 328.92,29.7488 327.587,31.4154 325.5,32.5C 326.08,30.2512 327.413,28.5846 329.5,27.5 Z"/></g>
<g><path style="opacity:0.541" fill="#848484" d="M 460.5,31.5 C 462.587,32.5846 463.92,34.2512 464.5,36.5C 462.413,35.4154 461.08,33.7488 460.5,31.5 Z"/></g>
<g><path style="opacity:0.914" fill="#646464" d="M 274.5,30.5 C 273.021,33.4972 271.021,35.1639 268.5,35.5C 269.865,33.1402 271.865,31.4735 274.5,30.5 Z"/></g>
<g><path style="opacity:0.208" fill="#b0b0b0" d="M 325.5,32.5 C 324.92,34.7488 323.587,36.4154 321.5,37.5C 322.08,35.2512 323.413,33.5846 325.5,32.5 Z"/></g>
<g><path style="opacity:0.235" fill="#858585" d="M 264.5,38.5 C 264.027,39.9063 263.027,40.573 261.5,40.5C 261.973,39.0937 262.973,38.427 264.5,38.5 Z"/></g>
<g><path style="opacity:0.906" fill="#676767" d="M 464.5,36.5 C 467.09,38.8876 468.757,41.8876 469.5,45.5C 468.85,45.1961 468.183,44.8627 467.5,44.5C 466.745,41.6754 465.745,39.0087 464.5,36.5 Z"/></g>
<g><path style="opacity:0.435" fill="#9e9e9e" d="M 469.5,45.5 C 470.738,47.2143 471.405,49.2143 471.5,51.5C 469.926,49.8984 469.259,47.8984 469.5,45.5 Z"/></g>
<g><path style="opacity:0.051" fill="#8b8b8b" d="M 309.5,50.5 C 309.5,51.1667 309.833,51.5 310.5,51.5C 310.217,52.2891 309.717,52.9558 309,53.5C 308.26,52.2506 308.427,51.2506 309.5,50.5 Z"/></g>
<g><path style="opacity:0.235" fill="#797979" d="M 447.5,59.5 C 450.024,58.1997 452.691,58.1997 455.5,59.5C 454.311,60.4287 452.978,60.762 451.5,60.5C 450.432,59.5655 449.099,59.2322 447.5,59.5 Z"/></g>
<g><path style="opacity:0.047" fill="#c4c4c4" d="M 417.5,61.5 C 414.411,62.7846 411.078,63.4512 407.5,63.5C 410.544,61.9886 413.878,61.322 417.5,61.5 Z"/></g>
<g><path style="opacity:0.31" fill="#8d8d8d" d="M 447.5,61.5 C 445.095,62.7682 442.428,63.4349 439.5,63.5C 441.838,61.9605 444.505,61.2938 447.5,61.5 Z"/></g>
<g><path style="opacity:0.365" fill="#7d7d7d" d="M 439.5,63.5 C 436.201,65.4835 432.534,66.4835 428.5,66.5C 431.854,64.7424 435.521,63.7424 439.5,63.5 Z"/></g>
<g><path style="opacity:0.427" fill="#808080" d="M 428.5,66.5 C 425.495,68.2766 422.162,69.2766 418.5,69.5C 421.381,67.32 424.714,66.32 428.5,66.5 Z"/></g>
<g><path style="opacity:0.42" fill="#656565" d="M 417.5,69.5 C 411.915,72.4729 405.915,74.4729 399.5,75.5C 405.216,72.928 411.216,70.928 417.5,69.5 Z"/></g>
<g><path style="opacity:0.106" fill="#8c8c8c" d="M 239.5,71.5 C 239.573,73.0269 238.906,74.0269 237.5,74.5C 237.427,72.9731 238.094,71.9731 239.5,71.5 Z"/></g>
<g><path style="opacity:0.865" fill="#3d3d3d" d="M 215.5,91.5 C 215.579,90.0695 215.246,88.7362 214.5,87.5C 216.173,85.4775 216.84,83.1441 216.5,80.5C 213.269,80.0409 210.602,80.0409 208.5,80.5C 211.797,78.3987 215.463,77.0653 219.5,76.5C 219.358,81.9108 218.024,86.9108 215.5,91.5 Z"/></g>
<g><path style="opacity:0.951" fill="#3b3b3b" d="M 398.5,75.5 C 394.752,77.1054 391.419,79.4388 388.5,82.5C 388.167,81.8333 387.833,81.1667 387.5,80.5C 385.929,81.3094 384.262,81.6427 382.5,81.5C 387.525,78.9325 392.859,76.9325 398.5,75.5 Z"/></g>
<g><path style="opacity:0.835" fill="#333333" d="M 350.5,82.5 C 346.355,84.7365 342.022,86.7365 337.5,88.5C 338.598,87.603 338.598,86.7697 337.5,86C 340.952,84.7743 344.285,83.2743 347.5,81.5C 348.417,82.1272 349.417,82.4606 350.5,82.5 Z"/></g>
<g><path style="opacity:0.016" fill="#8f8f8f" d="M 473.5,86.5 C 473.5,86.8333 473.5,87.1667 473.5,87.5C 472.833,88.1667 472.167,88.8333 471.5,89.5C 471.285,87.8212 471.952,86.8212 473.5,86.5 Z"/></g>
<g><path style="opacity:0.933" fill="#464646" d="M 198.5,85.5 C 198.307,87.0863 197.973,88.753 197.5,90.5C 196.833,90.1667 196.167,89.8333 195.5,89.5C 192.55,90.7054 189.55,91.7054 186.5,92.5C 189.976,89.3768 193.976,87.0435 198.5,85.5 Z"/></g>
<g><path style="opacity:0.847" fill="#3c3c3c" d="M 367.5,87.5 C 367.607,89.3786 367.107,89.7119 366,88.5C 365.632,89.91 364.799,90.91 363.5,91.5C 361.674,91.0798 359.674,91.0798 357.5,91.5C 360.551,89.6477 363.884,88.3143 367.5,87.5 Z"/></g>
<g><path style="opacity:0.786" fill="#565656" d="M 471.5,90.5 C 471.435,93.4282 470.768,96.0948 469.5,98.5C 468.964,95.3019 469.631,92.6353 471.5,90.5 Z"/></g>
<g><path style="opacity:0.894" fill="#6d6d6d" d="M 186.5,92.5 C 186.141,94.4846 185.308,95.1513 184,94.5C 183.184,95.8228 182.017,96.4894 180.5,96.5C 181.802,94.1782 183.802,92.8449 186.5,92.5 Z"/></g>
<g><path style="opacity:0.106" fill="#9d9d9d" d="M 215.5,91.5 C 215.598,93.5529 214.931,95.2196 213.5,96.5C 213.402,94.4471 214.069,92.7804 215.5,91.5 Z"/></g>
<g><path style="opacity:0.345" fill="#989898" d="M 180.5,96.5 C 180.027,97.9063 179.027,98.573 177.5,98.5C 177.973,97.0937 178.973,96.427 180.5,96.5 Z"/></g>
<g><path style="opacity:0.227" fill="#b2b2b2" d="M 177.5,98.5 C 176.738,100.262 175.404,101.262 173.5,101.5C 174.262,99.7376 175.596,98.7376 177.5,98.5 Z"/></g>
<g><path style="opacity:0.855" fill="#474747" d="M 336.5,101.5 C 335.984,103.2 334.984,104.533 333.5,105.5C 332.023,106.098 330.357,106.098 328.5,105.5C 330.849,103.659 333.515,102.326 336.5,101.5 Z"/></g>
<g><path style="opacity:0.278" fill="#8b8b8b" d="M 173.5,101.5 C 170.905,105.126 167.572,107.792 163.5,109.5C 166.46,106.355 169.793,103.688 173.5,101.5 Z"/></g>
<g><path style="opacity:0.259" fill="#989898" d="M 324.5,107.5 C 324.027,108.906 323.027,109.573 321.5,109.5C 321.973,108.094 322.973,107.427 324.5,107.5 Z"/></g>
<g><path style="opacity:0.431" fill="#888888" d="M 162.5,110.5 C 161.089,112.914 159.089,114.581 156.5,115.5C 157.911,113.086 159.911,111.419 162.5,110.5 Z"/></g>
<g><path style="opacity:0.8" fill="#656565" d="M 317.5,111.5 C 316.225,113.73 314.225,115.063 311.5,115.5C 312.733,113.204 314.733,111.87 317.5,111.5 Z"/></g>
<g><path style="opacity:0.416" fill="#808080" d="M 310.5,115.5 C 310.027,116.906 309.027,117.573 307.5,117.5C 307.973,116.094 308.973,115.427 310.5,115.5 Z"/></g>
<g><path style="opacity:0.141" fill="#c1c1c1" d="M 155.5,116.5 C 154.833,117.833 153.833,118.833 152.5,119.5C 152.5,117.5 153.5,116.5 155.5,116.5 Z"/></g>
<g><path style="opacity:0.008" fill="#d9d9d9" d="M 460.5,117.5 C 460.573,119.027 459.906,120.027 458.5,120.5C 458.427,118.973 459.094,117.973 460.5,117.5 Z"/></g>
<g><path style="opacity:0.231" fill="#b7b7b7" d="M 303.5,119.5 C 303.027,120.906 302.027,121.573 300.5,121.5C 300.973,120.094 301.973,119.427 303.5,119.5 Z"/></g>
<g><path style="opacity:0.169" fill="#979797" d="M 151.5,120.5 C 149.5,123.167 147.167,125.5 144.5,127.5C 145.833,124.167 148.167,121.833 151.5,120.5 Z"/></g>
<g><path style="opacity:0.027" fill="#e2e2e2" d="M 458.5,120.5 C 457.92,122.749 456.587,124.415 454.5,125.5C 455.08,123.251 456.413,121.585 458.5,120.5 Z"/></g>
<g><path style="opacity:0.969" fill="#4d4d4d" d="M 299.5,122.5 C 299.808,125.713 298.641,126.713 296,125.5C 294.594,126.414 293.094,127.08 291.5,127.5C 293.484,124.836 296.151,123.169 299.5,122.5 Z"/></g>
<g><path style="opacity:0.008" fill="#dfdfdf" d="M 453.5,126.5 C 452.581,129.089 450.914,131.089 448.5,132.5C 449.419,129.911 451.086,127.911 453.5,126.5 Z"/></g>
<g><path style="opacity:0.341" fill="#858585" d="M 279.5,135.5 C 279.027,136.906 278.027,137.573 276.5,137.5C 276.973,136.094 277.973,135.427 279.5,135.5 Z"/></g>
<g><path style="opacity:0.004" fill="#e1e1e1" d="M 445.5,135.5 C 444.833,138.167 443.167,139.833 440.5,140.5C 441.833,138.5 443.5,136.833 445.5,135.5 Z"/></g>
<g><path style="opacity:0.051" fill="#b6b6b6" d="M 439.5,141.5 C 439.5,142.833 438.833,143.5 437.5,143.5C 437.833,142.5 438.5,141.833 439.5,141.5 Z"/></g>
<g><path style="opacity:0.212" fill="#818181" d="M 269.5,142.5 C 268.738,144.262 267.404,145.262 265.5,145.5C 266.262,143.738 267.596,142.738 269.5,142.5 Z"/></g>
<g><path style="opacity:0.008" fill="#c3c3c3" d="M 436.5,144.5 C 436.5,145.833 435.833,146.5 434.5,146.5C 434.833,145.5 435.5,144.833 436.5,144.5 Z"/></g>
<g><path style="opacity:0.165" fill="#868686" d="M 265.5,145.5 C 264.738,147.262 263.404,148.262 261.5,148.5C 262.262,146.738 263.596,145.738 265.5,145.5 Z"/></g>
<g><path style="opacity:0.208" fill="#818181" d="M 240.5,165.5 C 239.415,167.587 237.749,168.92 235.5,169.5C 236.585,167.413 238.251,166.08 240.5,165.5 Z"/></g>
<g><path style="opacity:0.102" fill="#b7b7b7" d="M 404.5,168.5 C 403.341,170.25 401.674,171.25 399.5,171.5C 400.659,169.75 402.326,168.75 404.5,168.5 Z"/></g>
<g><path style="opacity:0.373" fill="#5f5f5f" d="M 232.5,172.5 C 230.431,175.573 227.764,177.906 224.5,179.5C 226.569,176.427 229.236,174.094 232.5,172.5 Z"/></g>
<g><path style="opacity:0.943" fill="#434343" d="M 385.5,177.5 C 382.34,180 378.673,181.333 374.5,181.5C 374.167,181.5 373.833,181.5 373.5,181.5C 375.279,179.656 377.612,178.99 380.5,179.5C 380.281,178.325 380.614,177.325 381.5,176.5C 382.736,177.246 384.07,177.579 385.5,177.5 Z"/></g>
<g><path style="opacity:0.09" fill="#bcbcbc" d="M 373.5,181.5 C 373.833,181.5 374.167,181.5 374.5,181.5C 373.22,182.931 371.553,183.598 369.5,183.5C 370.514,182.326 371.847,181.66 373.5,181.5 Z"/></g>
<g><path style="opacity:0.016" fill="#d7d7d7" d="M 368.5,183.5 C 366.485,184.924 364.152,185.59 361.5,185.5C 363.515,184.076 365.848,183.41 368.5,183.5 Z"/></g>
<g><path style="opacity:0.231" fill="#777777" d="M 219.5,184.5 C 218.738,186.262 217.404,187.262 215.5,187.5C 216.262,185.738 217.596,184.738 219.5,184.5 Z"/></g>
<g><path style="opacity:0.774" fill="#5f5f5f" d="M 355.5,186.5 C 350.11,188.375 344.444,189.375 338.5,189.5C 343.828,187.289 349.495,186.289 355.5,186.5 Z"/></g>
<g><path style="opacity:0.078" fill="#8f8f8f" d="M 324.5,190.5 C 301.167,191.167 277.833,191.833 254.5,192.5C 253.957,192.44 253.624,192.107 253.5,191.5C 277.157,190.5 300.824,190.167 324.5,190.5 Z"/></g>
<g><path style="opacity:0.349" fill="#7c7c7c" d="M 397.5,192.5 C 393.257,193.681 388.924,194.348 384.5,194.5C 388.16,193.327 391.993,192.327 396,191.5C 396.765,191.57 397.265,191.903 397.5,192.5 Z"/></g>
<g><path style="opacity:0.043" fill="#d0d0d0" d="M 396.5,194.5 C 396.5,195.833 395.833,196.5 394.5,196.5C 394.833,195.5 395.5,194.833 396.5,194.5 Z"/></g>
<g><path style="opacity:0.404" fill="#848484" d="M 373.5,196.5 C 368.75,198.031 363.75,198.698 358.5,198.5C 363.269,197.111 368.269,196.444 373.5,196.5 Z"/></g>
<g><path style="opacity:0.11" fill="#919191" d="M 83.5,212.5 C 83.7143,208.594 84.3809,204.761 85.5,201C 85.1639,199.97 84.4972,199.47 83.5,199.5C 83.8212,197.952 84.8212,197.285 86.5,197.5C 86.5786,202.831 85.5786,207.831 83.5,212.5 Z"/></g>
<g><path style="opacity:0.205" fill="#787878" d="M 319.5,201.5 C 311.5,202.833 303.5,202.833 295.5,201.5C 303.192,201.444 311.192,201.444 319.5,201.5 Z"/></g>
<g><path style="opacity:0.875" fill="#757575" d="M 83.5,199.5 C 82.9101,200.766 82.4101,202.099 82,203.5C 81.6667,203.167 81.3333,202.833 81,202.5C 80.5831,203.756 79.7498,204.423 78.5,204.5C 79.5218,202.145 81.1884,200.478 83.5,199.5 Z"/></g>
<g><path style="opacity:0.043" fill="#d8d8d8" d="M 387.5,202.5 C 386.738,204.262 385.404,205.262 383.5,205.5C 384.262,203.738 385.596,202.738 387.5,202.5 Z"/></g>
<g><path style="opacity:0.031" fill="#e0e0e0" d="M 378.5,209.5 C 378.027,210.906 377.027,211.573 375.5,211.5C 375.973,210.094 376.973,209.427 378.5,209.5 Z"/></g>
<g><path style="opacity:0.137" fill="#adadad" d="M 73.5,210.5 C 73.1667,211.5 72.5,212.167 71.5,212.5C 71.5,211.167 72.1667,210.5 73.5,210.5 Z"/></g>
<g><path style="opacity:0.196" fill="#a3a3a3" d="M 71.5,212.5 C 70.9202,214.749 69.5869,216.415 67.5,217.5C 68.0798,215.251 69.4131,213.585 71.5,212.5 Z"/></g>
<g><path style="opacity:0.02" fill="#e7e7e7" d="M 370.5,215.5 C 370.027,216.906 369.027,217.573 367.5,217.5C 367.973,216.094 368.973,215.427 370.5,215.5 Z"/></g>
<g><path style="opacity:0.4" fill="#9a9a9a" d="M 88.5,221.5 C 88.7406,223.898 88.0739,225.898 86.5,227.5C 86.595,225.214 87.2616,223.214 88.5,221.5 Z"/></g>
<g><path style="opacity:0.153" fill="#cfcfcf" d="M 67.5,217.5 C 64.4118,222.68 61.0785,227.68 57.5,232.5C 59.5961,226.631 62.9295,221.631 67.5,217.5 Z"/></g>
<g><path style="opacity:0.129" fill="#b2b2b2" d="M 81.5,223.5 C 81.405,225.786 80.7384,227.786 79.5,229.5C 79.2594,227.102 79.9261,225.102 81.5,223.5 Z"/></g>
<g><path style="opacity:0.027" fill="#dedede" d="M 354.5,226.5 C 354.027,227.906 353.027,228.573 351.5,228.5C 351.973,227.094 352.973,226.427 354.5,226.5 Z"/></g>
<g><path style="opacity:0.035" fill="#eaeaea" d="M 350.5,229.5 C 350.027,230.906 349.027,231.573 347.5,231.5C 347.973,230.094 348.973,229.427 350.5,229.5 Z"/></g>
<g><path style="opacity:0.784" fill="#8d8d8d" d="M 347.5,231.5 C 345.704,233.9 343.37,235.567 340.5,236.5C 341.09,235.234 341.59,233.901 342,232.5C 342.414,232.957 342.914,233.291 343.5,233.5C 344.622,232.37 345.956,231.703 347.5,231.5 Z"/></g>
<g><path style="opacity:0.09" fill="#dfdfdf" d="M 57.5,232.5 C 57.573,234.027 56.9063,235.027 55.5,235.5C 55.427,233.973 56.0937,232.973 57.5,232.5 Z"/></g>
<g><path style="opacity:0.184" fill="#858585" d="M 79.5,231.5 C 79.2785,234.067 78.6118,236.401 77.5,238.5C 77.1706,235.772 77.8372,233.438 79.5,231.5 Z"/></g>
<g><path style="opacity:0.341" fill="#848484" d="M 86.5,228.5 C 86.5905,231.152 85.9238,233.485 84.5,235.5C 84.4095,232.848 85.0762,230.515 86.5,228.5 Z"/></g>
<g><path style="opacity:0.118" fill="#bababa" d="M 55.5,236.5 C 55.573,238.027 54.9063,239.027 53.5,239.5C 53.427,237.973 54.0937,236.973 55.5,236.5 Z"/></g>
<g><path style="opacity:0.314" fill="#a1a1a1" d="M 84.5,235.5 C 84.7678,237.099 84.4345,238.432 83.5,239.5C 83.0618,239.565 82.7284,239.399 82.5,239C 83.0848,237.698 83.7515,236.531 84.5,235.5 Z"/></g>
<g><path style="opacity:0.016" fill="#e8e8e8" d="M 337.5,238.5 C 337.5,239.833 336.833,240.5 335.5,240.5C 335.833,239.5 336.5,238.833 337.5,238.5 Z"/></g>
<g><path style="opacity:0.027" fill="#dadada" d="M 335.5,240.5 C 335.027,241.906 334.027,242.573 332.5,242.5C 332.973,241.094 333.973,240.427 335.5,240.5 Z"/></g>
<g><path style="opacity:0.694" fill="#787878" d="M 53.5,240.5 C 53.4077,242.848 52.4077,244.514 50.5,245.5C 50.7497,243.326 51.7497,241.659 53.5,240.5 Z"/></g>
<g><path style="opacity:0.055" fill="#cecece" d="M 331.5,243.5 C 330.738,245.262 329.404,246.262 327.5,246.5C 328.262,244.738 329.596,243.738 331.5,243.5 Z"/></g>
<g><path style="opacity:0.043" fill="#b8b8b8" d="M 321.5,250.5 C 321.5,251.833 320.833,252.5 319.5,252.5C 319.833,251.5 320.5,250.833 321.5,250.5 Z"/></g>
<g><path style="opacity:0.004" fill="#d4d4d4" d="M 314.5,256.5 C 314.027,257.906 313.027,258.573 311.5,258.5C 311.973,257.094 312.973,256.427 314.5,256.5 Z"/></g>
<g><path style="opacity:0.814" fill="#3d3d3d" d="M 299.5,266.5 C 297.469,268.522 295.135,270.189 292.5,271.5C 293.386,267.963 295.719,266.296 299.5,266.5 Z"/></g>
<g><path style="opacity:0.125" fill="#9f9f9f" d="M 42.5,268.5 C 42.5797,271.781 41.913,274.781 40.5,277.5C 40.4203,274.219 41.087,271.219 42.5,268.5 Z"/></g>
<g><path style="opacity:0.641" fill="#5a5a5a" d="M 282.5,276.5 C 280.819,278.008 278.819,279.008 276.5,279.5C 277.687,277.025 279.687,276.025 282.5,276.5 Z"/></g>
<g><path style="opacity:0.212" fill="#858585" d="M 136.5,275.5 C 136.262,277.404 135.262,278.738 133.5,279.5C 133.738,277.596 134.738,276.262 136.5,275.5 Z"/></g>
<g><path style="opacity:0.843" fill="#5d5d5d" d="M 269.5,282.5 C 266.47,284.403 263.137,285.737 259.5,286.5C 261.773,285.233 263.773,283.567 265.5,281.5C 266.736,282.246 268.07,282.579 269.5,282.5 Z"/></g>
<g><path style="opacity:0.067" fill="#d2d2d2" d="M 72.5,276.5 C 72.1765,283.022 72.5098,289.355 73.5,295.5C 72.8951,298.127 72.3951,300.793 72,303.5C 71.176,294.324 71.3427,285.324 72.5,276.5 Z"/></g>
<g><path style="opacity:0.686" fill="#5d5d5d" d="M 239.5,295.5 C 242.373,295.802 245.039,296.469 247.5,297.5C 245.08,297.292 242.747,297.626 240.5,298.5C 240.483,297.606 240.149,296.606 239.5,295.5 Z"/></g>
<g><path style="opacity:0.125" fill="#a5a5a5" d="M 252.5,298.5 C 261.722,299.26 270.722,300.594 279.5,302.5C 270.222,302.145 261.222,300.812 252.5,298.5 Z"/></g>
<g><path style="opacity:0.047" fill="#d6d6d6" d="M 30.5,311.5 C 28.8212,311.285 27.8212,311.952 27.5,313.5C 26.596,312.791 26.2627,311.791 26.5,310.5C 28.099,310.232 29.4324,310.566 30.5,311.5 Z"/></g>
<g><path style="opacity:0.106" fill="#818181" d="M 111.5,310.5 C 111.573,312.027 110.906,313.027 109.5,313.5C 109.427,311.973 110.094,310.973 111.5,310.5 Z"/></g>
<g><path style="opacity:0.106" fill="#8a8a8a" d="M 109.5,313.5 C 109.573,315.027 108.906,316.027 107.5,316.5C 107.427,314.973 108.094,313.973 109.5,313.5 Z"/></g>
<g><path style="opacity:0.114" fill="#a0a0a0" d="M 107.5,316.5 C 107.573,318.027 106.906,319.027 105.5,319.5C 105.427,317.973 106.094,316.973 107.5,316.5 Z"/></g>
<g><path style="opacity:0.165" fill="#7d7d7d" d="M 104.5,321.5 C 104.573,323.027 103.906,324.027 102.5,324.5C 102.427,322.973 103.094,321.973 104.5,321.5 Z"/></g>
<g><path style="opacity:0.09" fill="#bfbfbf" d="M 247.5,322.5 C 246.22,323.931 244.553,324.598 242.5,324.5C 243.78,323.069 245.447,322.402 247.5,322.5 Z"/></g>
<g><path style="opacity:0.141" fill="#a1a1a1" d="M 102.5,324.5 C 102.573,326.027 101.906,327.027 100.5,327.5C 100.427,325.973 101.094,324.973 102.5,324.5 Z"/></g>
<g><path style="opacity:0.102" fill="#bbbbbb" d="M 100.5,327.5 C 100.573,329.027 99.9063,330.027 98.5,330.5C 98.427,328.973 99.0937,327.973 100.5,327.5 Z"/></g>
<g><path style="opacity:0.059" fill="#dadada" d="M 97.5,332.5 C 97.573,334.027 96.9063,335.027 95.5,335.5C 95.427,333.973 96.0937,332.973 97.5,332.5 Z"/></g>
<g><path style="opacity:0.149" fill="#999999" d="M 33.5,335.5 C 34.404,336.209 34.7373,337.209 34.5,338.5C 29.5662,338.771 24.8996,338.104 20.5,336.5C 23.8674,336.457 27.2008,336.79 30.5,337.5C 32.0296,337.36 33.0296,336.693 33.5,335.5 Z"/></g>
<g><path style="opacity:0.129" fill="#b7b7b7" d="M 92.5,341.5 C 92.573,343.027 91.9063,344.027 90.5,344.5C 90.427,342.973 91.0937,341.973 92.5,341.5 Z"/></g>
<g><path style="opacity:0.063" fill="#dadada" d="M 88.5,348.5 C 88.573,350.027 87.9063,351.027 86.5,351.5C 86.427,349.973 87.0937,348.973 88.5,348.5 Z"/></g>
<g><path style="opacity:0.22" fill="#bababa" d="M 110.5,351.5 C 111.11,352.391 111.443,353.391 111.5,354.5C 109.618,353.779 109.285,352.779 110.5,351.5 Z"/></g>
<g><path style="opacity:0.58" fill="#616161" d="M 72.5,351.5 C 71.8897,353.434 70.8897,355.101 69.5,356.5C 69.2407,354.011 70.2407,352.344 72.5,351.5 Z"/></g>
<g><path style="opacity:0.702" fill="#7b7b7b" d="M 86.5,352.5 C 86.4077,354.848 85.4077,356.514 83.5,357.5C 83.7497,355.326 84.7497,353.659 86.5,352.5 Z"/></g>
<g><path style="opacity:0.906" fill="#595959" d="M 119.5,360.5 C 122.511,361.669 125.178,363.336 127.5,365.5C 125.549,365.773 124.049,365.107 123,363.5C 122.586,363.957 122.086,364.291 121.5,364.5C 120.638,363.234 119.971,361.901 119.5,360.5 Z"/></g>
<g><path style="opacity:0.322" fill="#818181" d="M 30.5,365.5 C 32.0481,365.821 32.7148,366.821 32.5,368.5C 31.5987,367.71 30.9321,366.71 30.5,365.5 Z"/></g>
<g><path style="opacity:0.11" fill="#bebebe" d="M 131.5,367.5 C 134.241,367.707 136.574,368.707 138.5,370.5C 135.759,370.293 133.426,369.293 131.5,367.5 Z"/></g>
<g><path style="opacity:0.118" fill="#bfbfbf" d="M 143.5,372.5 C 146.241,372.707 148.574,373.707 150.5,375.5C 147.759,375.293 145.426,374.293 143.5,372.5 Z"/></g>
<g><path style="opacity:0.247" fill="#a3a3a3" d="M 36.5,375.5 C 38.3818,376.221 38.7152,377.221 37.5,378.5C 36.8902,377.609 36.5569,376.609 36.5,375.5 Z"/></g>
<g><path style="opacity:0.086" fill="#d3d3d3" d="M 153.5,376.5 C 155.553,376.402 157.22,377.069 158.5,378.5C 156.447,378.598 154.78,377.931 153.5,376.5 Z"/></g>
<g><path style="opacity:0.082" fill="#b1b1b1" d="M 73.5,378.5 C 74.3696,380.274 75.703,381.607 77.5,382.5C 73.8488,382.771 72.5154,381.437 73.5,378.5 Z"/></g>
<g><path style="opacity:0.134" fill="#909090" d="M 160.5,379.5 C 161.043,379.56 161.376,379.893 161.5,380.5C 141.483,380.84 121.816,381.84 102.5,383.5C 101.522,383.189 100.855,382.522 100.5,381.5C 120.663,380.833 140.663,380.167 160.5,379.5 Z"/></g>
<g><path style="opacity:0.322" fill="#797979" d="M 89.5,385.5 C 91.8984,385.259 93.8984,385.926 95.5,387.5C 93.2143,387.405 91.2143,386.738 89.5,385.5 Z"/></g>
<g><path style="opacity:0.102" fill="#d7d7d7" d="M 111.5,390.5 C 109.251,389.92 107.585,388.587 106.5,386.5C 108.478,386.738 110.145,388.071 111.5,390.5 Z"/></g>
<g><path style="opacity:0.082" fill="#d3d3d3" d="M 111.5,390.5 C 113.852,391.543 114.019,392.876 112,394.5C 110.122,393.947 108.622,392.947 107.5,391.5C 108.583,391.539 109.583,391.873 110.5,392.5C 111.298,392.043 111.631,391.376 111.5,390.5 Z"/></g>
<g><path style="opacity:0.102" fill="#aaaaaa" d="M 49.5,397.5 C 49.5979,399.553 48.9313,401.22 47.5,402.5C 47.4021,400.447 48.0687,398.78 49.5,397.5 Z"/></g>
<g><path style="opacity:0.545" fill="#777777" d="M 25.5,405.5 C 25.8799,407.698 25.2132,409.365 23.5,410.5C 23.7959,408.597 24.4625,406.93 25.5,405.5 Z"/></g>
<g><path style="opacity:0.769" fill="#7f7f7f" d="M 22.5,413.5 C 22.2413,416.272 21.2413,418.605 19.5,420.5C 19.5516,417.654 20.5516,415.32 22.5,413.5 Z"/></g>
<g><path style="opacity:0.114" fill="#c0c0c0" d="M 39.5,421.5 C 39.2671,424.542 38.2671,427.208 36.5,429.5C 36.7329,426.458 37.7329,423.792 39.5,421.5 Z"/></g>
<g><path style="opacity:0.125" fill="#b3b3b3" d="M 36.5,429.5 C 36.7709,431.38 36.1042,432.713 34.5,433.5C 34.6596,431.847 35.3263,430.514 36.5,429.5 Z"/></g>
<g><path style="opacity:0.051" fill="#bfbfbf" d="M 15.5,429.5 C 14.6409,433.562 13.4742,437.562 12,441.5C 11.6174,442.056 11.1174,442.389 10.5,442.5C 11.3697,437.777 13.0363,433.444 15.5,429.5 Z"/></g>
<g><path style="opacity:0.149" fill="#c3c3c3" d="M 33.5,437.5 C 32.9347,441.537 31.6013,445.203 29.5,448.5C 30.0653,444.463 31.3987,440.797 33.5,437.5 Z"/></g>
<g><path style="opacity:0.659" fill="#777777" d="M 10.5,443.5 C 10.8799,445.698 10.2132,447.365 8.5,448.5C 8.40206,446.447 9.06873,444.78 10.5,443.5 Z"/></g>
<g><path style="opacity:0.467" fill="#888888" d="M 8.5,448.5 C 8.87988,450.698 8.21321,452.365 6.5,453.5C 6.79586,451.597 7.46253,449.93 8.5,448.5 Z"/></g>
<g><path style="opacity:0.102" fill="#dedede" d="M 27.5,455.5 C 27.7709,457.38 27.1042,458.713 25.5,459.5C 25.6596,457.847 26.3263,456.514 27.5,455.5 Z"/></g>
<g><path style="opacity:0.008" fill="#d0d0d0" d="M 25.5,459.5 C 25.8294,462.228 25.1628,464.562 23.5,466.5C 23.7215,463.933 24.3882,461.599 25.5,459.5 Z"/></g>
<g><path style="opacity:0.459" fill="#6c6c6c" d="M 3.5,463.5 C 3.67428,467.36 2.34095,470.36 -0.5,472.5C -0.5,472.167 -0.5,471.833 -0.5,471.5C 1.02525,468.921 2.35858,466.254 3.5,463.5 Z"/></g>
<g><path style="opacity:0.051" fill="#959595" d="M 14.5,478.5 C 13.8333,479.167 13.1667,479.833 12.5,480.5C 11.8333,480.5 11.1667,480.5 10.5,480.5C 11.1834,478.824 12.5168,478.157 14.5,478.5 Z"/></g>
</svg>
