<?xml version="1.0" encoding="UTF-8"?>
<!DOCTYPE svg PUBLIC "-//W3C//DTD SVG 1.1//EN" "http://www.w3.org/Graphics/SVG/1.1/DTD/svg11.dtd">
<svg xmlns="http://www.w3.org/2000/svg" version="1.1" width="500px" height="500px" style="shape-rendering:geometricPrecision; text-rendering:geometricPrecision; image-rendering:optimizeQuality; fill-rule:evenodd; clip-rule:evenodd" xmlns:xlink="http://www.w3.org/1999/xlink">
<g><path style="opacity:0.678" fill="#eaa6a3" d="M 272.5,17.5 C 257.5,17.5 242.5,17.5 227.5,17.5C 226.5,17.5 225.5,17.5 224.5,17.5C 240.508,15.0326 256.508,15.0326 272.5,17.5 Z"/></g>
<g><path style="opacity:1" fill="#db524a" d="M 227.5,18.5 C 227.5,18.1667 227.5,17.8333 227.5,17.5C 242.5,17.5 257.5,17.5 272.5,17.5C 273.167,17.5 273.833,17.5 274.5,17.5C 276.438,19.1628 278.772,19.8294 281.5,19.5C 285.5,19.8333 289.5,20.1667 293.5,20.5C 297.078,20.5488 300.411,21.2154 303.5,22.5C 303.5,22.8333 303.5,23.1667 303.5,23.5C 297.786,22.7383 292.12,22.7383 286.5,23.5C 285.5,23 284.5,22.5 283.5,22C 283.833,21.6667 284.167,21.3333 284.5,21C 277.402,20.5531 270.402,19.7198 263.5,18.5C 251.5,18.5 239.5,18.5 227.5,18.5 Z"/></g>
<g><path style="opacity:1" fill="#e76e67" d="M 224.5,17.5 C 225.5,17.5 226.5,17.5 227.5,17.5C 227.5,17.8333 227.5,18.1667 227.5,18.5C 223.439,19.0062 219.439,19.6729 215.5,20.5C 214.5,20.5 213.5,20.5 212.5,20.5C 213.5,19.8333 214.5,19.1667 215.5,18.5C 218.482,18.0371 221.482,17.7038 224.5,17.5 Z"/></g>
<g><path style="opacity:1" fill="#f34236" d="M 227.5,18.5 C 239.5,18.5 251.5,18.5 263.5,18.5C 263.577,19.7498 264.244,20.5831 265.5,21C 286.113,25.3533 305.779,32.0199 324.5,41C 327.452,43.9891 330.786,45.4891 334.5,45.5C 335.386,46.325 335.719,47.325 335.5,48.5C 340.195,49.472 344.695,51.1386 349,53.5C 349.414,53.0426 349.914,52.7093 350.5,52.5C 354.08,57.5733 358.747,61.4066 364.5,64C 369.5,69 374.5,74 379.5,79C 382.612,79.4538 384.278,81.2871 384.5,84.5C 383.846,86.1151 383.346,87.7818 383,89.5C 379.249,91.2908 375.749,93.4574 372.5,96C 372.207,99.0944 370.541,100.594 367.5,100.5C 367.649,101.552 367.483,102.552 367,103.5C 364.032,107.15 360.532,109.983 356.5,112C 356.522,114.802 354.855,116.302 351.5,116.5C 351.649,117.552 351.483,118.552 351,119.5C 346.902,122.728 344.069,126.728 342.5,131.5C 339.892,131.6 337.558,130.933 335.5,129.5C 334.833,129.5 334.167,129.5 333.5,129.5C 333.027,128.094 332.027,127.427 330.5,127.5C 330.027,126.094 329.027,125.427 327.5,125.5C 326.335,122.41 324.002,121.076 320.5,121.5C 319.817,119.824 318.483,119.157 316.5,119.5C 316.218,118.222 315.551,117.222 314.5,116.5C 313.192,115.768 311.858,114.934 310.5,114C 311.308,113.692 311.975,113.192 312.5,112.5C 310.172,111.276 307.839,111.276 305.5,112.5C 303.623,111.197 301.957,109.697 300.5,108C 298.866,107.506 297.199,107.34 295.5,107.5C 295.244,105.088 296.244,103.421 298.5,102.5C 296.534,101.628 294.534,101.795 292.5,103C 294.481,103.605 294.815,104.605 293.5,106C 291.527,106.495 289.527,106.662 287.5,106.5C 287.5,105.5 287.5,104.5 287.5,103.5C 285.512,103.827 283.512,104.16 281.5,104.5C 261.842,100.981 242.176,100.648 222.5,103.5C 196.646,103.301 172.312,109.135 149.5,121C 148.809,122.067 148.309,123.234 148,124.5C 144.85,122.839 143.35,123.839 143.5,127.5C 140.438,128.692 137.438,130.192 134.5,132C 128.36,137.1 122.027,141.933 115.5,146.5C 114.167,148.5 112.833,150.5 111.5,152.5C 110.311,153.429 108.978,153.762 107.5,153.5C 106.478,157.724 104.311,161.391 101,164.5C 100.334,167.166 99.167,169.5 97.5,171.5C 94.903,169.406 91.903,168.073 88.5,167.5C 84.6319,165.971 81.2985,163.637 78.5,160.5C 76.3227,156.97 73.4894,153.97 70,151.5C 69.3828,150.551 69.5494,149.718 70.5,149C 67.9949,147.705 65.3283,147.539 62.5,148.5C 56.374,145.45 51.0406,141.45 46.5,136.5C 47.1098,135.609 47.4431,134.609 47.5,133.5C 49.9305,131.954 51.2639,129.621 51.5,126.5C 52.9063,126.027 53.573,125.027 53.5,123.5C 54.9063,123.027 55.573,122.027 55.5,120.5C 56.9063,120.027 57.573,119.027 57.5,117.5C 58.9063,117.027 59.573,116.027 59.5,114.5C 62.4707,112.557 64.4707,109.891 65.5,106.5C 67.5869,105.415 68.9202,103.749 69.5,101.5C 71.914,100.089 73.5806,98.0892 74.5,95.5C 84.8913,85.1056 95.558,75.1056 106.5,65.5C 109.891,64.4707 112.557,62.4707 114.5,59.5C 116.853,58.6597 118.853,57.3264 120.5,55.5C 122.027,55.573 123.027,54.9063 123.5,53.5C 125.027,53.573 126.027,52.9063 126.5,51.5C 128.848,51.4077 130.514,50.4077 131.5,48.5C 136.009,47.7512 139.676,45.7512 142.5,42.5C 142.842,41.6618 143.508,41.3284 144.5,41.5C 146.027,41.573 147.027,40.9063 147.5,39.5C 147.833,39.5 148.167,39.5 148.5,39.5C 150.027,39.573 151.027,38.9063 151.5,37.5C 153.698,37.8799 155.365,37.2132 156.5,35.5C 160.342,35.1075 164.009,34.1075 167.5,32.5C 174.091,30.7851 180.758,29.2851 187.5,28C 187.167,27.6667 186.833,27.3333 186.5,27C 191.363,26.5718 196.03,26.7385 200.5,27.5C 207.271,23.5378 214.271,22.8712 221.5,25.5C 222.167,25.1667 222.833,24.8333 223.5,24.5C 221.16,22.3206 218.493,20.9873 215.5,20.5C 219.439,19.6729 223.439,19.0062 227.5,18.5 Z"/></g>
<g><path style="opacity:0.863" fill="#d77c76" d="M 279.5,17.5 C 280.167,18.1667 280.833,18.8333 281.5,19.5C 278.772,19.8294 276.438,19.1628 274.5,17.5C 275.858,17.1778 277.525,17.1778 279.5,17.5 Z"/></g>
<g><path style="opacity:0.22" fill="#f6cac7" d="M 279.5,17.5 C 284.391,18.0099 289.058,19.0099 293.5,20.5C 289.5,20.1667 285.5,19.8333 281.5,19.5C 280.833,18.8333 280.167,18.1667 279.5,17.5 Z"/></g>
<g><path style="opacity:0.537" fill="#f8b1ae" d="M 215.5,18.5 C 214.5,19.1667 213.5,19.8333 212.5,20.5C 207.153,21.0733 201.82,21.74 196.5,22.5C 202.509,20.2154 208.843,18.8821 215.5,18.5 Z"/></g>
<g><path style="opacity:0.024" fill="#fdd0ce" d="M 307.5,23.5 C 310.495,23.2938 313.162,23.9605 315.5,25.5C 312.572,25.4349 309.905,24.7682 307.5,23.5 Z"/></g>
<g><path style="opacity:1" fill="#ec493d" d="M 212.5,20.5 C 213.5,20.5 214.5,20.5 215.5,20.5C 218.493,20.9873 221.16,22.3206 223.5,24.5C 222.833,24.8333 222.167,25.1667 221.5,25.5C 214.271,22.8712 207.271,23.5378 200.5,27.5C 196.03,26.7385 191.363,26.5718 186.5,27C 186.833,27.3333 187.167,27.6667 187.5,28C 180.758,29.2851 174.091,30.7851 167.5,32.5C 169.076,31.8571 170.41,30.8571 171.5,29.5C 174.152,29.5905 176.485,28.9238 178.5,27.5C 183.418,26.7731 188.085,25.4397 192.5,23.5C 193.568,22.5655 194.901,22.2322 196.5,22.5C 201.82,21.74 207.153,21.0733 212.5,20.5 Z"/></g>
<g><path style="opacity:0.655" fill="#f29d97" d="M 192.5,23.5 C 188.085,25.4397 183.418,26.7731 178.5,27.5C 182.805,25.2538 187.471,23.9205 192.5,23.5 Z"/></g>
<g><path style="opacity:1" fill="#da635e" d="M 303.5,22.5 C 305.099,22.2322 306.432,22.5655 307.5,23.5C 309.905,24.7682 312.572,25.4349 315.5,25.5C 315.5,25.8333 315.5,26.1667 315.5,26.5C 312.482,26.6646 309.482,26.498 306.5,26C 305.058,25.6232 304.058,24.7899 303.5,23.5C 303.5,23.1667 303.5,22.8333 303.5,22.5 Z"/></g>
<g><path style="opacity:0.384" fill="#f1b6b0" d="M 315.5,26.5 C 315.5,26.1667 315.5,25.8333 315.5,25.5C 317.786,25.595 319.786,26.2616 321.5,27.5C 319.435,27.4828 317.435,27.1495 315.5,26.5 Z"/></g>
<g><path style="opacity:1" fill="#d04d4b" d="M 315.5,26.5 C 317.435,27.1495 319.435,27.4828 321.5,27.5C 322.93,28.5375 324.597,29.2041 326.5,29.5C 326.833,29.5 327.167,29.5 327.5,29.5C 327.833,30.1667 328.167,30.8333 328.5,31.5C 323.604,30.7663 319.271,29.0996 315.5,26.5 Z"/></g>
<g><path style="opacity:0.004" fill="#fdddd9" d="M 321.5,27.5 C 323.698,27.1201 325.365,27.7868 326.5,29.5C 324.597,29.2041 322.93,28.5375 321.5,27.5 Z"/></g>
<g><path style="opacity:0.639" fill="#f0b5ac" d="M 178.5,27.5 C 176.485,28.9238 174.152,29.5905 171.5,29.5C 173.515,28.0762 175.848,27.4095 178.5,27.5 Z"/></g>
<g><path style="opacity:0.514" fill="#f3a8a8" d="M 327.5,29.5 C 330.157,29.9348 332.491,30.9348 334.5,32.5C 332.5,32.1667 330.5,31.8333 328.5,31.5C 328.167,30.8333 327.833,30.1667 327.5,29.5 Z"/></g>
<g><path style="opacity:0.902" fill="#ed9590" d="M 171.5,29.5 C 170.41,30.8571 169.076,31.8571 167.5,32.5C 164.009,34.1075 160.342,35.1075 156.5,35.5C 161.105,32.7376 166.105,30.7376 171.5,29.5 Z"/></g>
<g><path style="opacity:0.71" fill="#f4b3b2" d="M 156.5,35.5 C 155.365,37.2132 153.698,37.8799 151.5,37.5C 152.93,36.4625 154.597,35.7959 156.5,35.5 Z"/></g>
<g><path style="opacity:0.467" fill="#f3acad" d="M 337.5,33.5 C 341.613,34.3933 345.28,36.0599 348.5,38.5C 344.407,37.6176 340.74,35.951 337.5,33.5 Z"/></g>
<g><path style="opacity:0.561" fill="#f4bcb3" d="M 151.5,37.5 C 151.027,38.9063 150.027,39.573 148.5,39.5C 148.973,38.0937 149.973,37.427 151.5,37.5 Z"/></g>
<g><path style="opacity:1" fill="#db4d46" d="M 328.5,31.5 C 330.5,31.8333 332.5,32.1667 334.5,32.5C 335.791,32.2627 336.791,32.596 337.5,33.5C 340.74,35.951 344.407,37.6176 348.5,38.5C 349.791,38.2627 350.791,38.596 351.5,39.5C 352.287,41.1042 353.62,41.7709 355.5,41.5C 355.5,41.8333 355.5,42.1667 355.5,42.5C 351.286,41.403 347.119,40.0697 343,38.5C 341.891,39.505 340.391,40.1717 338.5,40.5C 338.966,38.7988 338.966,37.2988 338.5,36C 334.098,36.4383 330.765,34.9383 328.5,31.5 Z"/></g>
<g><path style="opacity:0.514" fill="#fabebe" d="M 147.5,39.5 C 147.027,40.9063 146.027,41.573 144.5,41.5C 144.973,40.0937 145.973,39.427 147.5,39.5 Z"/></g>
<g><path style="opacity:0.267" fill="#f5bebc" d="M 351.5,39.5 C 353.153,39.6596 354.486,40.3263 355.5,41.5C 353.62,41.7709 352.287,41.1042 351.5,39.5 Z"/></g>
<g><path style="opacity:0.235" fill="#f3c2bd" d="M 355.5,42.5 C 355.5,42.1667 355.5,41.8333 355.5,41.5C 357.153,41.6596 358.486,42.3263 359.5,43.5C 358.041,43.5674 356.708,43.2341 355.5,42.5 Z"/></g>
<g><path style="opacity:1" fill="#e7827a" d="M 142.5,42.5 C 139.676,45.7512 136.009,47.7512 131.5,48.5C 134.678,45.7417 138.345,43.7417 142.5,42.5 Z"/></g>
<g><path style="opacity:0.149" fill="#f9cbc6" d="M 359.5,43.5 C 361.027,43.427 362.027,44.0937 362.5,45.5C 360.973,45.573 359.973,44.9063 359.5,43.5 Z"/></g>
<g><path style="opacity:0.333" fill="#f7beb4" d="M 362.5,45.5 C 364.153,45.6596 365.486,46.3263 366.5,47.5C 364.62,47.7709 363.287,47.1042 362.5,45.5 Z"/></g>
<g><path style="opacity:0.929" fill="#eea09f" d="M 366.5,47.5 C 370.054,48.7693 373.054,50.7693 375.5,53.5C 371.909,52.2172 368.909,50.2172 366.5,47.5 Z"/></g>
<g><path style="opacity:0.518" fill="#f39b99" d="M 131.5,48.5 C 130.514,50.4077 128.848,51.4077 126.5,51.5C 127.659,49.7497 129.326,48.7497 131.5,48.5 Z"/></g>
<g><path style="opacity:0.686" fill="#eea09b" d="M 126.5,51.5 C 126.027,52.9063 125.027,53.573 123.5,53.5C 123.973,52.0937 124.973,51.427 126.5,51.5 Z"/></g>
<g><path style="opacity:0.729" fill="#ed9799" d="M 123.5,53.5 C 123.027,54.9063 122.027,55.573 120.5,55.5C 120.973,54.0937 121.973,53.427 123.5,53.5 Z"/></g>
<g><path style="opacity:1" fill="#e98d86" d="M 375.5,53.5 C 378.198,53.8449 380.198,55.1782 381.5,57.5C 378.634,57.3671 376.634,56.0338 375.5,53.5 Z"/></g>
<g><path style="opacity:0.255" fill="#f4b4b1" d="M 120.5,55.5 C 118.853,57.3264 116.853,58.6597 114.5,59.5C 115.802,57.1782 117.802,55.8449 120.5,55.5 Z"/></g>
<g><path style="opacity:0.565" fill="#eda09b" d="M 114.5,59.5 C 112.557,62.4707 109.891,64.4707 106.5,65.5C 108.8,63.016 111.467,61.016 114.5,59.5 Z"/></g>
<g><path style="opacity:1" fill="#de7570" d="M 382.5,57.5 C 383.872,58.5116 385.205,59.5116 386.5,60.5C 386.833,61.1667 387.167,61.8333 387.5,62.5C 384.5,62.1667 382.833,60.5 382.5,57.5 Z"/></g>
<g><path style="opacity:0.024" fill="#fdcec9" d="M 386.5,60.5 C 388.404,60.7376 389.738,61.7376 390.5,63.5C 390.167,63.5 389.833,63.5 389.5,63.5C 388.833,63.1667 388.167,62.8333 387.5,62.5C 387.167,61.8333 386.833,61.1667 386.5,60.5 Z"/></g>
<g><path style="opacity:1" fill="#e43935" d="M 263.5,18.5 C 270.402,19.7198 277.402,20.5531 284.5,21C 284.167,21.3333 283.833,21.6667 283.5,22C 284.5,22.5 285.5,23 286.5,23.5C 292.12,22.7383 297.786,22.7383 303.5,23.5C 304.058,24.7899 305.058,25.6232 306.5,26C 309.482,26.498 312.482,26.6646 315.5,26.5C 319.271,29.0996 323.604,30.7663 328.5,31.5C 330.765,34.9383 334.098,36.4383 338.5,36C 338.966,37.2988 338.966,38.7988 338.5,40.5C 340.391,40.1717 341.891,39.505 343,38.5C 347.119,40.0697 351.286,41.403 355.5,42.5C 356.708,43.2341 358.041,43.5674 359.5,43.5C 359.973,44.9063 360.973,45.573 362.5,45.5C 363.287,47.1042 364.62,47.7709 366.5,47.5C 368.909,50.2172 371.909,52.2172 375.5,53.5C 376.634,56.0338 378.634,57.3671 381.5,57.5C 381.833,57.5 382.167,57.5 382.5,57.5C 382.833,60.5 384.5,62.1667 387.5,62.5C 388.167,62.8333 388.833,63.1667 389.5,63.5C 388.498,65.0109 387.831,66.6776 387.5,68.5C 389.527,68.3379 391.527,68.5045 393.5,69C 394.668,70.4056 394.335,71.5723 392.5,72.5C 393.325,73.3857 394.325,73.719 395.5,73.5C 395.351,74.552 395.517,75.552 396,76.5C 399.016,78.2877 401.516,80.621 403.5,83.5C 404.086,83.7093 404.586,84.0426 405,84.5C 406.749,79.4128 408.249,79.7461 409.5,85.5C 408.448,85.3505 407.448,85.5172 406.5,86C 407.576,87.7261 407.743,89.5594 407,91.5C 405.612,90.4464 404.112,90.2797 402.5,91C 403.38,92.3561 403.714,93.8561 403.5,95.5C 400.757,97.2393 398.757,99.5726 397.5,102.5C 395.589,103.075 393.922,104.075 392.5,105.5C 392.631,104.624 392.298,103.957 391.5,103.5C 390.548,105.045 390.215,106.712 390.5,108.5C 389.127,108.343 387.793,108.51 386.5,109C 387.727,110.587 387.394,111.921 385.5,113C 384.216,113.684 383.049,113.517 382,112.5C 381.505,114.473 381.338,116.473 381.5,118.5C 381.5,119.167 381.167,119.5 380.5,119.5C 378.246,120.415 376.246,121.748 374.5,123.5C 373.127,123.343 371.793,123.51 370.5,124C 371.86,125.938 371.527,127.604 369.5,129C 367.833,129.333 366.167,129.667 364.5,130C 365.38,131.356 365.714,132.856 365.5,134.5C 363.589,135.075 361.922,136.075 360.5,137.5C 360.157,135.775 359.157,135.275 357.5,136C 358.337,137.011 358.67,138.178 358.5,139.5C 356.712,139.215 355.045,139.548 353.5,140.5C 354.894,141.687 354.727,142.354 353,142.5C 351.2,141.68 349.366,141.014 347.5,140.5C 346.415,138.413 344.749,137.08 342.5,136.5C 341.415,134.413 339.749,133.08 337.5,132.5C 336.833,131.5 336.167,130.5 335.5,129.5C 337.558,130.933 339.892,131.6 342.5,131.5C 344.069,126.728 346.902,122.728 351,119.5C 351.483,118.552 351.649,117.552 351.5,116.5C 354.855,116.302 356.522,114.802 356.5,112C 360.532,109.983 364.032,107.15 367,103.5C 367.483,102.552 367.649,101.552 367.5,100.5C 370.541,100.594 372.207,99.0944 372.5,96C 375.749,93.4574 379.249,91.2908 383,89.5C 383.346,87.7818 383.846,86.1151 384.5,84.5C 384.278,81.2871 382.612,79.4538 379.5,79C 374.5,74 369.5,69 364.5,64C 358.747,61.4066 354.08,57.5733 350.5,52.5C 349.914,52.7093 349.414,53.0426 349,53.5C 344.695,51.1386 340.195,49.472 335.5,48.5C 335.719,47.325 335.386,46.325 334.5,45.5C 330.786,45.4891 327.452,43.9891 324.5,41C 305.779,32.0199 286.113,25.3533 265.5,21C 264.244,20.5831 263.577,19.7498 263.5,18.5 Z"/></g>
<g><path style="opacity:0.031" fill="#fbbfbf" d="M 392.5,65.5 C 394.027,65.427 395.027,66.0937 395.5,67.5C 393.973,67.573 392.973,66.9063 392.5,65.5 Z"/></g>
<g><path style="opacity:0.984" fill="#ea8d8c" d="M 397.5,69.5 C 399.754,70.1237 401.421,71.457 402.5,73.5C 400.205,72.8645 398.539,71.5311 397.5,69.5 Z"/></g>
<g><path style="opacity:0.392" fill="#f7b5b3" d="M 402.5,73.5 C 405.447,74.7805 407.781,76.7805 409.5,79.5C 406.527,78.1897 404.193,76.1897 402.5,73.5 Z"/></g>
<g><path style="opacity:1" fill="#dc413b" d="M 389.5,63.5 C 389.833,63.5 390.167,63.5 390.5,63.5C 391.5,63.8333 392.167,64.5 392.5,65.5C 392.973,66.9063 393.973,67.573 395.5,67.5C 396.5,67.8333 397.167,68.5 397.5,69.5C 398.539,71.5311 400.205,72.8645 402.5,73.5C 404.193,76.1897 406.527,78.1897 409.5,79.5C 410.5,79.8333 411.167,80.5 411.5,81.5C 412.15,83.4352 412.483,85.4352 412.5,87.5C 411.391,87.5569 410.391,87.8902 409.5,88.5C 409.5,87.5 409.5,86.5 409.5,85.5C 408.249,79.7461 406.749,79.4128 405,84.5C 404.586,84.0426 404.086,83.7093 403.5,83.5C 401.516,80.621 399.016,78.2877 396,76.5C 395.517,75.552 395.351,74.552 395.5,73.5C 394.325,73.719 393.325,73.3857 392.5,72.5C 394.335,71.5723 394.668,70.4056 393.5,69C 391.527,68.5045 389.527,68.3379 387.5,68.5C 387.831,66.6776 388.498,65.0109 389.5,63.5 Z"/></g>
<g><path style="opacity:0.176" fill="#f8bfc0" d="M 411.5,81.5 C 412.947,82.1342 413.613,83.3009 413.5,85C 413.472,86.0698 413.139,86.9032 412.5,87.5C 412.483,85.4352 412.15,83.4352 411.5,81.5 Z"/></g>
<g><path style="opacity:0.549" fill="#f6b1a9" d="M 106.5,65.5 C 95.558,75.1056 84.8913,85.1056 74.5,95.5C 83.5803,83.7513 94.247,73.7513 106.5,65.5 Z"/></g>
<g><path style="opacity:0.059" fill="#f5b5b6" d="M 412.5,87.5 C 411.833,88.8333 410.833,89.8333 409.5,90.5C 409.5,89.8333 409.5,89.1667 409.5,88.5C 410.391,87.8902 411.391,87.5569 412.5,87.5 Z"/></g>
<g><path style="opacity:1" fill="#e5635e" d="M 409.5,85.5 C 409.5,86.5 409.5,87.5 409.5,88.5C 409.5,89.1667 409.5,89.8333 409.5,90.5C 408.167,92.5 406.5,94.1667 404.5,95.5C 404.167,95.5 403.833,95.5 403.5,95.5C 403.714,93.8561 403.38,92.3561 402.5,91C 404.112,90.2797 405.612,90.4464 407,91.5C 407.743,89.5594 407.576,87.7261 406.5,86C 407.448,85.5172 408.448,85.3505 409.5,85.5 Z"/></g>
<g><path style="opacity:0.541" fill="#f7b4af" d="M 74.5,95.5 C 73.5806,98.0892 71.914,100.089 69.5,101.5C 70.4194,98.9108 72.086,96.9108 74.5,95.5 Z"/></g>
<g><path style="opacity:0.075" fill="#f1adab" d="M 403.5,95.5 C 403.833,95.5 404.167,95.5 404.5,95.5C 402.5,98.1667 400.167,100.5 397.5,102.5C 398.757,99.5726 400.757,97.2393 403.5,95.5 Z"/></g>
<g><path style="opacity:1" fill="#e64b3f" d="M 314.5,116.5 C 313.167,116.5 311.833,116.5 310.5,116.5C 308.824,114.166 306.491,113.166 303.5,113.5C 301.316,111.415 298.649,110.415 295.5,110.5C 293.901,110.768 292.568,110.434 291.5,109.5C 289.562,107.837 287.228,107.171 284.5,107.5C 282.162,105.96 279.495,105.294 276.5,105.5C 274.052,104.527 271.385,104.194 268.5,104.5C 262.231,103.02 255.731,102.353 249,102.5C 244.653,102.501 240.486,102.834 236.5,103.5C 232.143,103.586 227.81,103.92 223.5,104.5C 223.5,103.833 223.167,103.5 222.5,103.5C 242.176,100.648 261.842,100.981 281.5,104.5C 283.512,104.16 285.512,103.827 287.5,103.5C 287.5,104.5 287.5,105.5 287.5,106.5C 289.527,106.662 291.527,106.495 293.5,106C 294.815,104.605 294.481,103.605 292.5,103C 294.534,101.795 296.534,101.628 298.5,102.5C 296.244,103.421 295.244,105.088 295.5,107.5C 297.199,107.34 298.866,107.506 300.5,108C 301.957,109.697 303.623,111.197 305.5,112.5C 307.839,111.276 310.172,111.276 312.5,112.5C 311.975,113.192 311.308,113.692 310.5,114C 311.858,114.934 313.192,115.768 314.5,116.5 Z"/></g>
<g><path style="opacity:0.325" fill="#fab1a8" d="M 236.5,103.5 C 240.486,102.834 244.653,102.501 249,102.5C 255.731,102.353 262.231,103.02 268.5,104.5C 259.513,103.893 250.513,103.56 241.5,103.5C 239.833,103.5 238.167,103.5 236.5,103.5 Z"/></g>
<g><path style="opacity:0.51" fill="#f4aea7" d="M 69.5,101.5 C 68.9202,103.749 67.5869,105.415 65.5,106.5C 66.0798,104.251 67.4131,102.585 69.5,101.5 Z"/></g>
<g><path style="opacity:0.2" fill="#f7c3c3" d="M 236.5,103.5 C 238.167,103.5 239.833,103.5 241.5,103.5C 233.981,104.594 226.315,105.594 218.5,106.5C 220.167,105.833 221.833,105.167 223.5,104.5C 227.81,103.92 232.143,103.586 236.5,103.5 Z"/></g>
<g><path style="opacity:0.808" fill="#f3aca5" d="M 268.5,104.5 C 271.385,104.194 274.052,104.527 276.5,105.5C 275.883,105.611 275.383,105.944 275,106.5C 272.723,105.883 270.556,105.216 268.5,104.5 Z"/></g>
<g><path style="opacity:0.055" fill="#f3afb6" d="M 397.5,102.5 C 396.167,104.5 394.5,106.167 392.5,107.5C 392.5,106.833 392.5,106.167 392.5,105.5C 393.922,104.075 395.589,103.075 397.5,102.5 Z"/></g>
<g><path style="opacity:0.753" fill="#f2a89e" d="M 276.5,105.5 C 279.495,105.294 282.162,105.96 284.5,107.5C 281.572,107.435 278.905,106.768 276.5,105.5 Z"/></g>
<g><path style="opacity:1" fill="#e2655e" d="M 223.5,104.5 C 221.833,105.167 220.167,105.833 218.5,106.5C 212.978,108.301 207.311,109.968 201.5,111.5C 201.751,109.83 202.418,108.33 203.5,107C 210.077,105.404 216.744,104.57 223.5,104.5 Z"/></g>
<g><path style="opacity:0.757" fill="#eda099" d="M 65.5,106.5 C 64.4707,109.891 62.4707,112.557 59.5,114.5C 61.016,111.467 63.016,108.8 65.5,106.5 Z"/></g>
<g><path style="opacity:0.714" fill="#efaea8" d="M 284.5,107.5 C 287.228,107.171 289.562,107.837 291.5,109.5C 288.933,109.279 286.599,108.612 284.5,107.5 Z"/></g>
<g><path style="opacity:1" fill="#e67970" d="M 392.5,105.5 C 392.5,106.167 392.5,106.833 392.5,107.5C 389.167,111.5 385.5,115.167 381.5,118.5C 381.338,116.473 381.505,114.473 382,112.5C 383.049,113.517 384.216,113.684 385.5,113C 387.394,111.921 387.727,110.587 386.5,109C 387.793,108.51 389.127,108.343 390.5,108.5C 390.215,106.712 390.548,105.045 391.5,103.5C 392.298,103.957 392.631,104.624 392.5,105.5 Z"/></g>
<g><path style="opacity:0.471" fill="#f2baba" d="M 201.5,111.5 C 199.786,112.738 197.786,113.405 195.5,113.5C 197.102,111.926 199.102,111.259 201.5,111.5 Z"/></g>
<g><path style="opacity:0.631" fill="#f0a2a0" d="M 295.5,110.5 C 298.649,110.415 301.316,111.415 303.5,113.5C 300.458,113.267 297.792,112.267 295.5,110.5 Z"/></g>
<g><path style="opacity:0.937" fill="#e89690" d="M 303.5,113.5 C 306.491,113.166 308.824,114.166 310.5,116.5C 307.843,116.065 305.509,115.065 303.5,113.5 Z"/></g>
<g><path style="opacity:0.012" fill="#fdd7d1" d="M 195.5,113.5 C 194.486,114.674 193.153,115.34 191.5,115.5C 192.287,113.896 193.62,113.229 195.5,113.5 Z"/></g>
<g><path style="opacity:0.435" fill="#efad9d" d="M 59.5,114.5 C 59.573,116.027 58.9063,117.027 57.5,117.5C 57.427,115.973 58.0937,114.973 59.5,114.5 Z"/></g>
<g><path style="opacity:0.992" fill="#ec9186" d="M 310.5,116.5 C 311.833,116.5 313.167,116.5 314.5,116.5C 315.551,117.222 316.218,118.222 316.5,119.5C 314.181,119.008 312.181,118.008 310.5,116.5 Z"/></g>
<g><path style="opacity:1" fill="#e43b36" d="M 222.5,103.5 C 223.167,103.5 223.5,103.833 223.5,104.5C 216.744,104.57 210.077,105.404 203.5,107C 202.418,108.33 201.751,109.83 201.5,111.5C 199.102,111.259 197.102,111.926 195.5,113.5C 193.62,113.229 192.287,113.896 191.5,115.5C 187.957,117.438 184.29,119.105 180.5,120.5C 178.708,120.366 177.042,120.699 175.5,121.5C 174.5,121.5 173.5,121.5 172.5,121.5C 172.5,122.5 172.5,123.5 172.5,124.5C 170.833,124.5 169.167,124.5 167.5,124.5C 167.5,125.5 167.5,126.5 167.5,127.5C 166.167,127.5 164.833,127.5 163.5,127.5C 163.5,128.833 163.5,130.167 163.5,131.5C 160.833,131.5 158.167,131.5 155.5,131.5C 155.5,133.5 155.5,135.5 155.5,137.5C 153.5,137.5 151.5,137.5 149.5,137.5C 148.988,140.842 146.988,142.676 143.5,143C 144.38,144.356 144.714,145.856 144.5,147.5C 143.127,147.343 141.793,147.51 140.5,148C 141.609,149.813 140.942,150.646 138.5,150.5C 138.5,151.833 138.5,153.167 138.5,154.5C 138.5,155.167 138.167,155.5 137.5,155.5C 136.054,154.387 134.387,154.22 132.5,155C 133.38,156.356 133.714,157.856 133.5,159.5C 132.5,159.5 131.5,159.5 130.5,159.5C 130.5,161.167 130.5,162.833 130.5,164.5C 129.094,164.973 128.427,165.973 128.5,167.5C 127.094,167.973 126.427,168.973 126.5,170.5C 125.094,170.973 124.427,171.973 124.5,173.5C 124.672,174.492 124.338,175.158 123.5,175.5C 122.325,175.281 121.325,175.614 120.5,176.5C 119.652,178.409 119.318,180.409 119.5,182.5C 117.896,183.287 117.229,184.62 117.5,186.5C 117.167,186.5 116.833,186.5 116.5,186.5C 115.791,185.596 114.791,185.263 113.5,185.5C 113.357,183.738 113.691,182.071 114.5,180.5C 112.219,179.815 109.886,179.649 107.5,180C 107.957,179.586 108.291,179.086 108.5,178.5C 104.299,176.906 100.632,174.572 97.5,171.5C 99.167,169.5 100.334,167.166 101,164.5C 104.311,161.391 106.478,157.724 107.5,153.5C 108.978,153.762 110.311,153.429 111.5,152.5C 112.833,150.5 114.167,148.5 115.5,146.5C 122.027,141.933 128.36,137.1 134.5,132C 137.438,130.192 140.438,128.692 143.5,127.5C 143.35,123.839 144.85,122.839 148,124.5C 148.309,123.234 148.809,122.067 149.5,121C 172.312,109.135 196.646,103.301 222.5,103.5 Z"/></g>
<g><path style="opacity:0.431" fill="#f5a0a4" d="M 57.5,117.5 C 57.573,119.027 56.9063,120.027 55.5,120.5C 55.427,118.973 56.0937,117.973 57.5,117.5 Z"/></g>
<g><path style="opacity:1" fill="#ec8c86" d="M 316.5,119.5 C 318.483,119.157 319.817,119.824 320.5,121.5C 318.847,121.34 317.514,120.674 316.5,119.5 Z"/></g>
<g><path style="opacity:0.608" fill="#e59491" d="M 180.5,120.5 C 179.101,121.89 177.434,122.89 175.5,123.5C 175.5,122.833 175.5,122.167 175.5,121.5C 177.042,120.699 178.708,120.366 180.5,120.5 Z"/></g>
<g><path style="opacity:1" fill="#ea8178" d="M 320.5,121.5 C 324.002,121.076 326.335,122.41 327.5,125.5C 324.669,124.921 322.336,123.588 320.5,121.5 Z"/></g>
<g><path style="opacity:0.451" fill="#efa3a1" d="M 55.5,120.5 C 55.573,122.027 54.9063,123.027 53.5,123.5C 53.427,121.973 54.0937,120.973 55.5,120.5 Z"/></g>
<g><path style="opacity:0.082" fill="#f1afaf" d="M 380.5,119.5 C 378.833,121.833 376.833,123.833 374.5,125.5C 374.5,124.833 374.5,124.167 374.5,123.5C 376.246,121.748 378.246,120.415 380.5,119.5 Z"/></g>
<g><path style="opacity:0.349" fill="#f6b0aa" d="M 53.5,123.5 C 53.573,125.027 52.9063,126.027 51.5,126.5C 51.427,124.973 52.0937,123.973 53.5,123.5 Z"/></g>
<g><path style="opacity:1" fill="#e16d68" d="M 175.5,121.5 C 175.5,122.167 175.5,122.833 175.5,123.5C 171.537,126.154 167.537,128.82 163.5,131.5C 163.5,130.167 163.5,128.833 163.5,127.5C 164.833,127.5 166.167,127.5 167.5,127.5C 167.5,126.5 167.5,125.5 167.5,124.5C 169.167,124.5 170.833,124.5 172.5,124.5C 172.5,123.5 172.5,122.5 172.5,121.5C 173.5,121.5 174.5,121.5 175.5,121.5 Z"/></g>
<g><path style="opacity:0.443" fill="#fbafa7" d="M 327.5,125.5 C 329.027,125.427 330.027,126.094 330.5,127.5C 328.973,127.573 327.973,126.906 327.5,125.5 Z"/></g>
<g><path style="opacity:0.443" fill="#f9aea9" d="M 330.5,127.5 C 332.027,127.427 333.027,128.094 333.5,129.5C 331.973,129.573 330.973,128.906 330.5,127.5 Z"/></g>
<g><path style="opacity:0.78" fill="#f0ada4" d="M 333.5,129.5 C 334.167,129.5 334.833,129.5 335.5,129.5C 336.167,130.5 336.833,131.5 337.5,132.5C 335.596,132.262 334.262,131.262 333.5,129.5 Z"/></g>
<g><path style="opacity:1" fill="#e67c72" d="M 374.5,123.5 C 374.5,124.167 374.5,124.833 374.5,125.5C 371.833,128.833 368.833,131.833 365.5,134.5C 365.714,132.856 365.38,131.356 364.5,130C 366.167,129.667 367.833,129.333 369.5,129C 371.527,127.604 371.86,125.938 370.5,124C 371.793,123.51 373.127,123.343 374.5,123.5 Z"/></g>
<g><path style="opacity:1" fill="#e68a7e" d="M 51.5,126.5 C 51.2639,129.621 49.9305,131.954 47.5,133.5C 48.0787,130.669 49.412,128.336 51.5,126.5 Z"/></g>
<g><path style="opacity:1" fill="#e26860" d="M 163.5,131.5 C 161.14,133.853 158.473,135.853 155.5,137.5C 155.5,135.5 155.5,133.5 155.5,131.5C 158.167,131.5 160.833,131.5 163.5,131.5 Z"/></g>
<g><path style="opacity:0.616" fill="#eda8a8" d="M 337.5,132.5 C 339.749,133.08 341.415,134.413 342.5,136.5C 340.251,135.92 338.585,134.587 337.5,132.5 Z"/></g>
<g><path style="opacity:0.318" fill="#f2aa9f" d="M 47.5,133.5 C 47.4431,134.609 47.1098,135.609 46.5,136.5C 46.1667,136.5 45.8333,136.5 45.5,136.5C 45.427,134.973 46.0937,133.973 47.5,133.5 Z"/></g>
<g><path style="opacity:0.078" fill="#f3b0b2" d="M 365.5,134.5 C 364.167,136.5 362.5,138.167 360.5,139.5C 360.5,138.833 360.5,138.167 360.5,137.5C 361.922,136.075 363.589,135.075 365.5,134.5 Z"/></g>
<g><path style="opacity:0.639" fill="#f0aaa3" d="M 342.5,136.5 C 344.749,137.08 346.415,138.413 347.5,140.5C 345.251,139.92 343.585,138.587 342.5,136.5 Z"/></g>
<g><path style="opacity:0.522" fill="#f8dd8c" d="M 45.5,136.5 C 45.7709,138.38 45.1042,139.713 43.5,140.5C 43.6596,138.847 44.3263,137.514 45.5,136.5 Z"/></g>
<g><path style="opacity:1" fill="#e26b61" d="M 155.5,137.5 C 152.442,141.525 148.775,144.858 144.5,147.5C 144.714,145.856 144.38,144.356 143.5,143C 146.988,142.676 148.988,140.842 149.5,137.5C 151.5,137.5 153.5,137.5 155.5,137.5 Z"/></g>
<g><path style="opacity:1" fill="#db5a51" d="M 360.5,137.5 C 360.5,138.167 360.5,138.833 360.5,139.5C 359.5,141.167 358.167,142.5 356.5,143.5C 354.05,143.702 351.717,143.369 349.5,142.5C 348.5,142.167 347.833,141.5 347.5,140.5C 349.366,141.014 351.2,141.68 353,142.5C 354.727,142.354 354.894,141.687 353.5,140.5C 355.045,139.548 356.712,139.215 358.5,139.5C 358.67,138.178 358.337,137.011 357.5,136C 359.157,135.275 360.157,135.775 360.5,137.5 Z"/></g>
<g><path style="opacity:0.031" fill="#f5cbc9" d="M 349.5,142.5 C 351.717,143.369 354.05,143.702 356.5,143.5C 353.523,146.498 351.19,146.165 349.5,142.5 Z"/></g>
<g><path style="opacity:1" fill="#f9ca50" d="M 43.5,140.5 C 42.9084,143.127 42.5751,145.794 42.5,148.5C 41.5,148.5 40.5,148.5 39.5,148.5C 40.3257,145.515 41.659,142.849 43.5,140.5 Z"/></g>
<g><path style="opacity:1" fill="#ec5329" d="M 78.5,160.5 C 72.4425,157.471 67.1092,153.471 62.5,148.5C 65.3283,147.539 67.9949,147.705 70.5,149C 69.5494,149.718 69.3828,150.551 70,151.5C 73.4894,153.97 76.3227,156.97 78.5,160.5 Z"/></g>
<g><path style="opacity:1" fill="#fdc006" d="M 45.5,136.5 C 45.8333,136.5 46.1667,136.5 46.5,136.5C 51.0406,141.45 56.374,145.45 62.5,148.5C 67.1092,153.471 72.4425,157.471 78.5,160.5C 81.2985,163.637 84.6319,165.971 88.5,167.5C 89.5,169.167 90.8333,170.5 92.5,171.5C 92.9038,172.756 93.5705,173.923 94.5,175C 82.5077,197.003 76.1744,220.67 75.5,246C 75.9838,251.08 75.9838,256.08 75.5,261C 76.9159,270.501 78.4159,280.001 80,289.5C 83.0282,298.641 86.1949,307.641 89.5,316.5C 91.1667,316.5 92.8333,316.5 94.5,316.5C 94.1886,312.664 95.6886,311.331 99,312.5C 100.875,310.822 103.042,309.822 105.5,309.5C 105.167,310.5 104.5,311.167 103.5,311.5C 101.661,312.582 99.6614,313.415 97.5,314C 96.6195,314.708 95.9528,315.542 95.5,316.5C 95.5,316.833 95.5,317.167 95.5,317.5C 93.8333,318.167 92.1667,318.833 90.5,319.5C 88.2512,320.08 86.5846,321.413 85.5,323.5C 82.1185,325.837 78.7851,328.17 75.5,330.5C 73.847,330.66 72.5137,331.326 71.5,332.5C 68.7983,333.62 65.465,334.454 61.5,335C 61.8333,335.333 62.1667,335.667 62.5,336C 60.6715,337.494 58.8381,338.994 57,340.5C 53.4555,338.999 52.9555,339.499 55.5,342C 50.7407,343.266 47.4074,346.1 45.5,350.5C 44.391,350.557 43.391,350.89 42.5,351.5C 39.6142,348.528 38.1142,344.861 38,340.5C 37.6667,340.833 37.3333,341.167 37,341.5C 36.5193,337.469 35.8527,333.469 35,329.5C 33.8904,327.963 32.3904,327.297 30.5,327.5C 30.1667,327.5 29.8333,327.5 29.5,327.5C 29.5,327.167 29.5,326.833 29.5,326.5C 28.7761,323.157 27.9428,319.824 27,316.5C 26.6174,315.944 26.1174,315.611 25.5,315.5C 25.9746,312.918 25.3079,310.918 23.5,309.5C 23.5,308.5 23.5,307.5 23.5,306.5C 23.4349,303.572 22.7682,300.905 21.5,298.5C 21.0578,294.846 20.7244,291.179 20.5,287.5C 19.0029,275.835 18.3362,264.002 18.5,252C 18.7554,238.162 19.0887,224.329 19.5,210.5C 19.5,209.833 19.5,209.167 19.5,208.5C 21.2227,206.22 21.8893,203.553 21.5,200.5C 22.4972,200.53 23.1639,200.03 23.5,199C 24.4894,195.553 25.1561,192.053 25.5,188.5C 27.0475,183.197 28.3808,177.863 29.5,172.5C 29.5,172.167 29.5,171.833 29.5,171.5C 32.4312,168.987 33.7645,165.653 33.5,161.5C 35.8227,158.865 37.6561,155.865 39,152.5C 39.49,151.207 39.6567,149.873 39.5,148.5C 40.5,148.5 41.5,148.5 42.5,148.5C 42.5751,145.794 42.9084,143.127 43.5,140.5C 45.1042,139.713 45.7709,138.38 45.5,136.5 Z"/></g>
<g><path style="opacity:1" fill="#e6867c" d="M 144.5,147.5 C 143.219,150.447 141.219,152.781 138.5,154.5C 138.5,153.167 138.5,151.833 138.5,150.5C 140.942,150.646 141.609,149.813 140.5,148C 141.793,147.51 143.127,147.343 144.5,147.5 Z"/></g>
<g><path style="opacity:0.851" fill="#f5d677" d="M 39.5,148.5 C 39.6567,149.873 39.49,151.207 39,152.5C 37.6561,155.865 35.8227,158.865 33.5,161.5C 34.733,156.707 36.733,152.374 39.5,148.5 Z"/></g>
<g><path style="opacity:1" fill="#e26e66" d="M 137.5,155.5 C 135.518,158.81 133.185,161.81 130.5,164.5C 130.5,162.833 130.5,161.167 130.5,159.5C 131.5,159.5 132.5,159.5 133.5,159.5C 133.714,157.856 133.38,156.356 132.5,155C 134.387,154.22 136.054,154.387 137.5,155.5 Z"/></g>
<g><path style="opacity:0.114" fill="#f8c3c6" d="M 130.5,164.5 C 130.573,166.027 129.906,167.027 128.5,167.5C 128.427,165.973 129.094,164.973 130.5,164.5 Z"/></g>
<g><path style="opacity:1" fill="#f4cd61" d="M 33.5,161.5 C 33.7645,165.653 32.4312,168.987 29.5,171.5C 30.3208,167.873 31.6541,164.54 33.5,161.5 Z"/></g>
<g><path style="opacity:0.125" fill="#fcc8c3" d="M 128.5,167.5 C 128.573,169.027 127.906,170.027 126.5,170.5C 126.427,168.973 127.094,167.973 128.5,167.5 Z"/></g>
<g><path style="opacity:0.125" fill="#fac1c1" d="M 126.5,170.5 C 126.573,172.027 125.906,173.027 124.5,173.5C 124.427,171.973 125.094,170.973 126.5,170.5 Z"/></g>
<g><path style="opacity:1" fill="#feb203" d="M 92.5,171.5 C 100.167,176.833 107.833,182.167 115.5,187.5C 115.5,187.833 115.5,188.167 115.5,188.5C 114.778,188.918 114.278,189.584 114,190.5C 113.667,190.167 113.333,189.833 113,189.5C 112.433,192.168 111.933,194.834 111.5,197.5C 111.5,198.833 111.5,200.167 111.5,201.5C 111.125,203.698 110.458,205.698 109.5,207.5C 107.923,210.984 106.59,214.651 105.5,218.5C 104.313,221.946 103.646,225.613 103.5,229.5C 102.834,239.486 102.501,249.486 102.5,259.5C 102.265,267.285 103.098,274.952 105,282.5C 105.417,283.756 106.25,284.423 107.5,284.5C 108.218,291.491 109.885,298.158 112.5,304.5C 112.5,305.167 112.167,305.5 111.5,305.5C 109.223,306.449 107.223,307.782 105.5,309.5C 103.042,309.822 100.875,310.822 99,312.5C 95.6886,311.331 94.1886,312.664 94.5,316.5C 92.8333,316.5 91.1667,316.5 89.5,316.5C 86.1949,307.641 83.0282,298.641 80,289.5C 78.4159,280.001 76.9159,270.501 75.5,261C 75.9838,256.08 75.9838,251.08 75.5,246C 76.1744,220.67 82.5077,197.003 94.5,175C 93.5705,173.923 92.9038,172.756 92.5,171.5 Z"/></g>
<g><path style="opacity:1" fill="#e34a25" d="M 88.5,167.5 C 91.903,168.073 94.903,169.406 97.5,171.5C 100.632,174.572 104.299,176.906 108.5,178.5C 108.291,179.086 107.957,179.586 107.5,180C 109.886,179.649 112.219,179.815 114.5,180.5C 113.691,182.071 113.357,183.738 113.5,185.5C 114.791,185.263 115.791,185.596 116.5,186.5C 116.5,187.167 116.167,187.5 115.5,187.5C 107.833,182.167 100.167,176.833 92.5,171.5C 90.8333,170.5 89.5,169.167 88.5,167.5 Z"/></g>
<g><path style="opacity:1" fill="#e2797c" d="M 123.5,175.5 C 122.416,178.004 121.083,180.337 119.5,182.5C 119.318,180.409 119.652,178.409 120.5,176.5C 121.325,175.614 122.325,175.281 123.5,175.5 Z"/></g>
<g><path style="opacity:0.78" fill="#f7db82" d="M 29.5,172.5 C 28.3808,177.863 27.0475,183.197 25.5,188.5C 25.1667,188.5 24.8333,188.5 24.5,188.5C 25.3904,182.834 27.057,177.5 29.5,172.5 Z"/></g>
<g><path style="opacity:0.388" fill="#f0a3a5" d="M 119.5,182.5 C 119.34,184.153 118.674,185.486 117.5,186.5C 117.229,184.62 117.896,183.287 119.5,182.5 Z"/></g>
<g><path style="opacity:0.541" fill="#fbc994" d="M 116.5,186.5 C 116.833,186.5 117.167,186.5 117.5,186.5C 117.34,188.153 116.674,189.486 115.5,190.5C 115.5,189.833 115.5,189.167 115.5,188.5C 115.5,188.167 115.5,187.833 115.5,187.5C 116.167,187.5 116.5,187.167 116.5,186.5 Z"/></g>
<g><path style="opacity:1" fill="#f5be41" d="M 115.5,188.5 C 115.5,189.167 115.5,189.833 115.5,190.5C 115.737,191.791 115.404,192.791 114.5,193.5C 113.5,194.833 112.5,196.167 111.5,197.5C 111.933,194.834 112.433,192.168 113,189.5C 113.333,189.833 113.667,190.167 114,190.5C 114.278,189.584 114.778,188.918 115.5,188.5 Z"/></g>
<g><path style="opacity:1" fill="#f4ce56" d="M 24.5,188.5 C 24.8333,188.5 25.1667,188.5 25.5,188.5C 25.1561,192.053 24.4894,195.553 23.5,199C 23.1639,200.03 22.4972,200.53 21.5,200.5C 21.8984,196.239 22.8984,192.239 24.5,188.5 Z"/></g>
<g><path style="opacity:0.235" fill="#fde7a5" d="M 114.5,193.5 C 114.02,196.443 113.02,199.11 111.5,201.5C 111.5,200.167 111.5,198.833 111.5,197.5C 112.5,196.167 113.5,194.833 114.5,193.5 Z"/></g>
<g><path style="opacity:0.91" fill="#7fb8e6" d="M 481.5,274.5 C 481.827,252.258 481.494,230.091 480.5,208C 403.834,207.5 327.167,207.333 250.5,207.5C 250.611,206.883 250.944,206.383 251.5,206C 327.833,205.333 404.167,205.333 480.5,206C 481.333,206.833 482.167,207.667 483,208.5C 483.167,217.833 483.333,227.167 483.5,236.5C 483.716,249.373 483.05,262.04 481.5,274.5 Z"/></g>
<g><path style="opacity:0.129" fill="#f5e5a3" d="M 21.5,200.5 C 21.8893,203.553 21.2227,206.22 19.5,208.5C 19.5651,205.572 20.2318,202.905 21.5,200.5 Z"/></g>
<g><path style="opacity:1" fill="#1f87e2" d="M 250.5,208.5 C 250.5,208.167 250.5,207.833 250.5,207.5C 327.167,207.333 403.834,207.5 480.5,208C 481.494,230.091 481.827,252.258 481.5,274.5C 481.5,274.833 481.5,275.167 481.5,275.5C 480.732,276.263 480.232,277.263 480,278.5C 479.501,282.152 479.335,285.818 479.5,289.5C 479.5,289.833 479.5,290.167 479.5,290.5C 477.096,295.79 475.763,301.456 475.5,307.5C 475.5,308.167 475.5,308.833 475.5,309.5C 474.069,310.78 473.402,312.447 473.5,314.5C 473.5,315.167 473.5,315.833 473.5,316.5C 471.787,317.635 471.12,319.302 471.5,321.5C 471.737,322.791 471.404,323.791 470.5,324.5C 469.039,326.73 467.539,329.063 466,331.5C 465.505,333.473 465.338,335.473 465.5,337.5C 465.5,337.833 465.5,338.167 465.5,338.5C 463.896,339.287 463.229,340.62 463.5,342.5C 462.069,343.78 461.402,345.447 461.5,347.5C 460.5,347.5 459.5,347.5 458.5,347.5C 458.054,351.698 457.054,355.698 455.5,359.5C 455.167,360.167 454.833,360.833 454.5,361.5C 453.883,361.389 453.383,361.056 453,360.5C 452.29,361.973 451.124,362.64 449.5,362.5C 449.5,364.833 449.5,367.167 449.5,369.5C 449.5,369.833 449.5,370.167 449.5,370.5C 447.533,370.739 445.699,370.406 444,369.5C 443.405,370.899 443.572,372.232 444.5,373.5C 442.827,375.523 442.16,377.856 442.5,380.5C 441.5,380.5 440.5,380.5 439.5,380.5C 439.5,381.833 439.5,383.167 439.5,384.5C 438.094,384.973 437.427,385.973 437.5,387.5C 436.094,387.973 435.427,388.973 435.5,390.5C 434.488,391.872 433.488,393.205 432.5,394.5C 428.5,393.833 426.833,395.5 427.5,399.5C 426.167,399.5 424.833,399.5 423.5,399.5C 423.143,403.395 421.143,404.395 417.5,402.5C 417.977,401.522 418.643,400.689 419.5,400C 417.671,399.727 416.171,398.893 415,397.5C 414.508,398.549 414.674,399.549 415.5,400.5C 414.675,401.386 413.675,401.719 412.5,401.5C 411.353,397.583 408.686,395.583 404.5,395.5C 404.167,394.833 403.833,394.167 403.5,393.5C 413.734,381.387 422.234,368.054 429,353.5C 431.719,350.107 434.053,346.44 436,342.5C 439.263,332.297 442.763,322.13 446.5,312C 450.155,298.725 452.655,285.225 454,271.5C 454.75,250.485 454.583,229.485 453.5,208.5C 385.833,208.5 318.167,208.5 250.5,208.5 Z"/></g>
<g><path style="opacity:1" fill="#2094f3" d="M 250.5,208.5 C 318.167,208.5 385.833,208.5 453.5,208.5C 454.583,229.485 454.75,250.485 454,271.5C 452.655,285.225 450.155,298.725 446.5,312C 442.763,322.13 439.263,332.297 436,342.5C 434.053,346.44 431.719,350.107 429,353.5C 422.234,368.054 413.734,381.387 403.5,393.5C 400.591,392.576 397.924,391.243 395.5,389.5C 393.611,388.396 391.945,387.063 390.5,385.5C 390.027,384.094 389.027,383.427 387.5,383.5C 386.513,380.914 384.513,379.581 381.5,379.5C 380.513,376.914 378.513,375.581 375.5,375.5C 373.833,374.167 372.167,372.833 370.5,371.5C 369.415,369.413 367.749,368.08 365.5,367.5C 363.109,365.385 361.776,362.719 361.5,359.5C 358.167,358.833 354.833,358.167 351.5,357.5C 354.167,353.833 356.833,350.167 359.5,346.5C 361.914,345.089 363.581,343.089 364.5,340.5C 368.659,338.92 371.493,335.92 373,331.5C 373.893,332.711 374.726,332.711 375.5,331.5C 376.573,327.966 377.906,324.299 379.5,320.5C 381.41,316.683 382.743,312.683 383.5,308.5C 385.834,306.824 386.834,304.491 386.5,301.5C 387.649,301.209 388.316,300.376 388.5,299C 389.077,296.863 389.41,294.696 389.5,292.5C 387.735,291.539 385.735,291.205 383.5,291.5C 339.67,290.501 295.67,290.168 251.5,290.5C 251.737,289.209 251.404,288.209 250.5,287.5C 250.5,261.167 250.5,234.833 250.5,208.5 Z"/></g>
<g><path style="opacity:0.357" fill="#f6e295" d="M 109.5,207.5 C 108.768,213.095 107.435,218.429 105.5,223.5C 105.5,221.833 105.5,220.167 105.5,218.5C 106.59,214.651 107.923,210.984 109.5,207.5 Z"/></g>
<g><path style="opacity:1" fill="#f3c650" d="M 105.5,218.5 C 105.5,220.167 105.5,221.833 105.5,223.5C 105.795,225.735 105.461,227.735 104.5,229.5C 104.167,229.5 103.833,229.5 103.5,229.5C 103.646,225.613 104.313,221.946 105.5,218.5 Z"/></g>
<g><path style="opacity:0.749" fill="#f6df96" d="M 17.5,226.5 C 17.5,241.833 17.5,257.167 17.5,272.5C 16.1388,265.714 15.4721,258.714 15.5,251.5C 15.9349,246.716 15.9349,242.05 15.5,237.5C 16.1037,233.697 16.7704,230.031 17.5,226.5 Z"/></g>
<g><path style="opacity:0.486" fill="#fcda82" d="M 103.5,229.5 C 103.833,229.5 104.167,229.5 104.5,229.5C 104.255,238.837 103.922,248.171 103.5,257.5C 103.5,258.167 103.5,258.833 103.5,259.5C 103.167,259.5 102.833,259.5 102.5,259.5C 102.501,249.486 102.834,239.486 103.5,229.5 Z"/></g>
<g><path style="opacity:1" fill="#f2c43d" d="M 19.5,210.5 C 19.0887,224.329 18.7554,238.162 18.5,252C 18.3362,264.002 19.0029,275.835 20.5,287.5C 20.1667,287.5 19.8333,287.5 19.5,287.5C 19.678,283.878 19.0114,280.544 17.5,277.5C 17.5,275.833 17.5,274.167 17.5,272.5C 17.5,257.167 17.5,241.833 17.5,226.5C 17.6685,220.966 18.3351,215.633 19.5,210.5 Z"/></g>
<g><path style="opacity:1" fill="#f5b836" d="M 102.5,259.5 C 102.833,259.5 103.167,259.5 103.5,259.5C 103.334,263.514 103.501,267.514 104,271.5C 104.278,272.416 104.778,273.082 105.5,273.5C 106.326,277.136 106.992,280.803 107.5,284.5C 106.25,284.423 105.417,283.756 105,282.5C 103.098,274.952 102.265,267.285 102.5,259.5 Z"/></g>
<g><path style="opacity:0.353" fill="#f9dd96" d="M 103.5,257.5 C 104.458,262.658 105.125,267.991 105.5,273.5C 104.778,273.082 104.278,272.416 104,271.5C 103.501,267.514 103.334,263.514 103.5,259.5C 103.5,258.833 103.5,258.167 103.5,257.5 Z"/></g>
<g><path style="opacity:0.094" fill="#fae4ad" d="M 17.5,277.5 C 19.0114,280.544 19.678,283.878 19.5,287.5C 17.9886,284.456 17.322,281.122 17.5,277.5 Z"/></g>
<g><path style="opacity:0.639" fill="#97c1e5" d="M 481.5,275.5 C 481.31,280.37 480.644,285.036 479.5,289.5C 479.335,285.818 479.501,282.152 480,278.5C 480.232,277.263 480.732,276.263 481.5,275.5 Z"/></g>
<g><path style="opacity:1" fill="#2892e4" d="M 250.5,287.5 C 251.404,288.209 251.737,289.209 251.5,290.5C 295.67,290.168 339.67,290.501 383.5,291.5C 339.167,291.5 294.833,291.5 250.5,291.5C 250.5,290.167 250.5,288.833 250.5,287.5 Z"/></g>
<g><path style="opacity:1" fill="#69a7e0" d="M 250.5,207.5 C 250.5,207.833 250.5,208.167 250.5,208.5C 250.5,234.833 250.5,261.167 250.5,287.5C 250.5,288.833 250.5,290.167 250.5,291.5C 294.833,291.5 339.167,291.5 383.5,291.5C 385.735,291.205 387.735,291.539 389.5,292.5C 343.5,292.5 297.5,292.5 251.5,292.5C 250.069,292.119 249.236,291.119 249,289.5C 248.333,262.5 248.333,235.5 249,208.5C 249.383,207.944 249.883,207.611 250.5,207.5 Z"/></g>
<g><path style="opacity:0.243" fill="#abe0fd" d="M 251.5,292.5 C 297.5,292.5 343.5,292.5 389.5,292.5C 389.41,294.696 389.077,296.863 388.5,299C 388.316,300.376 387.649,301.209 386.5,301.5C 386.387,298.951 387.054,296.618 388.5,294.5C 342.668,293.833 297.002,293.167 251.5,292.5 Z"/></g>
<g><path style="opacity:1" fill="#f3ce76" d="M 107.5,284.5 C 110.003,291.341 112.336,298.341 114.5,305.5C 114.167,305.5 113.833,305.5 113.5,305.5C 113.5,304.833 113.167,304.5 112.5,304.5C 109.885,298.158 108.218,291.491 107.5,284.5 Z"/></g>
<g><path style="opacity:0.373" fill="#fde9a9" d="M 19.5,287.5 C 19.8333,287.5 20.1667,287.5 20.5,287.5C 20.7244,291.179 21.0578,294.846 21.5,298.5C 19.9177,295.124 19.2511,291.458 19.5,287.5 Z"/></g>
<g><path style="opacity:0.325" fill="#9dc8ee" d="M 479.5,290.5 C 478.913,296.456 477.579,302.122 475.5,307.5C 475.763,301.456 477.096,295.79 479.5,290.5 Z"/></g>
<g><path style="opacity:0.506" fill="#eedc91" d="M 21.5,298.5 C 22.7682,300.905 23.4349,303.572 23.5,306.5C 21.9605,304.162 21.2938,301.495 21.5,298.5 Z"/></g>
<g><path style="opacity:0.953" fill="#96c9ee" d="M 386.5,301.5 C 386.834,304.491 385.834,306.824 383.5,308.5C 383.935,305.843 384.935,303.509 386.5,301.5 Z"/></g>
<g><path style="opacity:1" fill="#96a326" d="M 111.5,305.5 C 110.292,308.044 108.292,309.378 105.5,309.5C 107.223,307.782 109.223,306.449 111.5,305.5 Z"/></g>
<g><path style="opacity:0.231" fill="#bde1f7" d="M 475.5,309.5 C 475.598,311.553 474.931,313.22 473.5,314.5C 473.402,312.447 474.069,310.78 475.5,309.5 Z"/></g>
<g><path style="opacity:1" fill="#60a65f" d="M 113.5,305.5 C 113.833,305.5 114.167,305.5 114.5,305.5C 116.438,309.043 118.105,312.71 119.5,316.5C 117.563,315.41 115.73,314.076 114,312.5C 113.094,314.612 111.594,315.445 109.5,315C 112.437,312.547 113.77,309.38 113.5,305.5 Z"/></g>
<g><path style="opacity:0.016" fill="#f4e9a4" d="M 23.5,309.5 C 25.3079,310.918 25.9746,312.918 25.5,315.5C 24.5418,313.698 23.8751,311.698 23.5,309.5 Z"/></g>
<g><path style="opacity:1" fill="#6f9f2e" d="M 103.5,311.5 C 102.126,315.187 99.4592,316.853 95.5,316.5C 95.9528,315.542 96.6195,314.708 97.5,314C 99.6614,313.415 101.661,312.582 103.5,311.5 Z"/></g>
<g><path style="opacity:1" fill="#429f46" d="M 112.5,304.5 C 113.167,304.5 113.5,304.833 113.5,305.5C 113.77,309.38 112.437,312.547 109.5,315C 111.594,315.445 113.094,314.612 114,312.5C 115.73,314.076 117.563,315.41 119.5,316.5C 119.198,320.38 120.531,323.38 123.5,325.5C 123.797,328.724 123.13,331.724 121.5,334.5C 123.818,335.834 125.485,335.168 126.5,332.5C 128.122,334.641 130.122,336.308 132.5,337.5C 132.343,338.873 132.51,340.207 133,341.5C 135.663,343.334 138.163,345.334 140.5,347.5C 140.525,350.179 141.858,351.512 144.5,351.5C 145.184,354.851 147.184,356.851 150.5,357.5C 151.167,357.833 151.833,358.167 152.5,358.5C 152.5,360.5 153.5,361.5 155.5,361.5C 157.193,364.19 159.527,366.19 162.5,367.5C 162.833,367.5 163.167,367.5 163.5,367.5C 163.628,369.09 164.295,370.423 165.5,371.5C 168.774,372.873 171.774,374.706 174.5,377C 175.793,377.49 177.127,377.657 178.5,377.5C 178.859,379.485 179.692,380.151 181,379.5C 182.113,380.305 183.279,380.972 184.5,381.5C 184.369,382.376 184.702,383.043 185.5,383.5C 191.018,385.761 196.352,388.261 201.5,391C 208.632,393.355 215.965,394.522 223.5,394.5C 223.5,394.833 223.5,395.167 223.5,395.5C 192.503,396.171 164.17,388.005 138.5,371C 133.06,365.348 126.893,360.515 120,356.5C 115.427,350.585 110.427,344.919 105,339.5C 101.596,332.445 97.0958,326.278 91.5,321C 92.7932,320.51 94.1266,320.343 95.5,320.5C 95.5,319.5 95.5,318.5 95.5,317.5C 95.5,317.167 95.5,316.833 95.5,316.5C 99.4592,316.853 102.126,315.187 103.5,311.5C 104.5,311.167 105.167,310.5 105.5,309.5C 108.292,309.378 110.292,308.044 111.5,305.5C 112.167,305.5 112.5,305.167 112.5,304.5 Z"/></g>
<g><path style="opacity:0.478" fill="#b2d7f3" d="M 473.5,316.5 C 473.204,318.403 472.537,320.07 471.5,321.5C 471.12,319.302 471.787,317.635 473.5,316.5 Z"/></g>
<g><path style="opacity:0.973" fill="#7cb5e7" d="M 383.5,308.5 C 382.743,312.683 381.41,316.683 379.5,320.5C 378.778,321.551 377.778,322.218 376.5,322.5C 378.326,317.516 380.659,312.849 383.5,308.5 Z"/></g>
<g><path style="opacity:0.42" fill="#f2d890" d="M 25.5,315.5 C 26.1174,315.611 26.6174,315.944 27,316.5C 27.9428,319.824 28.7761,323.157 29.5,326.5C 27.3987,323.203 26.0653,319.537 25.5,315.5 Z"/></g>
<g><path style="opacity:1" fill="#9fb72f" d="M 90.5,319.5 C 89.4154,321.587 87.7488,322.92 85.5,323.5C 86.5846,321.413 88.2512,320.08 90.5,319.5 Z"/></g>
<g><path style="opacity:1" fill="#82b683" d="M 119.5,316.5 C 121.56,319.24 123.226,322.24 124.5,325.5C 124.167,325.5 123.833,325.5 123.5,325.5C 120.531,323.38 119.198,320.38 119.5,316.5 Z"/></g>
<g><path style="opacity:0.212" fill="#a8dcfd" d="M 376.5,322.5 C 376.25,324.674 375.25,326.341 373.5,327.5C 373.75,325.326 374.75,323.659 376.5,322.5 Z"/></g>
<g><path style="opacity:1" fill="#4198e6" d="M 379.5,320.5 C 377.906,324.299 376.573,327.966 375.5,331.5C 374.726,332.711 373.893,332.711 373,331.5C 371.493,335.92 368.659,338.92 364.5,340.5C 365.786,337.883 367.453,335.55 369.5,333.5C 370.906,333.027 371.573,332.027 371.5,330.5C 372.906,330.027 373.573,329.027 373.5,327.5C 375.25,326.341 376.25,324.674 376.5,322.5C 377.778,322.218 378.778,321.551 379.5,320.5 Z"/></g>
<g><path style="opacity:0.475" fill="#afd7b3" d="M 125.5,327.5 C 126.906,327.973 127.573,328.973 127.5,330.5C 126.094,330.027 125.427,329.027 125.5,327.5 Z"/></g>
<g><path style="opacity:0.318" fill="#b0dafb" d="M 373.5,327.5 C 373.573,329.027 372.906,330.027 371.5,330.5C 371.427,328.973 372.094,327.973 373.5,327.5 Z"/></g>
<g><path style="opacity:0.243" fill="#fce8b0" d="M 29.5,327.5 C 29.8333,327.5 30.1667,327.5 30.5,327.5C 31.038,329.117 31.3713,330.784 31.5,332.5C 30.0687,331.22 29.4021,329.553 29.5,327.5 Z"/></g>
<g><path style="opacity:1" fill="#59a25b" d="M 123.5,325.5 C 123.833,325.5 124.167,325.5 124.5,325.5C 125.338,325.842 125.672,326.508 125.5,327.5C 125.427,329.027 126.094,330.027 127.5,330.5C 129.547,332.55 131.214,334.883 132.5,337.5C 130.122,336.308 128.122,334.641 126.5,332.5C 125.485,335.168 123.818,335.834 121.5,334.5C 123.13,331.724 123.797,328.724 123.5,325.5 Z"/></g>
<g><path style="opacity:0.58" fill="#a4d7f6" d="M 371.5,330.5 C 371.573,332.027 370.906,333.027 369.5,333.5C 369.427,331.973 370.094,330.973 371.5,330.5 Z"/></g>
<g><path style="opacity:1" fill="#75a9de" d="M 470.5,324.5 C 469.63,329.223 467.964,333.556 465.5,337.5C 465.338,335.473 465.505,333.473 466,331.5C 467.539,329.063 469.039,326.73 470.5,324.5 Z"/></g>
<g><path style="opacity:1" fill="#f2c42a" d="M 30.5,327.5 C 32.3904,327.297 33.8904,327.963 35,329.5C 35.8527,333.469 36.5193,337.469 37,341.5C 37.3333,341.167 37.6667,340.833 38,340.5C 38.1142,344.861 39.6142,348.528 42.5,351.5C 42.5,352.167 42.1667,352.5 41.5,352.5C 40.8333,352.167 40.1667,351.833 39.5,351.5C 38.4625,350.07 37.7959,348.403 37.5,346.5C 37.7709,344.62 37.1042,343.287 35.5,342.5C 35.196,339.478 34.696,336.478 34,333.5C 33.3292,332.748 32.4959,332.414 31.5,332.5C 31.3713,330.784 31.038,329.117 30.5,327.5 Z"/></g>
<g><path style="opacity:1" fill="#4bad51" d="M 95.5,317.5 C 95.5,318.5 95.5,319.5 95.5,320.5C 94.1266,320.343 92.7932,320.51 91.5,321C 97.0958,326.278 101.596,332.445 105,339.5C 110.427,344.919 115.427,350.585 120,356.5C 126.893,360.515 133.06,365.348 138.5,371C 164.17,388.005 192.503,396.171 223.5,395.5C 234.484,397.625 245.651,398.958 257,399.5C 261.071,397.009 265.571,396.009 270.5,396.5C 273.5,396.667 276.5,396.833 279.5,397C 276.774,397.182 274.107,397.682 271.5,398.5C 275.795,399.661 280.129,399.828 284.5,399C 280.815,398.086 281.148,397.419 285.5,397C 283.833,396.667 282.167,396.333 280.5,396C 285.85,393.743 291.35,391.909 297,390.5C 298.951,391.285 300.785,392.285 302.5,393.5C 303.83,391.653 303.497,390.153 301.5,389C 305.515,389.188 308.515,387.688 310.5,384.5C 313.945,382.274 317.611,380.274 321.5,378.5C 322.298,378.043 322.631,377.376 322.5,376.5C 324.848,376.408 326.514,375.408 327.5,373.5C 332.037,373.736 335.037,371.736 336.5,367.5C 337.262,365.738 338.596,364.738 340.5,364.5C 343.729,361.718 347.396,359.718 351.5,358.5C 352.492,358.328 353.158,358.662 353.5,359.5C 353.973,360.906 354.973,361.573 356.5,361.5C 357.585,363.587 359.251,364.92 361.5,365.5C 362.5,365.833 363.167,366.5 363.5,367.5C 364.27,369.935 365.937,371.269 368.5,371.5C 369.167,371.5 369.833,371.5 370.5,371.5C 372.167,372.833 373.833,374.167 375.5,375.5C 376.802,377.822 378.802,379.155 381.5,379.5C 381.833,380.5 382.5,381.167 383.5,381.5C 384.14,384.288 385.807,386.121 388.5,387C 388.167,387.333 387.833,387.667 387.5,388C 390.482,389.271 393.482,390.438 396.5,391.5C 397.5,392.167 398.5,392.833 399.5,393.5C 399.5,394.5 399.5,395.5 399.5,396.5C 401.993,396.131 402.66,396.797 401.5,398.5C 366.938,437.438 324.605,463.604 274.5,477C 258.66,480.13 242.66,481.297 226.5,480.5C 221.547,479.671 216.547,479.337 211.5,479.5C 210.833,479.5 210.167,479.5 209.5,479.5C 209.082,478.778 208.416,478.278 207.5,478C 204.854,477.503 202.187,477.336 199.5,477.5C 197.365,475.631 194.698,474.964 191.5,475.5C 189.044,473.588 186.378,471.755 183.5,470C 185.9,469.814 188.234,469.314 190.5,468.5C 189.264,467.643 187.931,466.977 186.5,466.5C 183.983,467.895 181.316,468.895 178.5,469.5C 173.04,468.08 167.707,466.413 162.5,464.5C 158.592,463.231 154.925,461.565 151.5,459.5C 147.043,457.524 142.71,455.191 138.5,452.5C 136.547,451.844 134.547,451.511 132.5,451.5C 130.874,448.378 128.208,446.712 124.5,446.5C 124.027,445.094 123.027,444.427 121.5,444.5C 121.027,443.094 120.027,442.427 118.5,442.5C 115.185,438.578 111.518,435.078 107.5,432C 106.207,431.51 104.873,431.343 103.5,431.5C 102.833,431.5 102.5,431.167 102.5,430.5C 101.415,428.413 99.7488,427.08 97.5,426.5C 95.0743,423.068 92.0743,420.401 88.5,418.5C 87.4886,416.628 86.6552,414.628 86,412.5C 83.4215,411.631 81.5882,409.965 80.5,407.5C 79.3112,406.571 77.9778,406.238 76.5,406.5C 75.4551,402.741 74.1218,399.074 72.5,395.5C 69.6461,394.974 66.9794,393.974 64.5,392.5C 64.5,392.167 64.5,391.833 64.5,391.5C 64.3657,388.232 62.8657,385.898 60,384.5C 59.0411,381.412 57.5411,378.745 55.5,376.5C 55.2287,374.688 54.562,373.022 53.5,371.5C 50.5787,368.605 47.9121,365.605 45.5,362.5C 45.573,360.973 44.9063,359.973 43.5,359.5C 43.7709,357.62 43.1042,356.287 41.5,355.5C 41.5,354.5 41.5,353.5 41.5,352.5C 42.1667,352.5 42.5,352.167 42.5,351.5C 43.391,350.89 44.391,350.557 45.5,350.5C 49.8269,347.001 54.4936,344.001 59.5,341.5C 63.975,339.619 68.3083,337.453 72.5,335C 74.1412,333.871 75.1412,332.371 75.5,330.5C 78.7851,328.17 82.1185,325.837 85.5,323.5C 87.7488,322.92 89.4154,321.587 90.5,319.5C 92.1667,318.833 93.8333,318.167 95.5,317.5 Z"/></g>
<g><path style="opacity:1" fill="#eeca61" d="M 31.5,332.5 C 32.4959,332.414 33.3292,332.748 34,333.5C 34.696,336.478 35.196,339.478 35.5,342.5C 33.6001,339.482 32.2667,336.149 31.5,332.5 Z"/></g>
<g><path style="opacity:1" fill="#72a834" d="M 75.5,330.5 C 75.1412,332.371 74.1412,333.871 72.5,335C 68.3083,337.453 63.975,339.619 59.5,341.5C 63.7433,338.857 67.7433,335.857 71.5,332.5C 72.5137,331.326 73.847,330.66 75.5,330.5 Z"/></g>
<g><path style="opacity:1" fill="#7eb87c" d="M 132.5,337.5 C 135.54,340.539 138.206,343.873 140.5,347.5C 138.163,345.334 135.663,343.334 133,341.5C 132.51,340.207 132.343,338.873 132.5,337.5 Z"/></g>
<g><path style="opacity:0.345" fill="#b5ddf8" d="M 465.5,338.5 C 465.34,340.153 464.674,341.486 463.5,342.5C 463.229,340.62 463.896,339.287 465.5,338.5 Z"/></g>
<g><path style="opacity:0.463" fill="#e8d588" d="M 35.5,342.5 C 37.1042,343.287 37.7709,344.62 37.5,346.5C 36.3263,345.486 35.6596,344.153 35.5,342.5 Z"/></g>
<g><path style="opacity:1" fill="#e7c518" d="M 71.5,332.5 C 67.7433,335.857 63.7433,338.857 59.5,341.5C 54.4936,344.001 49.8269,347.001 45.5,350.5C 47.4074,346.1 50.7407,343.266 55.5,342C 52.9555,339.499 53.4555,338.999 57,340.5C 58.8381,338.994 60.6715,337.494 62.5,336C 62.1667,335.667 61.8333,335.333 61.5,335C 65.465,334.454 68.7983,333.62 71.5,332.5 Z"/></g>
<g><path style="opacity:0.525" fill="#9accf0" d="M 364.5,340.5 C 363.581,343.089 361.914,345.089 359.5,346.5C 360.419,343.911 362.086,341.911 364.5,340.5 Z"/></g>
<g><path style="opacity:0.314" fill="#b2d9f7" d="M 463.5,342.5 C 463.598,344.553 462.931,346.22 461.5,347.5C 461.402,345.447 462.069,343.78 463.5,342.5 Z"/></g>
<g><path style="opacity:1" fill="#7cb17b" d="M 140.5,347.5 C 142.341,348.402 143.674,349.736 144.5,351.5C 141.858,351.512 140.525,350.179 140.5,347.5 Z"/></g>
<g><path style="opacity:0.792" fill="#83bbe2" d="M 359.5,346.5 C 356.833,350.167 354.167,353.833 351.5,357.5C 350.5,357.5 349.5,357.5 348.5,357.5C 351.833,353.5 355.5,349.833 359.5,346.5 Z"/></g>
<g><path style="opacity:0.329" fill="#94c2ec" d="M 461.5,347.5 C 460.008,351.818 458.008,355.818 455.5,359.5C 457.054,355.698 458.054,351.698 458.5,347.5C 459.5,347.5 460.5,347.5 461.5,347.5 Z"/></g>
<g><path style="opacity:0.047" fill="#dce1b6" d="M 39.5,351.5 C 40.1667,351.833 40.8333,352.167 41.5,352.5C 41.5,353.5 41.5,354.5 41.5,355.5C 40.3263,354.486 39.6596,353.153 39.5,351.5 Z"/></g>
<g><path style="opacity:1" fill="#77b279" d="M 144.5,351.5 C 146.882,353.215 148.882,355.215 150.5,357.5C 147.184,356.851 145.184,354.851 144.5,351.5 Z"/></g>
<g><path style="opacity:0.294" fill="#a6ddcd" d="M 41.5,355.5 C 43.1042,356.287 43.7709,357.62 43.5,359.5C 42.3263,358.486 41.6596,357.153 41.5,355.5 Z"/></g>
<g><path style="opacity:0.541" fill="#bee1bf" d="M 152.5,358.5 C 153.833,359.167 154.833,360.167 155.5,361.5C 153.5,361.5 152.5,360.5 152.5,358.5 Z"/></g>
<g><path style="opacity:1" fill="#35a0ac" d="M 353.5,359.5 C 355.027,359.427 356.027,360.094 356.5,361.5C 354.973,361.573 353.973,360.906 353.5,359.5 Z"/></g>
<g><path style="opacity:1" fill="#2697de" d="M 351.5,358.5 C 351.5,358.167 351.5,357.833 351.5,357.5C 354.833,358.167 358.167,358.833 361.5,359.5C 361.776,362.719 363.109,365.385 365.5,367.5C 364.833,367.5 364.167,367.5 363.5,367.5C 363.167,366.5 362.5,365.833 361.5,365.5C 360.415,363.413 358.749,362.08 356.5,361.5C 356.027,360.094 355.027,359.427 353.5,359.5C 353.158,358.662 352.492,358.328 351.5,358.5 Z"/></g>
<g><path style="opacity:0.553" fill="#94c9a0" d="M 348.5,357.5 C 349.5,357.5 350.5,357.5 351.5,357.5C 351.5,357.833 351.5,358.167 351.5,358.5C 347.396,359.718 343.729,361.718 340.5,364.5C 342.549,361.45 345.216,359.117 348.5,357.5 Z"/></g>
<g><path style="opacity:0.192" fill="#b0dfc9" d="M 43.5,359.5 C 44.9063,359.973 45.573,360.973 45.5,362.5C 44.0937,362.027 43.427,361.027 43.5,359.5 Z"/></g>
<g><path style="opacity:1" fill="#689fdc" d="M 454.5,361.5 C 453.331,364.511 451.664,367.178 449.5,369.5C 449.5,367.167 449.5,364.833 449.5,362.5C 451.124,362.64 452.29,361.973 453,360.5C 453.383,361.056 453.883,361.389 454.5,361.5 Z"/></g>
<g><path style="opacity:0.58" fill="#a9cda9" d="M 155.5,361.5 C 158.447,362.781 160.781,364.781 162.5,367.5C 159.527,366.19 157.193,364.19 155.5,361.5 Z"/></g>
<g><path style="opacity:1" fill="#36a2a2" d="M 356.5,361.5 C 358.749,362.08 360.415,363.413 361.5,365.5C 359.251,364.92 357.585,363.587 356.5,361.5 Z"/></g>
<g><path style="opacity:1" fill="#42a977" d="M 363.5,367.5 C 364.167,367.5 364.833,367.5 365.5,367.5C 366.5,368.833 367.5,370.167 368.5,371.5C 365.937,371.269 364.27,369.935 363.5,367.5 Z"/></g>
<g><path style="opacity:1" fill="#329db0" d="M 365.5,367.5 C 367.749,368.08 369.415,369.413 370.5,371.5C 369.833,371.5 369.167,371.5 368.5,371.5C 367.5,370.167 366.5,368.833 365.5,367.5 Z"/></g>
<g><path style="opacity:1" fill="#68b275" d="M 45.5,362.5 C 47.9121,365.605 50.5787,368.605 53.5,371.5C 54.562,373.022 55.2287,374.688 55.5,376.5C 54.8333,376.5 54.1667,376.5 53.5,376.5C 52.9213,373.669 51.588,371.336 49.5,369.5C 47.412,367.664 46.0787,365.331 45.5,362.5 Z"/></g>
<g><path style="opacity:1" fill="#77b87d" d="M 336.5,367.5 C 335.037,371.736 332.037,373.736 327.5,373.5C 329.975,370.759 332.975,368.759 336.5,367.5 Z"/></g>
<g><path style="opacity:1" fill="#5e9cdf" d="M 449.5,370.5 C 447.646,374.221 445.313,377.554 442.5,380.5C 442.16,377.856 442.827,375.523 444.5,373.5C 443.572,372.232 443.405,370.899 444,369.5C 445.699,370.406 447.533,370.739 449.5,370.5 Z"/></g>
<g><path style="opacity:0.188" fill="#c5e5d5" d="M 49.5,369.5 C 51.588,371.336 52.9213,373.669 53.5,376.5C 51.3311,374.66 49.9977,372.326 49.5,369.5 Z"/></g>
<g><path style="opacity:1" fill="#82b985" d="M 163.5,367.5 C 168.523,370.867 173.523,374.2 178.5,377.5C 177.127,377.657 175.793,377.49 174.5,377C 171.774,374.706 168.774,372.873 165.5,371.5C 164.295,370.423 163.628,369.09 163.5,367.5 Z"/></g>
<g><path style="opacity:0.545" fill="#a0d4a2" d="M 327.5,373.5 C 326.514,375.408 324.848,376.408 322.5,376.5C 323.659,374.75 325.326,373.75 327.5,373.5 Z"/></g>
<g><path style="opacity:1" fill="#339bb9" d="M 375.5,375.5 C 378.513,375.581 380.513,376.914 381.5,379.5C 378.802,379.155 376.802,377.822 375.5,375.5 Z"/></g>
<g><path style="opacity:1" fill="#85c093" d="M 53.5,376.5 C 54.1667,376.5 54.8333,376.5 55.5,376.5C 57.5411,378.745 59.0411,381.412 60,384.5C 62.8657,385.898 64.3657,388.232 64.5,391.5C 63.5,391.167 62.8333,390.5 62.5,389.5C 62.573,387.973 61.9063,386.973 60.5,386.5C 57.6869,383.554 55.3535,380.221 53.5,376.5 Z"/></g>
<g><path style="opacity:0.271" fill="#acd7aa" d="M 178.5,377.5 C 182.818,378.992 186.818,380.992 190.5,383.5C 188.297,383.396 186.297,382.73 184.5,381.5C 183.279,380.972 182.113,380.305 181,379.5C 179.692,380.151 178.859,379.485 178.5,377.5 Z"/></g>
<g><path style="opacity:0.976" fill="#8fc594" d="M 322.5,376.5 C 322.631,377.376 322.298,378.043 321.5,378.5C 317.611,380.274 313.945,382.274 310.5,384.5C 309.167,384.5 307.833,384.5 306.5,384.5C 311.516,381.326 316.849,378.659 322.5,376.5 Z"/></g>
<g><path style="opacity:1" fill="#2e99c7" d="M 381.5,379.5 C 384.513,379.581 386.513,380.914 387.5,383.5C 386.167,382.833 384.833,382.167 383.5,381.5C 382.5,381.167 381.833,380.5 381.5,379.5 Z"/></g>
<g><path style="opacity:1" fill="#70a7df" d="M 442.5,380.5 C 442.262,382.404 441.262,383.738 439.5,384.5C 439.5,383.167 439.5,381.833 439.5,380.5C 440.5,380.5 441.5,380.5 442.5,380.5 Z"/></g>
<g><path style="opacity:1" fill="#2d9dbc" d="M 387.5,383.5 C 389.027,383.427 390.027,384.094 390.5,385.5C 388.973,385.573 387.973,384.906 387.5,383.5 Z"/></g>
<g><path style="opacity:0.4" fill="#b7dbbb" d="M 193.5,384.5 C 196.157,384.935 198.491,385.935 200.5,387.5C 197.654,387.448 195.32,386.448 193.5,384.5 Z"/></g>
<g><path style="opacity:0.812" fill="#95cd98" d="M 306.5,384.5 C 303.691,386.897 300.358,388.23 296.5,388.5C 299.53,386.597 302.863,385.263 306.5,384.5 Z"/></g>
<g><path style="opacity:0.263" fill="#9cc6ec" d="M 439.5,384.5 C 439.573,386.027 438.906,387.027 437.5,387.5C 437.427,385.973 438.094,384.973 439.5,384.5 Z"/></g>
<g><path style="opacity:0.024" fill="#c4ecdd" d="M 60.5,386.5 C 61.9063,386.973 62.573,387.973 62.5,389.5C 61.0937,389.027 60.427,388.027 60.5,386.5 Z"/></g>
<g><path style="opacity:1" fill="#45ab69" d="M 383.5,381.5 C 384.833,382.167 386.167,382.833 387.5,383.5C 387.973,384.906 388.973,385.573 390.5,385.5C 391.945,387.063 393.611,388.396 395.5,389.5C 395.833,390.167 396.167,390.833 396.5,391.5C 393.482,390.438 390.482,389.271 387.5,388C 387.833,387.667 388.167,387.333 388.5,387C 385.807,386.121 384.14,384.288 383.5,381.5 Z"/></g>
<g><path style="opacity:0.047" fill="#aed2f4" d="M 437.5,387.5 C 437.573,389.027 436.906,390.027 435.5,390.5C 435.427,388.973 436.094,387.973 437.5,387.5 Z"/></g>
<g><path style="opacity:0.42" fill="#b6d7b0" d="M 203.5,388.5 C 209.982,390.001 216.315,391.668 222.5,393.5C 215.704,393.219 209.371,391.552 203.5,388.5 Z"/></g>
<g><path style="opacity:1" fill="#5ca25e" d="M 184.5,381.5 C 186.297,382.73 188.297,383.396 190.5,383.5C 191.609,383.557 192.609,383.89 193.5,384.5C 195.32,386.448 197.654,387.448 200.5,387.5C 201.791,387.263 202.791,387.596 203.5,388.5C 209.371,391.552 215.704,393.219 222.5,393.5C 225.385,393.194 228.052,393.527 230.5,394.5C 228.167,394.5 225.833,394.5 223.5,394.5C 215.965,394.522 208.632,393.355 201.5,391C 196.352,388.261 191.018,385.761 185.5,383.5C 184.702,383.043 184.369,382.376 184.5,381.5 Z"/></g>
<g><path style="opacity:0.6" fill="#aad7b1" d="M 296.5,388.5 C 291.874,390.832 286.874,392.165 281.5,392.5C 286.261,390.674 291.261,389.341 296.5,388.5 Z"/></g>
<g><path style="opacity:1" fill="#359db3" d="M 395.5,389.5 C 397.924,391.243 400.591,392.576 403.5,393.5C 403.833,394.167 404.167,394.833 404.5,395.5C 402.833,394.833 401.167,394.167 399.5,393.5C 398.5,392.833 397.5,392.167 396.5,391.5C 396.167,390.833 395.833,390.167 395.5,389.5 Z"/></g>
<g><path style="opacity:0.149" fill="#c3e7c5" d="M 279.5,392.5 C 277.189,394.068 274.522,394.902 271.5,395C 267.179,395.499 262.846,395.666 258.5,395.5C 265.373,394.565 272.373,393.565 279.5,392.5 Z"/></g>
<g><path style="opacity:1" fill="#70b57d" d="M 64.5,392.5 C 66.9794,393.974 69.6461,394.974 72.5,395.5C 74.1218,399.074 75.4551,402.741 76.5,406.5C 72.1549,402.153 68.1549,397.486 64.5,392.5 Z"/></g>
<g><path style="opacity:1" fill="#2a89c8" d="M 404.5,395.5 C 408.686,395.583 411.353,397.583 412.5,401.5C 409.852,399.524 407.185,397.524 404.5,395.5 Z"/></g>
<g><path style="opacity:1" fill="#51aa57" d="M 306.5,384.5 C 307.833,384.5 309.167,384.5 310.5,384.5C 308.515,387.688 305.515,389.188 301.5,389C 303.497,390.153 303.83,391.653 302.5,393.5C 300.785,392.285 298.951,391.285 297,390.5C 291.35,391.909 285.85,393.743 280.5,396C 282.167,396.333 283.833,396.667 285.5,397C 281.148,397.419 280.815,398.086 284.5,399C 280.129,399.828 275.795,399.661 271.5,398.5C 274.107,397.682 276.774,397.182 279.5,397C 276.5,396.833 273.5,396.667 270.5,396.5C 265.571,396.009 261.071,397.009 257,399.5C 245.651,398.958 234.484,397.625 223.5,395.5C 223.5,395.167 223.5,394.833 223.5,394.5C 225.833,394.5 228.167,394.5 230.5,394.5C 230.833,394.5 231.167,394.5 231.5,394.5C 232.263,395.268 233.263,395.768 234.5,396C 241.679,396.821 248.679,396.655 255.5,395.5C 256.5,395.5 257.5,395.5 258.5,395.5C 262.846,395.666 267.179,395.499 271.5,395C 274.522,394.902 277.189,394.068 279.5,392.5C 280.167,392.5 280.833,392.5 281.5,392.5C 286.874,392.165 291.874,390.832 296.5,388.5C 300.358,388.23 303.691,386.897 306.5,384.5 Z"/></g>
<g><path style="opacity:0.276" fill="#b1deb4" d="M 231.5,394.5 C 239.479,395.224 247.479,395.558 255.5,395.5C 248.679,396.655 241.679,396.821 234.5,396C 233.263,395.768 232.263,395.268 231.5,394.5 Z"/></g>
<g><path style="opacity:1" fill="#3b8ed6" d="M 432.5,394.5 C 430.408,397.681 428.075,400.681 425.5,403.5C 422.23,405.16 418.897,405.494 415.5,404.5C 414.306,403.728 413.306,402.728 412.5,401.5C 413.675,401.719 414.675,401.386 415.5,400.5C 414.674,399.549 414.508,398.549 415,397.5C 416.171,398.893 417.671,399.727 419.5,400C 418.643,400.689 417.977,401.522 417.5,402.5C 421.143,404.395 423.143,403.395 423.5,399.5C 424.833,399.5 426.167,399.5 427.5,399.5C 426.833,395.5 428.5,393.833 432.5,394.5 Z"/></g>
<g><path style="opacity:1" fill="#419f55" d="M 399.5,393.5 C 401.167,394.167 402.833,394.833 404.5,395.5C 407.185,397.524 409.852,399.524 412.5,401.5C 413.306,402.728 414.306,403.728 415.5,404.5C 415.833,405.167 416.167,405.833 416.5,406.5C 414.989,405.498 413.322,404.831 411.5,404.5C 411.5,405.5 411.5,406.5 411.5,407.5C 410.167,407.5 408.833,407.5 407.5,407.5C 407.5,403.5 405.5,401.5 401.5,401.5C 401.5,400.5 401.5,399.5 401.5,398.5C 402.66,396.797 401.993,396.131 399.5,396.5C 399.5,395.5 399.5,394.5 399.5,393.5 Z"/></g>
<g><path style="opacity:1" fill="#70acce" d="M 425.5,403.5 C 424.167,405.5 422.5,407.167 420.5,408.5C 420.027,407.094 419.027,406.427 417.5,406.5C 417.167,406.5 416.833,406.5 416.5,406.5C 416.167,405.833 415.833,405.167 415.5,404.5C 418.897,405.494 422.23,405.16 425.5,403.5 Z"/></g>
<g><path style="opacity:1" fill="#78b684" d="M 76.5,406.5 C 77.9778,406.238 79.3112,406.571 80.5,407.5C 81.5882,409.965 83.4215,411.631 86,412.5C 86.6552,414.628 87.4886,416.628 88.5,418.5C 84.1667,414.833 80.1667,410.833 76.5,406.5 Z"/></g>
<g><path style="opacity:1" fill="#76b27d" d="M 417.5,406.5 C 419.027,406.427 420.027,407.094 420.5,408.5C 418.306,411.605 415.64,414.272 412.5,416.5C 412.714,414.856 412.38,413.356 411.5,412C 412,411.5 412.5,411 413,410.5C 414.356,411.38 415.856,411.714 417.5,411.5C 417.5,409.833 417.5,408.167 417.5,406.5 Z"/></g>
<g><path style="opacity:0.016" fill="#e3f4e2" d="M 412.5,416.5 C 412.167,418.833 410.833,420.167 408.5,420.5C 408.5,420.167 408.5,419.833 408.5,419.5C 409.833,418.5 411.167,417.5 412.5,416.5 Z"/></g>
<g><path style="opacity:1" fill="#439f46" d="M 401.5,398.5 C 401.5,399.5 401.5,400.5 401.5,401.5C 405.5,401.5 407.5,403.5 407.5,407.5C 408.833,407.5 410.167,407.5 411.5,407.5C 411.5,406.5 411.5,405.5 411.5,404.5C 413.322,404.831 414.989,405.498 416.5,406.5C 416.833,406.5 417.167,406.5 417.5,406.5C 417.5,408.167 417.5,409.833 417.5,411.5C 415.856,411.714 414.356,411.38 413,410.5C 412.5,411 412,411.5 411.5,412C 412.38,413.356 412.714,414.856 412.5,416.5C 411.167,417.5 409.833,418.5 408.5,419.5C 407.5,419.5 406.5,419.5 405.5,419.5C 405.385,421.947 404.385,423.947 402.5,425.5C 398.19,425.316 395.19,427.15 393.5,431C 391.975,432.009 390.308,432.509 388.5,432.5C 387.263,437.067 384.263,439.401 379.5,439.5C 379.5,440.5 379.5,441.5 379.5,442.5C 379.5,442.833 379.5,443.167 379.5,443.5C 376.607,443.632 374.274,444.799 372.5,447C 370.866,447.494 369.199,447.66 367.5,447.5C 367.5,448.5 367.5,449.5 367.5,450.5C 364.017,450.691 360.684,451.357 357.5,452.5C 357.5,453.5 357.5,454.5 357.5,455.5C 356.167,455.5 354.833,455.5 353.5,455.5C 348.5,457.664 343.833,460.331 339.5,463.5C 338.167,463.5 337.5,464.167 337.5,465.5C 334.918,465.025 332.918,465.692 331.5,467.5C 329.181,467.992 327.181,468.992 325.5,470.5C 324.432,471.434 323.099,471.768 321.5,471.5C 318.482,471.335 315.482,471.502 312.5,472C 309.637,473.399 306.637,474.399 303.5,475C 291.25,477.078 279.25,479.245 267.5,481.5C 253.656,481.829 239.99,481.496 226.5,480.5C 242.66,481.297 258.66,480.13 274.5,477C 324.605,463.604 366.938,437.438 401.5,398.5 Z"/></g>
<g><path style="opacity:1" fill="#91c18f" d="M 408.5,419.5 C 408.5,419.833 408.5,420.167 408.5,420.5C 407.089,422.914 405.089,424.581 402.5,425.5C 404.385,423.947 405.385,421.947 405.5,419.5C 406.5,419.5 407.5,419.5 408.5,419.5 Z"/></g>
<g><path style="opacity:0.694" fill="#a0d2b3" d="M 88.5,418.5 C 92.0743,420.401 95.0743,423.068 97.5,426.5C 93.8998,424.57 90.8998,421.903 88.5,418.5 Z"/></g>
<g><path style="opacity:0.812" fill="#98cba5" d="M 97.5,426.5 C 99.7488,427.08 101.415,428.413 102.5,430.5C 100.251,429.92 98.5846,428.587 97.5,426.5 Z"/></g>
<g><path style="opacity:1" fill="#83bf91" d="M 103.5,431.5 C 104.873,431.343 106.207,431.51 107.5,432C 111.518,435.078 115.185,438.578 118.5,442.5C 112.652,439.985 107.652,436.318 103.5,431.5 Z"/></g>
<g><path style="opacity:1" fill="#73ae74" d="M 402.5,425.5 C 396.603,431.784 389.936,437.117 382.5,441.5C 381.391,441.557 380.391,441.89 379.5,442.5C 379.5,441.5 379.5,440.5 379.5,439.5C 384.263,439.401 387.263,437.067 388.5,432.5C 390.308,432.509 391.975,432.009 393.5,431C 395.19,427.15 398.19,425.316 402.5,425.5 Z"/></g>
<g><path style="opacity:0.004" fill="#dcefdd" d="M 382.5,441.5 C 382.027,442.906 381.027,443.573 379.5,443.5C 379.5,443.167 379.5,442.833 379.5,442.5C 380.391,441.89 381.391,441.557 382.5,441.5 Z"/></g>
<g><path style="opacity:0.435" fill="#a1d5b4" d="M 118.5,442.5 C 120.027,442.427 121.027,443.094 121.5,444.5C 119.973,444.573 118.973,443.906 118.5,442.5 Z"/></g>
<g><path style="opacity:0.439" fill="#a6dcbe" d="M 121.5,444.5 C 123.027,444.427 124.027,445.094 124.5,446.5C 122.973,446.573 121.973,445.906 121.5,444.5 Z"/></g>
<g><path style="opacity:0.961" fill="#92c99e" d="M 124.5,446.5 C 128.208,446.712 130.874,448.378 132.5,451.5C 129.151,450.831 126.484,449.164 124.5,446.5 Z"/></g>
<g><path style="opacity:0.027" fill="#cdf0ce" d="M 371.5,448.5 C 371.027,449.906 370.027,450.573 368.5,450.5C 368.973,449.094 369.973,448.427 371.5,448.5 Z"/></g>
<g><path style="opacity:1" fill="#77b379" d="M 379.5,443.5 C 377.178,445.664 374.511,447.331 371.5,448.5C 369.973,448.427 368.973,449.094 368.5,450.5C 364.518,453.391 360.185,455.724 355.5,457.5C 354.5,457.5 353.5,457.5 352.5,457.5C 352.833,456.833 353.167,456.167 353.5,455.5C 354.833,455.5 356.167,455.5 357.5,455.5C 357.5,454.5 357.5,453.5 357.5,452.5C 360.684,451.357 364.017,450.691 367.5,450.5C 367.5,449.5 367.5,448.5 367.5,447.5C 369.199,447.66 370.866,447.494 372.5,447C 374.274,444.799 376.607,443.632 379.5,443.5 Z"/></g>
<g><path style="opacity:1" fill="#6bb273" d="M 132.5,451.5 C 134.547,451.511 136.547,451.844 138.5,452.5C 142.71,455.191 147.043,457.524 151.5,459.5C 150.167,459.5 148.833,459.5 147.5,459.5C 142.016,457.593 137.016,454.927 132.5,451.5 Z"/></g>
<g><path style="opacity:0.075" fill="#c3eecc" d="M 352.5,457.5 C 353.5,457.5 354.5,457.5 355.5,457.5C 354.486,458.674 353.153,459.34 351.5,459.5C 351.833,458.833 352.167,458.167 352.5,457.5 Z"/></g>
<g><path style="opacity:1" fill="#4f9854" d="M 353.5,455.5 C 353.167,456.167 352.833,456.833 352.5,457.5C 352.167,458.167 351.833,458.833 351.5,459.5C 348.256,460.463 345.256,461.796 342.5,463.5C 341.5,463.5 340.5,463.5 339.5,463.5C 343.833,460.331 348.5,457.664 353.5,455.5 Z"/></g>
<g><path style="opacity:0.855" fill="#90c497" d="M 147.5,459.5 C 148.833,459.5 150.167,459.5 151.5,459.5C 154.925,461.565 158.592,463.231 162.5,464.5C 163.694,465.272 164.694,466.272 165.5,467.5C 159.138,465.39 153.138,462.723 147.5,459.5 Z"/></g>
<g><path style="opacity:0.204" fill="#c3eacd" d="M 351.5,459.5 C 349.102,461.974 346.102,463.308 342.5,463.5C 345.256,461.796 348.256,460.463 351.5,459.5 Z"/></g>
<g><path style="opacity:0.988" fill="#94c195" d="M 339.5,463.5 C 340.5,463.5 341.5,463.5 342.5,463.5C 341.22,464.931 339.553,465.598 337.5,465.5C 337.5,464.167 338.167,463.5 339.5,463.5 Z"/></g>
<g><path style="opacity:1" fill="#71ad76" d="M 337.5,465.5 C 337.591,467.698 336.925,468.031 335.5,466.5C 334.041,466.433 332.708,466.766 331.5,467.5C 332.918,465.692 334.918,465.025 337.5,465.5 Z"/></g>
<g><path style="opacity:1" fill="#5daf65" d="M 162.5,464.5 C 167.707,466.413 173.04,468.08 178.5,469.5C 181.316,468.895 183.983,467.895 186.5,466.5C 187.931,466.977 189.264,467.643 190.5,468.5C 188.234,469.314 185.9,469.814 183.5,470C 186.378,471.755 189.044,473.588 191.5,475.5C 189.585,475.784 187.919,475.451 186.5,474.5C 182.175,471.219 177.175,469.553 171.5,469.5C 169.297,469.396 167.297,468.73 165.5,467.5C 164.694,466.272 163.694,465.272 162.5,464.5 Z"/></g>
<g><path style="opacity:0.196" fill="#bfe2bf" d="M 335.5,466.5 C 332.47,468.403 329.137,469.737 325.5,470.5C 327.181,468.992 329.181,467.992 331.5,467.5C 332.708,466.766 334.041,466.433 335.5,466.5 Z"/></g>
<g><path style="opacity:0.69" fill="#9acda3" d="M 171.5,469.5 C 177.175,469.553 182.175,471.219 186.5,474.5C 181.216,473.405 176.216,471.739 171.5,469.5 Z"/></g>
<g><path style="opacity:0.063" fill="#d7f2d9" d="M 315.5,473.5 C 313.562,475.163 311.228,475.829 308.5,475.5C 310.515,474.076 312.848,473.41 315.5,473.5 Z"/></g>
<g><path style="opacity:1" fill="#86bc8d" d="M 191.5,475.5 C 194.698,474.964 197.365,475.631 199.5,477.5C 196.572,477.435 193.905,476.768 191.5,475.5 Z"/></g>
<g><path style="opacity:0.984" fill="#9fcda2" d="M 199.5,477.5 C 202.187,477.336 204.854,477.503 207.5,478C 208.416,478.278 209.082,478.778 209.5,479.5C 205.922,479.451 202.589,478.785 199.5,477.5 Z"/></g>
<g><path style="opacity:1" fill="#67a868" d="M 321.5,471.5 C 319.786,472.738 317.786,473.405 315.5,473.5C 312.848,473.41 310.515,474.076 308.5,475.5C 305.933,476.475 303.267,477.142 300.5,477.5C 294.905,477.754 289.572,478.754 284.5,480.5C 281.214,481.207 277.881,481.54 274.5,481.5C 272.167,481.5 269.833,481.5 267.5,481.5C 279.25,479.245 291.25,477.078 303.5,475C 306.637,474.399 309.637,473.399 312.5,472C 315.482,471.502 318.482,471.335 321.5,471.5 Z"/></g>
<g><path style="opacity:0.106" fill="#c8ecca" d="M 300.5,477.5 C 295.428,479.246 290.095,480.246 284.5,480.5C 289.572,478.754 294.905,477.754 300.5,477.5 Z"/></g>
<g><path style="opacity:0.733" fill="#a2cfa7" d="M 211.5,479.5 C 216.547,479.337 221.547,479.671 226.5,480.5C 239.99,481.496 253.656,481.829 267.5,481.5C 269.833,481.5 272.167,481.5 274.5,481.5C 266.714,482.928 258.714,483.595 250.5,483.5C 238.134,483.164 225.801,482.331 213.5,481C 212.584,480.722 211.918,480.222 211.5,479.5 Z"/></g>
</svg>
