<?xml version="1.0" encoding="UTF-8"?>
<!DOCTYPE svg PUBLIC "-//W3C//DTD SVG 1.1//EN" "http://www.w3.org/Graphics/SVG/1.1/DTD/svg11.dtd">
<svg xmlns="http://www.w3.org/2000/svg" version="1.1" width="512px" height="512px" style="shape-rendering:geometricPrecision; text-rendering:geometricPrecision; image-rendering:optimizeQuality; fill-rule:evenodd; clip-rule:evenodd" xmlns:xlink="http://www.w3.org/1999/xlink">
<g><path style="opacity:0.982" fill="#000000" d="M 511.5,68.5 C 511.5,73.5 511.5,78.5 511.5,83.5C 508.136,93.6921 501.136,99.8587 490.5,102C 333.833,102.667 177.167,102.667 20.5,102C 9.86383,99.8587 2.86383,93.6921 -0.5,83.5C -0.5,78.5 -0.5,73.5 -0.5,68.5C 3.04976,59.7885 9.38309,53.9552 18.5,51C 176.5,50.3333 334.5,50.3333 492.5,51C 501.617,53.9552 507.95,59.7885 511.5,68.5 Z"/></g>
<g><path style="opacity:0.982" fill="#000000" d="M 511.5,248.5 C 511.5,253.167 511.5,257.833 511.5,262.5C 508.241,272.256 501.575,278.422 491.5,281C 334.167,281.667 176.833,281.667 19.5,281C 9.4253,278.422 2.75863,272.256 -0.5,262.5C -0.5,257.833 -0.5,253.167 -0.5,248.5C 2.75863,238.744 9.4253,232.578 19.5,230C 176.833,229.333 334.167,229.333 491.5,230C 501.575,232.578 508.241,238.744 511.5,248.5 Z"/></g>
<g><path style="opacity:0.982" fill="#000000" d="M 511.5,427.5 C 511.5,432.5 511.5,437.5 511.5,442.5C 507.95,451.211 501.617,457.045 492.5,460C 334.5,460.667 176.5,460.667 18.5,460C 9.38309,457.045 3.04976,451.211 -0.5,442.5C -0.5,437.5 -0.5,432.5 -0.5,427.5C 2.86383,417.308 9.86383,411.141 20.5,409C 177.167,408.333 333.833,408.333 490.5,409C 501.136,411.141 508.136,417.308 511.5,427.5 Z"/></g>
</svg>
