<?xml version="1.0" encoding="UTF-8"?>
<!DOCTYPE svg PUBLIC "-//W3C//DTD SVG 1.1//EN" "http://www.w3.org/Graphics/SVG/1.1/DTD/svg11.dtd">
<svg xmlns="http://www.w3.org/2000/svg" version="1.1" width="500px" height="500px" style="shape-rendering:geometricPrecision; text-rendering:geometricPrecision; image-rendering:optimizeQuality; fill-rule:evenodd; clip-rule:evenodd" xmlns:xlink="http://www.w3.org/1999/xlink">
<g><path style="opacity:0.031" fill="#fefffe" d="M 87.5,132.5 C 88.8333,133.167 88.8333,133.167 87.5,132.5 Z"/></g>
<g><path style="opacity:0.42" fill="#7b7b7b" d="M 401.5,133.5 C 396.167,133.5 390.833,133.5 385.5,133.5C 378.167,133.5 370.833,133.5 363.5,133.5C 287.5,133.5 211.5,133.5 135.5,133.5C 128.167,133.5 120.833,133.5 113.5,133.5C 106.833,133.5 100.167,133.5 93.5,133.5C 95.2184,132.776 97.0517,132.109 99,131.5C 199.931,132.166 300.764,132.832 401.5,133.5 Z"/></g>
<g><path style="opacity:0.004" fill="#fefffe" d="M 85.5,133.5 C 86.8333,134.167 86.8333,134.167 85.5,133.5 Z"/></g>
<g><path style="opacity:0.999" fill="#181818" d="M 93.5,133.5 C 100.167,133.5 106.833,133.5 113.5,133.5C 113.511,135.017 114.177,136.184 115.5,137C 123.258,141.063 129.925,139.896 135.5,133.5C 211.5,133.5 287.5,133.5 363.5,133.5C 364.259,135.431 365.593,136.931 367.5,138C 371.086,139.108 374.753,139.608 378.5,139.5C 379.88,140.19 381.214,140.524 382.5,140.5C 380.365,141.645 378.199,141.645 376,140.5C 374.743,140.85 374.409,141.517 375,142.5C 376.073,141.72 377.24,141.887 378.5,143C 377.328,143.419 376.328,144.085 375.5,145C 381.552,145.79 387.552,145.624 393.5,144.5C 394.522,144.855 395.189,145.522 395.5,146.5C 295.494,145.836 195.828,146.502 96.5,148.5C 88.8012,146.529 85.4679,149.529 86.5,157.5C 85.791,158.404 84.791,158.737 83.5,158.5C 83.5,153.5 83.5,148.5 83.5,143.5C 83.5,142.5 83.5,141.5 83.5,140.5C 85.7837,136.69 89.1171,134.356 93.5,133.5 Z"/></g>
<g><path style="opacity:0.97" fill="#393939" d="M 113.5,133.5 C 120.833,133.5 128.167,133.5 135.5,133.5C 129.925,139.896 123.258,141.063 115.5,137C 114.177,136.184 113.511,135.017 113.5,133.5 Z"/></g>
<g><path style="opacity:0.961" fill="#393939" d="M 363.5,133.5 C 370.833,133.5 378.167,133.5 385.5,133.5C 383.797,136.192 381.464,138.192 378.5,139.5C 374.753,139.608 371.086,139.108 367.5,138C 365.593,136.931 364.259,135.431 363.5,133.5 Z"/></g>
<g><path style="opacity:0.024" fill="#fefffe" d="M 85.5,134.5 C 84.3991,135.598 83.0657,135.765 81.5,135C 82.7932,134.51 84.1266,134.343 85.5,134.5 Z"/></g>
<g><path style="opacity:0.016" fill="#fefffe" d="M 83.5,140.5 C 82.8333,139.167 82.8333,139.167 83.5,140.5 Z"/></g>
<g><path style="opacity:0.328" fill="#969696" d="M 395.5,146.5 C 396.5,146.5 397.5,146.5 398.5,146.5C 398.802,149.059 398.468,151.393 397.5,153.5C 397.5,151.5 397.5,149.5 397.5,147.5C 297.5,147.5 197.5,147.5 97.5,147.5C 97.5,150.167 97.5,152.833 97.5,155.5C 96.5318,153.393 96.1984,151.059 96.5,148.5C 195.828,146.502 295.494,145.836 395.5,146.5 Z"/></g>
<g><path style="opacity:1" fill="#303030" d="M 96.5,148.5 C 96.1984,151.059 96.5318,153.393 97.5,155.5C 98.4916,155.328 99.1583,155.662 99.5,156.5C 95.5083,161.332 91.175,161.666 86.5,157.5C 85.4679,149.529 88.8012,146.529 96.5,148.5 Z"/></g>
<g><path style="opacity:0.998" fill="#1e1e1e" d="M 385.5,133.5 C 390.833,133.5 396.167,133.5 401.5,133.5C 407.109,134.609 410.609,137.942 412,143.5C 412.667,208.5 412.667,273.5 412,338.5C 411.16,342.5 408.994,345.5 405.5,347.5C 405.762,346.022 405.429,344.689 404.5,343.5C 401.891,342.77 399.224,342.27 396.5,342C 397.833,340.667 399.167,339.333 400.5,338C 399.956,337.283 399.289,336.783 398.5,336.5C 398.827,326.319 398.494,316.319 397.5,306.5C 388.82,299.151 380.487,291.485 372.5,283.5C 372.918,282.778 373.584,282.278 374.5,282C 373.833,281.667 373.167,281.333 372.5,281C 374.055,279.354 375.721,279.021 377.5,280C 376.167,279 376.167,278 377.5,277C 379.518,276.495 381.518,275.995 383.5,275.5C 388.399,278.456 392.732,282.123 396.5,286.5C 396.56,287.043 396.893,287.376 397.5,287.5C 397.833,268 398.167,248.5 398.5,229C 398.506,209.095 398.173,189.928 397.5,171.5C 385.342,180.413 373.008,189.079 360.5,197.5C 357.926,197.156 355.259,197.656 352.5,199C 353.956,199.423 354.456,200.256 354,201.5C 351.741,199.754 350.408,197.42 350,194.5C 347.024,198.866 343.19,200.032 338.5,198C 339.252,197.329 339.586,196.496 339.5,195.5C 358.53,181.145 377.863,167.145 397.5,153.5C 398.468,151.393 398.802,149.059 398.5,146.5C 397.5,146.5 396.5,146.5 395.5,146.5C 395.189,145.522 394.522,144.855 393.5,144.5C 387.552,145.624 381.552,145.79 375.5,145C 376.328,144.085 377.328,143.419 378.5,143C 377.24,141.887 376.073,141.72 375,142.5C 374.409,141.517 374.743,140.85 376,140.5C 378.199,141.645 380.365,141.645 382.5,140.5C 381.214,140.524 379.88,140.19 378.5,139.5C 381.464,138.192 383.797,136.192 385.5,133.5 Z"/></g>
<g><path style="opacity:0.999" fill="#1e1e1e" d="M 83.5,143.5 C 83.5,148.5 83.5,153.5 83.5,158.5C 84.791,158.737 85.791,158.404 86.5,157.5C 91.175,161.666 95.5083,161.332 99.5,156.5C 106.802,161.144 113.802,166.144 120.5,171.5C 121.614,174.177 121.614,176.844 120.5,179.5C 117.668,179.427 115.334,180.761 113.5,183.5C 108.5,180.167 103.5,176.833 98.5,173.5C 98.44,172.957 98.1067,172.624 97.5,172.5C 97.1667,192 96.8333,211.5 96.5,231C 96.5004,250.845 97.167,270.345 98.5,289.5C 99.4745,290.635 100.641,291.635 102,292.5C 103.388,291.446 104.888,291.28 106.5,292C 104.712,295.016 102.379,297.516 99.5,299.5C 100.397,299.669 101.397,300.002 102.5,300.5C 101.209,301.527 101.209,302.527 102.5,303.5C 101.473,305.194 100.139,306.527 98.5,307.5C 96.5278,316.44 95.8611,325.773 96.5,335.5C 114.662,336.332 132.995,336.832 151.5,337C 149.5,338.333 147.833,340 146.5,342C 149.094,342.449 151.094,341.449 152.5,339C 155.857,337.859 157.857,339.025 158.5,342.5C 158.152,344.697 157.152,346.53 155.5,348C 156.094,348.464 156.761,348.631 157.5,348.5C 157.5,348.833 157.5,349.167 157.5,349.5C 135.831,349.667 114.164,349.5 92.5,349C 88,347.167 84.8333,344 83,339.5C 82.1679,273.999 82.3346,208.665 83.5,143.5 Z"/></g>
<g><path style="opacity:0.398" fill="#6f6f6f" d="M 396.5,286.5 C 397.499,248.337 397.832,210.004 397.5,171.5C 398.173,189.928 398.506,209.095 398.5,229C 398.167,248.5 397.833,268 397.5,287.5C 396.893,287.376 396.56,287.043 396.5,286.5 Z"/></g>
<g><path style="opacity:0.047" fill="#cbcbcb" d="M 132.5,197.5 C 134.027,197.427 135.027,198.094 135.5,199.5C 133.973,199.573 132.973,198.906 132.5,197.5 Z"/></g>
<g><path style="opacity:0.399" fill="#777777" d="M 98.5,173.5 C 97.1667,211.833 97.1667,250.167 98.5,288.5C 98.5,288.833 98.5,289.167 98.5,289.5C 97.167,270.345 96.5004,250.845 96.5,231C 96.8333,211.5 97.1667,192 97.5,172.5C 98.1067,172.624 98.44,172.957 98.5,173.5 Z"/></g>
<g><path style="opacity:0.997" fill="#1f1f1f" d="M 120.5,171.5 C 146.888,189.354 172.888,207.687 198.5,226.5C 196.547,227.999 194.88,227.665 193.5,225.5C 192.692,225.808 192.025,226.308 191.5,227C 193.892,229.273 193.892,231.44 191.5,233.5C 191.709,234.086 192.043,234.586 192.5,235C 191.058,235.377 190.058,236.21 189.5,237.5C 187.246,236.585 185.246,235.252 183.5,233.5C 156.455,256.885 129.455,280.218 102.5,303.5C 101.209,302.527 101.209,301.527 102.5,300.5C 101.397,300.002 100.397,299.669 99.5,299.5C 102.379,297.516 104.712,295.016 106.5,292C 104.888,291.28 103.388,291.446 102,292.5C 100.641,291.635 99.4745,290.635 98.5,289.5C 98.5,289.167 98.5,288.833 98.5,288.5C 122.157,266.846 146.157,245.513 170.5,224.5C 158.942,215.899 147.276,207.566 135.5,199.5C 135.027,198.094 134.027,197.427 132.5,197.5C 125.951,193.066 119.617,188.399 113.5,183.5C 115.334,180.761 117.668,179.427 120.5,179.5C 121.614,176.844 121.614,174.177 120.5,171.5 Z"/></g>
<g><path style="opacity:0.996" fill="#202020" d="M 360.5,197.5 C 349.015,206.137 337.349,214.637 325.5,223C 345.168,240.3 364.502,257.8 383.5,275.5C 381.518,275.995 379.518,276.495 377.5,277C 376.167,278 376.167,279 377.5,280C 375.721,279.021 374.055,279.354 372.5,281C 373.167,281.333 373.833,281.667 374.5,282C 373.584,282.278 372.918,282.778 372.5,283.5C 352.514,266.516 332.514,249.516 312.5,232.5C 293.367,245.797 274.367,259.297 255.5,273C 249.294,276.543 243.294,276.209 237.5,272C 221.342,260.669 205.342,249.169 189.5,237.5C 190.058,236.21 191.058,235.377 192.5,235C 192.043,234.586 191.709,234.086 191.5,233.5C 193.892,231.44 193.892,229.273 191.5,227C 192.025,226.308 192.692,225.808 193.5,225.5C 194.88,227.665 196.547,227.999 198.5,226.5C 214.815,237.808 231.149,249.141 247.5,260.5C 277.874,238.322 308.541,216.656 339.5,195.5C 339.586,196.496 339.252,197.329 338.5,198C 343.19,200.032 347.024,198.866 350,194.5C 350.408,197.42 351.741,199.754 354,201.5C 354.456,200.256 353.956,199.423 352.5,199C 355.259,197.656 357.926,197.156 360.5,197.5 Z"/></g>
<g><path style="opacity:0.416" fill="#787878" d="M 98.5,307.5 C 97.5279,316.75 97.1945,326.083 97.5,335.5C 97.1667,335.5 96.8333,335.5 96.5,335.5C 95.8611,325.773 96.5278,316.44 98.5,307.5 Z"/></g>
<g><path style="opacity:0.654" fill="#3c3c3c" d="M 397.5,306.5 C 398.494,316.319 398.827,326.319 398.5,336.5C 320.306,336.574 241.972,336.741 163.5,337C 165.937,338.279 166.437,339.779 165,341.5C 163.686,340.687 162.519,339.687 161.5,338.5C 161.907,341.179 161.407,343.846 160,346.5C 159.292,347.381 158.458,348.047 157.5,348.5C 156.761,348.631 156.094,348.464 155.5,348C 157.152,346.53 158.152,344.697 158.5,342.5C 157.857,339.025 155.857,337.859 152.5,339C 151.094,341.449 149.094,342.449 146.5,342C 147.833,340 149.5,338.333 151.5,337C 132.995,336.832 114.662,336.332 96.5,335.5C 96.8333,335.5 97.1667,335.5 97.5,335.5C 197.5,335.5 297.5,335.5 397.5,335.5C 397.5,325.833 397.5,316.167 397.5,306.5 Z"/></g>
<g><path style="opacity:0.999" fill="#181818" d="M 398.5,336.5 C 399.289,336.783 399.956,337.283 400.5,338C 399.167,339.333 397.833,340.667 396.5,342C 399.224,342.27 401.891,342.77 404.5,343.5C 405.429,344.689 405.762,346.022 405.5,347.5C 402.697,346.933 400.364,345.6 398.5,343.5C 397.833,343.667 397.167,343.833 396.5,344C 398.464,345.451 399.797,347.284 400.5,349.5C 319.5,349.5 238.5,349.5 157.5,349.5C 157.5,349.167 157.5,348.833 157.5,348.5C 158.458,348.047 159.292,347.381 160,346.5C 161.407,343.846 161.907,341.179 161.5,338.5C 162.519,339.687 163.686,340.687 165,341.5C 166.437,339.779 165.937,338.279 163.5,337C 241.972,336.741 320.306,336.574 398.5,336.5 Z"/></g>
<g><path style="opacity:0.965" fill="#4c4c4c" d="M 405.5,347.5 C 404.07,348.537 402.403,349.204 400.5,349.5C 399.797,347.284 398.464,345.451 396.5,344C 397.167,343.833 397.833,343.667 398.5,343.5C 400.364,345.6 402.697,346.933 405.5,347.5 Z"/></g>
</svg>
