<?xml version="1.0" encoding="UTF-8"?>
<!DOCTYPE svg PUBLIC "-//W3C//DTD SVG 1.1//EN" "http://www.w3.org/Graphics/SVG/1.1/DTD/svg11.dtd">
<svg xmlns="http://www.w3.org/2000/svg" version="1.1" width="600px" height="600px" style="shape-rendering:geometricPrecision; text-rendering:geometricPrecision; image-rendering:optimizeQuality; fill-rule:evenodd; clip-rule:evenodd" xmlns:xlink="http://www.w3.org/1999/xlink">
<g><path style="opacity:1" fill="#fefefe" d="M -0.5,-0.5 C 199.5,-0.5 399.5,-0.5 599.5,-0.5C 599.5,199.5 599.5,399.5 599.5,599.5C 399.5,599.5 199.5,599.5 -0.5,599.5C -0.5,399.5 -0.5,199.5 -0.5,-0.5 Z"/></g>
<g><path style="opacity:1" fill="#252123" d="M 293.5,136.5 C 295.635,141.937 297.469,147.603 299,153.5C 301.451,158.58 304.951,162.747 309.5,166C 316.136,168.267 322.802,170.434 329.5,172.5C 323.418,174.039 317.418,175.873 311.5,178C 304.879,181.29 300.379,186.457 298,193.5C 296.794,198.531 295.46,203.531 294,208.5C 292.252,200.847 289.585,193.514 286,186.5C 283.079,182.908 279.579,180.075 275.5,178C 269.381,176.471 263.381,174.638 257.5,172.5C 265.495,170.423 273.162,167.59 280.5,164C 283.762,161.408 286.262,158.241 288,154.5C 289.839,148.47 291.673,142.47 293.5,136.5 Z"/></g>
<g><path style="opacity:1" fill="#241f21" d="M 196.5,201.5 C 199.762,210.249 202.595,219.249 205,228.5C 209.833,238.667 217.333,246.167 227.5,251C 236.156,253.325 244.823,255.659 253.5,258C 245.187,260.494 236.854,262.827 228.5,265C 217,269.833 208.833,278 204,289.5C 202.074,297.944 199.741,306.278 197,314.5C 194.8,301.683 190.467,289.683 184,278.5C 179.308,273.24 173.808,269.074 167.5,266C 158.283,263.783 149.283,261.116 140.5,258C 149.915,255.585 159.248,252.918 168.5,250C 179.602,244.231 187.102,235.398 191,223.5C 192.739,216.122 194.572,208.788 196.5,201.5 Z"/></g>
<g><path style="opacity:1" fill="#251e21" d="M 342.5,233.5 C 343.586,233.62 344.253,234.287 344.5,235.5C 348.738,253.787 353.904,271.787 360,289.5C 369.709,310.876 385.542,325.709 407.5,334C 424.467,338.825 441.467,343.492 458.5,348C 442.102,352.182 425.769,356.516 409.5,361C 386.995,369.173 370.495,384.006 360,405.5C 354.045,423.986 348.712,442.652 344,461.5C 338.704,444.325 333.704,426.991 329,409.5C 318.623,386.123 301.456,369.956 277.5,361C 261.014,357.129 244.681,352.796 228.5,348C 247.958,342.71 267.292,337.043 286.5,331C 307.691,320.81 322.191,304.644 330,282.5C 334.486,266.233 338.653,249.9 342.5,233.5 Z"/></g>
</svg>
