<?xml version="1.0" encoding="UTF-8"?>
<!DOCTYPE svg PUBLIC "-//W3C//DTD SVG 1.1//EN" "http://www.w3.org/Graphics/SVG/1.1/DTD/svg11.dtd">
<svg xmlns="http://www.w3.org/2000/svg" version="1.1" width="524px" height="476px" style="shape-rendering:geometricPrecision; text-rendering:geometricPrecision; image-rendering:optimizeQuality; fill-rule:evenodd; clip-rule:evenodd" xmlns:xlink="http://www.w3.org/1999/xlink">
<g><path style="opacity:0.867" fill="#000000" d="M 167.5,41.5 C 169.017,41.5106 170.184,42.1772 171,43.5C 173.127,51.7988 175.127,60.1321 177,68.5C 180.361,77.5214 186.194,84.3548 194.5,89C 203.715,91.759 213.048,94.0923 222.5,96C 223.991,98.0217 223.658,99.6883 221.5,101C 213.073,102.619 204.74,104.619 196.5,107C 186.91,110.923 180.41,117.756 177,127.5C 175.149,135.119 173.482,142.786 172,150.5C 171.121,153.346 169.454,154.013 167,152.5C 165.116,141.962 162.449,131.629 159,121.5C 155.777,115.277 150.943,110.777 144.5,108C 135.999,105.055 127.333,102.722 118.5,101C 111.899,98.517 112.233,96.517 119.5,95C 127.631,93.5074 135.631,91.5074 143.5,89C 151.394,85.4387 156.894,79.6054 160,71.5C 162.57,61.4749 165.07,51.4749 167.5,41.5 Z"/></g>
<g><path style="opacity:0.944" fill="#000000" d="M 312.5,53.5 C 315.168,54.4567 316.668,56.4567 317,59.5C 322.239,84.7876 328.572,109.788 336,134.5C 345.748,157.249 361.915,173.749 384.5,184C 409.59,191.272 434.923,197.606 460.5,203C 463.112,203.639 465.446,204.806 467.5,206.5C 466.91,207.799 465.91,208.632 464.5,209C 437.632,214.906 410.966,221.573 384.5,229C 361.915,239.251 345.748,255.751 336,278.5C 328.237,304.551 321.571,330.884 316,357.5C 315.311,358.357 314.478,359.023 313.5,359.5C 311.578,357.997 310.412,355.997 310,353.5C 305.001,332.172 300.001,310.838 295,289.5C 285.422,258.256 265.256,237.089 234.5,226C 211.613,220.195 188.613,214.862 165.5,210C 159.413,208.449 159.08,206.449 164.5,204C 186.5,198.667 208.5,193.333 230.5,188C 259.858,179.308 280.358,160.808 292,132.5C 299.001,106.159 305.835,79.8257 312.5,53.5 Z"/></g>
<g><path style="opacity:0.912" fill="#000000" d="M 171.5,243.5 C 173.61,244.453 174.777,246.119 175,248.5C 178.217,264.37 182.217,280.037 187,295.5C 192.833,306.667 201.333,315.167 212.5,321C 228.925,326.219 245.591,330.552 262.5,334C 265.249,336.19 264.915,337.857 261.5,339C 246.379,342.197 231.379,345.864 216.5,350C 202.791,355.044 192.957,364.21 187,377.5C 182.034,393.993 177.701,410.659 174,427.5C 171.918,430.15 170.251,429.816 169,426.5C 165.602,409.574 161.269,392.907 156,376.5C 149.654,363.822 139.82,354.989 126.5,350C 111.616,345.862 96.6157,342.196 81.5,339C 77.5,337.333 77.5,335.667 81.5,334C 96.5418,330.49 111.542,326.823 126.5,323C 141.667,317.167 152.167,306.667 158,291.5C 161.921,276.565 165.587,261.565 169,246.5C 169.698,245.309 170.531,244.309 171.5,243.5 Z"/></g>
</svg>
