<?xml version="1.0" encoding="UTF-8"?>
<!DOCTYPE svg PUBLIC "-//W3C//DTD SVG 1.1//EN" "http://www.w3.org/Graphics/SVG/1.1/DTD/svg11.dtd">
<svg xmlns="http://www.w3.org/2000/svg" version="1.1" width="500px" height="499px" style="shape-rendering:geometricPrecision; text-rendering:geometricPrecision; image-rendering:optimizeQuality; fill-rule:evenodd; clip-rule:evenodd" xmlns:xlink="http://www.w3.org/1999/xlink">
<g><path style="opacity:1" fill="#030303" d="M 243.5,-0.5 C 247.5,-0.5 251.5,-0.5 255.5,-0.5C 256.29,0.40128 257.29,1.06795 258.5,1.5C 259.035,3.44563 260.368,4.44563 262.5,4.5C 264.167,8.16667 266.833,10.8333 270.5,12.5C 271.167,15.1667 272.833,16.8333 275.5,17.5C 275.5,19.5 276.5,20.5 278.5,20.5C 279.167,23.1667 280.833,24.8333 283.5,25.5C 283.5,27.5 284.5,28.5 286.5,28.5C 287.167,31.1667 288.833,32.8333 291.5,33.5C 291.5,35.5 292.5,36.5 294.5,36.5C 294.5,38.5 295.5,39.5 297.5,39.5C 299.167,40.5 300.5,41.8333 301.5,43.5C 302.5,46.5 304.5,48.5 307.5,49.5C 307.5,51.5 308.5,52.5 310.5,52.5C 312.167,56.1667 314.833,58.8333 318.5,60.5C 319.167,63.1667 320.833,64.8333 323.5,65.5C 323.5,67.5 324.5,68.5 326.5,68.5C 327.167,71.1667 328.833,72.8333 331.5,73.5C 331.5,75.5 332.5,76.5 334.5,76.5C 336.167,80.1667 338.833,82.8333 342.5,84.5C 342.833,86.8333 344.167,88.1667 346.5,88.5C 346.833,90.8333 348.167,92.1667 350.5,92.5C 351.167,95.1667 352.833,96.8333 355.5,97.5C 355.5,99.5 356.5,100.5 358.5,100.5C 360.167,104.167 362.833,106.833 366.5,108.5C 367.08,110.749 368.413,112.415 370.5,113.5C 377.89,124.14 376.223,133.306 365.5,141C 362.635,141.837 359.802,142.67 357,143.5C 353.911,142.972 351.077,141.972 348.5,140.5C 348.027,139.094 347.027,138.427 345.5,138.5C 325.785,119.452 306.452,100.119 287.5,80.5C 286.738,78.7376 285.404,77.7376 283.5,77.5C 279.5,73.1667 275.5,68.8333 271.5,64.5C 270.833,63.1667 269.833,62.1667 268.5,61.5C 268.44,60.9569 268.107,60.6236 267.5,60.5C 266.5,167.165 266.167,273.831 266.5,380.5C 265.083,386.419 261.416,390.252 255.5,392C 249.731,393.812 244.398,392.979 239.5,389.5C 238.738,387.738 237.404,386.738 235.5,386.5C 233.975,384.784 232.975,382.784 232.5,380.5C 232.833,273.831 232.5,167.165 231.5,60.5C 230.702,60.9569 230.369,61.6236 230.5,62.5C 205.702,87.7987 180.702,112.965 155.5,138C 153.423,139.705 151.09,140.872 148.5,141.5C 143.463,141.587 138.463,141.254 133.5,140.5C 132.833,140.5 132.5,140.167 132.5,139.5C 132.027,138.094 131.027,137.427 129.5,137.5C 129.446,135.368 128.446,134.035 126.5,133.5C 122.57,126.452 123.237,119.785 128.5,113.5C 158.167,84.5 187.5,55.1667 216.5,25.5C 221.452,19.8814 226.785,14.5481 232.5,9.5C 234.833,7.83333 236.833,5.83333 238.5,3.5C 239.984,1.92635 241.651,0.593015 243.5,-0.5 Z"/></g>
<g><path style="opacity:0.596" fill="#8f8f8f" d="M 258.5,1.5 C 260.23,2.02561 261.564,3.02561 262.5,4.5C 260.368,4.44563 259.035,3.44563 258.5,1.5 Z"/></g>
<g><path style="opacity:0.608" fill="#898989" d="M 238.5,3.5 C 236.833,5.83333 234.833,7.83333 232.5,9.5C 233.5,6.5 235.5,4.5 238.5,3.5 Z"/></g>
<g><path style="opacity:0.678" fill="#989898" d="M 262.5,4.5 C 265.5,6.83333 268.167,9.5 270.5,12.5C 266.833,10.8333 264.167,8.16667 262.5,4.5 Z"/></g>
<g><path style="opacity:0.667" fill="#9a9a9a" d="M 270.5,12.5 C 272.5,13.8333 274.167,15.5 275.5,17.5C 272.833,16.8333 271.167,15.1667 270.5,12.5 Z"/></g>
<g><path style="opacity:0.655" fill="#969696" d="M 275.5,17.5 C 276.833,18.1667 277.833,19.1667 278.5,20.5C 276.5,20.5 275.5,19.5 275.5,17.5 Z"/></g>
<g><path style="opacity:0.659" fill="#989898" d="M 278.5,20.5 C 280.5,21.8333 282.167,23.5 283.5,25.5C 280.833,24.8333 279.167,23.1667 278.5,20.5 Z"/></g>
<g><path style="opacity:0.655" fill="#989898" d="M 283.5,25.5 C 284.833,26.1667 285.833,27.1667 286.5,28.5C 284.5,28.5 283.5,27.5 283.5,25.5 Z"/></g>
<g><path style="opacity:0.659" fill="#9b9b9b" d="M 286.5,28.5 C 288.5,29.8333 290.167,31.5 291.5,33.5C 288.833,32.8333 287.167,31.1667 286.5,28.5 Z"/></g>
<g><path style="opacity:0.659" fill="#999999" d="M 291.5,33.5 C 292.833,34.1667 293.833,35.1667 294.5,36.5C 292.5,36.5 291.5,35.5 291.5,33.5 Z"/></g>
<g><path style="opacity:0.671" fill="#9c9c9c" d="M 294.5,36.5 C 295.833,37.1667 296.833,38.1667 297.5,39.5C 295.5,39.5 294.5,38.5 294.5,36.5 Z"/></g>
<g><path style="opacity:0.667" fill="#9a9a9a" d="M 301.5,43.5 C 303.833,45.1667 305.833,47.1667 307.5,49.5C 304.5,48.5 302.5,46.5 301.5,43.5 Z"/></g>
<g><path style="opacity:0.671" fill="#999999" d="M 307.5,49.5 C 308.833,50.1667 309.833,51.1667 310.5,52.5C 308.5,52.5 307.5,51.5 307.5,49.5 Z"/></g>
<g><path style="opacity:0.675" fill="#9b9b9b" d="M 310.5,52.5 C 313.5,54.8333 316.167,57.5 318.5,60.5C 314.833,58.8333 312.167,56.1667 310.5,52.5 Z"/></g>
<g><path style="opacity:0.569" fill="#a5a5a5" d="M 267.5,62.5 C 267.5,61.8333 267.833,61.5 268.5,61.5C 269.833,62.1667 270.833,63.1667 271.5,64.5C 269.938,64.2671 268.605,63.6005 267.5,62.5 Z"/></g>
<g><path style="opacity:0.675" fill="#9c9c9c" d="M 318.5,60.5 C 320.5,61.8333 322.167,63.5 323.5,65.5C 320.833,64.8333 319.167,63.1667 318.5,60.5 Z"/></g>
<g><path style="opacity:0.791" fill="#292929" d="M 232.5,380.5 C 231.833,274.5 231.167,168.5 230.5,62.5C 230.369,61.6236 230.702,60.9569 231.5,60.5C 232.5,167.165 232.833,273.831 232.5,380.5 Z"/></g>
<g><path style="opacity:0.678" fill="#999999" d="M 323.5,65.5 C 324.833,66.1667 325.833,67.1667 326.5,68.5C 324.5,68.5 323.5,67.5 323.5,65.5 Z"/></g>
<g><path style="opacity:0.675" fill="#9b9b9b" d="M 326.5,68.5 C 328.5,69.8333 330.167,71.5 331.5,73.5C 328.833,72.8333 327.167,71.1667 326.5,68.5 Z"/></g>
<g><path style="opacity:0.798" fill="#282828" d="M 268.5,61.5 C 267.833,61.5 267.5,61.8333 267.5,62.5C 267.833,168.668 267.499,274.668 266.5,380.5C 266.167,273.831 266.5,167.165 267.5,60.5C 268.107,60.6236 268.44,60.9569 268.5,61.5 Z"/></g>
<g><path style="opacity:0.671" fill="#999999" d="M 331.5,73.5 C 332.833,74.1667 333.833,75.1667 334.5,76.5C 332.5,76.5 331.5,75.5 331.5,73.5 Z"/></g>
<g><path style="opacity:0.553" fill="#a8a8a8" d="M 283.5,77.5 C 285.404,77.7376 286.738,78.7376 287.5,80.5C 285.596,80.2624 284.262,79.2624 283.5,77.5 Z"/></g>
<g><path style="opacity:0.671" fill="#999999" d="M 334.5,76.5 C 337.5,78.8333 340.167,81.5 342.5,84.5C 338.833,82.8333 336.167,80.1667 334.5,76.5 Z"/></g>
<g><path style="opacity:0.627" fill="#929292" d="M 216.5,25.5 C 187.5,55.1667 158.167,84.5 128.5,113.5C 156.581,83.9174 185.248,54.7507 214.5,26C 215.094,25.5357 215.761,25.369 216.5,25.5 Z"/></g>
<g><path style="opacity:0.667" fill="#999999" d="M 342.5,84.5 C 344.167,85.5 345.5,86.8333 346.5,88.5C 344.167,88.1667 342.833,86.8333 342.5,84.5 Z"/></g>
<g><path style="opacity:0.667" fill="#969696" d="M 346.5,88.5 C 348.167,89.5 349.5,90.8333 350.5,92.5C 348.167,92.1667 346.833,90.8333 346.5,88.5 Z"/></g>
<g><path style="opacity:0.671" fill="#9a9a9a" d="M 350.5,92.5 C 352.5,93.8333 354.167,95.5 355.5,97.5C 352.833,96.8333 351.167,95.1667 350.5,92.5 Z"/></g>
<g><path style="opacity:0.671" fill="#999999" d="M 355.5,97.5 C 356.833,98.1667 357.833,99.1667 358.5,100.5C 356.5,100.5 355.5,99.5 355.5,97.5 Z"/></g>
<g><path style="opacity:0.675" fill="#9a9a9a" d="M 358.5,100.5 C 361.5,102.833 364.167,105.5 366.5,108.5C 362.833,106.833 360.167,104.167 358.5,100.5 Z"/></g>
<g><path style="opacity:0.675" fill="#939393" d="M 366.5,108.5 C 368.587,109.585 369.92,111.251 370.5,113.5C 368.413,112.415 367.08,110.749 366.5,108.5 Z"/></g>
<g><path style="opacity:0.969" fill="#6d6d6d" d="M 126.5,133.5 C 128.446,134.035 129.446,135.368 129.5,137.5C 128.026,136.564 127.026,135.23 126.5,133.5 Z"/></g>
<g><path style="opacity:0.733" fill="#848484" d="M 129.5,137.5 C 131.027,137.427 132.027,138.094 132.5,139.5C 130.973,139.573 129.973,138.906 129.5,137.5 Z"/></g>
<g><path style="opacity:0.584" fill="#6f6f6f" d="M 345.5,138.5 C 347.027,138.427 348.027,139.094 348.5,140.5C 346.973,140.573 345.973,139.906 345.5,138.5 Z"/></g>
<g><path style="opacity:0.799" fill="#676767" d="M 133.5,140.5 C 138.463,141.254 143.463,141.587 148.5,141.5C 143.453,143.705 138.453,143.372 133.5,140.5 Z"/></g>
<g><path style="opacity:0.808" fill="#737373" d="M 20.5,284.5 C 17.1401,284.616 13.8067,284.949 10.5,285.5C 13.7076,283.469 17.041,283.135 20.5,284.5 Z"/></g>
<g><path style="opacity:1" fill="#030303" d="M 494.5,289.5 C 494.738,291.404 495.738,292.738 497.5,293.5C 498.167,294.5 498.833,295.5 499.5,296.5C 499.5,349.167 499.5,401.833 499.5,454.5C 493.833,478.167 479.167,492.833 455.5,498.5C 318.167,498.5 180.833,498.5 43.5,498.5C 37.4575,497.151 31.7909,494.817 26.5,491.5C 26.0269,490.094 25.0269,489.427 23.5,489.5C 21.5956,489.262 20.2623,488.262 19.5,486.5C 18.7377,484.738 17.4044,483.738 15.5,483.5C 7.00653,475.179 1.6732,465.179 -0.5,453.5C -0.5,401.167 -0.5,348.833 -0.5,296.5C 0.166667,295.5 0.833333,294.5 1.5,293.5C 2.90632,293.027 3.57298,292.027 3.5,290.5C 4.99232,287.677 7.32565,286.01 10.5,285.5C 13.8067,284.949 17.1401,284.616 20.5,284.5C 27.852,285.344 32.6853,289.344 35,296.5C 35.3333,346.833 35.6667,397.167 36,447.5C 37.1101,454.44 40.9434,459.107 47.5,461.5C 48.2625,462.268 49.2625,462.768 50.5,463C 183.167,463.667 315.833,463.667 448.5,463C 450.058,462.79 451.391,462.29 452.5,461.5C 452.842,460.662 453.508,460.328 454.5,460.5C 456.027,460.573 457.027,459.906 457.5,458.5C 460.097,455.644 461.93,452.311 463,448.5C 463.333,398.167 463.667,347.833 464,297.5C 464.754,294.316 466.254,291.649 468.5,289.5C 470.027,289.573 471.027,288.906 471.5,287.5C 476.568,283.466 482.235,282.632 488.5,285C 491.106,285.792 493.106,287.292 494.5,289.5 Z"/></g>
<g><path style="opacity:0.718" fill="#6e6e6e" d="M 471.5,287.5 C 471.027,288.906 470.027,289.573 468.5,289.5C 468.973,288.094 469.973,287.427 471.5,287.5 Z"/></g>
<g><path style="opacity:0.851" fill="#6c6c6c" d="M 494.5,289.5 C 496.262,290.262 497.262,291.596 497.5,293.5C 495.738,292.738 494.738,291.404 494.5,289.5 Z"/></g>
<g><path style="opacity:0.455" fill="#8d8d8d" d="M 3.5,290.5 C 3.57298,292.027 2.90632,293.027 1.5,293.5C 1.42702,291.973 2.09368,290.973 3.5,290.5 Z"/></g>
<g><path style="opacity:0.647" fill="#a0a0a0" d="M 235.5,386.5 C 237.404,386.738 238.738,387.738 239.5,389.5C 237.596,389.262 236.262,388.262 235.5,386.5 Z"/></g>
<g><path style="opacity:0.757" fill="#6e6e6e" d="M 457.5,458.5 C 457.027,459.906 456.027,460.573 454.5,460.5C 454.973,459.094 455.973,458.427 457.5,458.5 Z"/></g>
<g><path style="opacity:0.72" fill="#454545" d="M 47.5,461.5 C 182.496,462.832 317.496,462.832 452.5,461.5C 451.391,462.29 450.058,462.79 448.5,463C 315.833,463.667 183.167,463.667 50.5,463C 49.2625,462.768 48.2625,462.268 47.5,461.5 Z"/></g>
<g><path style="opacity:0.698" fill="#888888" d="M 15.5,483.5 C 17.4044,483.738 18.7377,484.738 19.5,486.5C 17.5956,486.262 16.2623,485.262 15.5,483.5 Z"/></g>
<g><path style="opacity:0.482" fill="#7f7f7f" d="M 23.5,489.5 C 25.0269,489.427 26.0269,490.094 26.5,491.5C 24.9731,491.573 23.9731,490.906 23.5,489.5 Z"/></g>
</svg>
