<?xml version="1.0" encoding="UTF-8"?>
<!DOCTYPE svg PUBLIC "-//W3C//DTD SVG 1.1//EN" "http://www.w3.org/Graphics/SVG/1.1/DTD/svg11.dtd">
<svg xmlns="http://www.w3.org/2000/svg" version="1.1" width="481px" height="519px" style="shape-rendering:geometricPrecision; text-rendering:geometricPrecision; image-rendering:optimizeQuality; fill-rule:evenodd; clip-rule:evenodd" xmlns:xlink="http://www.w3.org/1999/xlink">
<g><path style="opacity:1" fill="#020202" d="M 405.5,455.5 C 403.485,454.076 401.152,453.41 398.5,453.5C 393.442,451.803 388.775,449.303 384.5,446C 336.682,400.349 289.015,354.515 241.5,308.5C 190.624,360.875 139.957,413.375 89.5,466C 67.4991,478.77 47.6658,475.937 30,457.5C 19.4756,441.247 18.8089,424.58 28,407.5C 78.1353,354.364 128.635,301.53 179.5,249C 131,202.5 82.5,156 34,109.5C 22.1057,92.2875 21.439,74.6209 32,56.5C 49.0569,37.296 68.8903,33.796 91.5,46C 140.883,92.372 189.883,139.205 238.5,186.5C 288.988,134.512 339.321,82.3451 389.5,30C 407.101,18.697 424.768,18.697 442.5,30C 460.04,46.7385 463.207,65.9052 452,87.5C 401.821,140.345 351.654,193.179 301.5,246C 349.298,292.796 397.464,339.296 446,385.5C 457.864,402.728 458.531,420.394 448,438.5C 437.09,452.374 422.923,458.04 405.5,455.5 Z"/></g>
<g><path style="opacity:0.612" fill="#616161" d="M 398.5,453.5 C 401.152,453.41 403.485,454.076 405.5,455.5C 402.848,455.59 400.515,454.924 398.5,453.5 Z"/></g>
</svg>
